<svg width="362" height="256" viewBox="0 0 362 256" fill="none" xmlns="http://www.w3.org/2000/svg">
<g filter="url(#filter0_d)">
<rect x="20" y="20" width="322" height="216" rx="20" fill="white"/>
<path d="M264.469 120.325H282.97V113.651H264.469V120.325ZM264.469 156.843H282.97V150.168H264.469V156.843ZM264.469 83.8059H282.97V77.1315H264.469V83.8059ZM264.469 95.9803H282.97V89.3059H264.469V95.9803ZM264.469 132.498H282.97V125.823H264.469V132.498ZM264.469 108.151H282.97V101.477H264.469V108.151ZM264.469 144.67H282.97V137.996H264.469V144.67ZM264.469 169.987H282.97V162.341H264.469V169.987ZM282.97 64.0026H264.469V71.6353H282.97V64.0026Z" fill="#7C3746"/>
<path d="M186.106 64.0017H167.601V71.6344H191.53L186.106 64.0017ZM195.442 77.1325H167.601V83.8051H200.189L195.442 77.1325V77.1325Z" fill="#7C3746"/>
<path d="M126.146 162.34C125.419 162.426 124.679 162.475 123.927 162.475C123.184 162.475 122.449 162.426 121.724 162.34H80V169.986H137.398V169.943C143.834 169.571 149.635 166.739 153.916 162.34H126.146Z" fill="#7C3746"/>
<path d="M80.0005 132.498H98.4983V125.823H80.0005V132.498Z" fill="#7C3746"/>
<path d="M80.0005 95.9803H98.4983V89.3059H80.0005V95.9803Z" fill="#7C3746"/>
<path d="M80.0005 108.151H98.4983V101.477H80.0005V108.151Z" fill="#7C3746"/>
<path d="M80.0005 83.806H98.4983V77.1316H80.0005V83.806Z" fill="#7C3746"/>
<path d="M80.0005 144.67H98.4983V137.996H80.0005V144.67Z" fill="#7C3746"/>
<path d="M80.0005 156.843H98.4983V150.168H80.0005V156.843Z" fill="#7C3746"/>
<path d="M123.927 162.476C124.679 162.476 125.419 162.427 126.146 162.341H121.724C122.45 162.427 123.184 162.476 123.927 162.476Z" fill="#5D152C"/>
<path d="M158.867 132.497C157.711 130.03 156.181 127.788 154.371 125.823H134.757C137.243 127.537 139.312 129.825 140.806 132.497H158.867Z" fill="#7C3746"/>
<path d="M142.899 137.997C143.213 139.43 143.39 140.922 143.39 142.454C143.39 143.205 143.343 143.942 143.269 144.671H161.355C161.359 144.393 161.374 144.117 161.374 143.837C161.374 141.826 161.146 139.874 160.73 137.997H142.899Z" fill="#7C3746"/>
<path d="M137.449 156.842H158.005C159.157 154.779 160.043 152.539 160.615 150.168H141.889C140.861 152.699 139.333 154.965 137.449 156.842Z" fill="#7C3746"/>
<path d="M136.962 91.3609C136.962 92.9487 136.79 94.4914 136.475 95.9796H153.973C154.244 94.3993 154.393 92.7777 154.393 91.1166C154.393 90.5078 154.363 89.9046 154.327 89.3052H136.868C136.932 89.9817 136.962 90.6675 136.962 91.3609Z" fill="#7C3746"/>
<path d="M135.632 83.8053H153.448C152.83 81.4339 151.92 79.1941 150.752 77.1309H131.671C133.363 79.0513 134.718 81.3099 135.632 83.8053Z" fill="#7C3746"/>
<path d="M128.939 108.15H148.739C150.265 106.142 151.525 103.898 152.464 101.476H134.495C133.116 104.107 131.212 106.386 128.939 108.15Z" fill="#7C3746"/>
<path d="M111.464 71.6327H146.64C142.509 67.3654 137.027 64.5862 130.938 64.0883V64H80.001V71.6327H111.464Z" fill="#7C3746"/>
<path d="M135.953 117.686C135.048 117.686 134.159 117.739 133.275 117.834C136.864 117.182 140.202 115.732 143.107 113.65H80.0007V120.324H147.091C143.727 118.635 139.945 117.686 135.953 117.686Z" fill="#7C3746"/>
<path d="M111.22 71.7152L111.464 71.6344H111.307L111.22 71.7152Z" fill="#5D152C"/>
<path d="M167.601 144.67H177.114V137.996H167.601V144.67Z" fill="#7C3746"/>
<path d="M167.601 120.325H177.114V113.651H167.601V120.325Z" fill="#7C3746"/>
<path d="M167.601 169.987H177.114V162.341H167.601V169.987Z" fill="#7C3746"/>
<path d="M167.601 156.843H177.114V150.168H167.601V156.843Z" fill="#7C3746"/>
<path d="M167.601 108.151H177.114V101.477H167.601V108.151Z" fill="#7C3746"/>
<path d="M167.601 132.498H177.114V125.823H167.601V132.498Z" fill="#7C3746"/>
<path d="M244.029 120.325H253.546V113.651H244.029V120.325Z" fill="#7C3746"/>
<path d="M244.029 108.151H253.546V101.477H244.029V108.151Z" fill="#7C3746"/>
<path d="M244.029 95.9803H253.546V89.3059H244.029V95.9803Z" fill="#7C3746"/>
<path d="M244.029 71.6334H253.546V64.0007H244.029V71.6334Z" fill="#7C3746"/>
<path d="M244.029 83.806H253.546V77.1316H244.029V83.806Z" fill="#7C3746"/>
<path d="M244.029 132.498H253.546V125.823H244.029V132.498Z" fill="#7C3746"/>
<path d="M221.421 113.65H194.97L199.716 120.324H226.166L221.421 113.65Z" fill="#7C3746"/>
<path d="M203.626 125.822L208.375 132.497H234.826L230.077 125.822H203.626Z" fill="#7C3746"/>
<path d="M212.756 101.475H186.313L191.06 108.15H217.509L212.756 101.475Z" fill="#7C3746"/>
<path d="M235.043 162.34H229.604L235.043 169.984V169.986H253.547V162.34H235.043Z" fill="#7C3746"/>
<path d="M235.043 150.168H220.949L225.696 156.842H253.547V150.168H235.043Z" fill="#7C3746"/>
<path d="M177.115 101.475H177.324L177.115 101.184V101.475Z" fill="#5D152C"/>
<path d="M244.029 132.802V132.497H243.816L244.029 132.802Z" fill="#5D152C"/>
<path d="M182.398 95.9796H208.852L204.103 89.3052H177.513L182.345 95.9796H182.398Z" fill="#7C3746"/>
<path d="M167.601 95.9803H177.114V89.3059H167.601V95.9803Z" fill="#7C3746"/>
<path d="M212.286 137.997L217.039 144.671H243.646L238.818 137.997H212.286Z" fill="#7C3746"/>
<path d="M243.995 144.67H253.546V137.996H243.995V144.67Z" fill="#7C3746"/>
<path d="M90.08 186.632C90.544 186.784 90.912 187.04 91.184 187.4C91.456 187.752 91.592 188.192 91.592 188.72C91.592 189.448 91.312 190.012 90.752 190.412C90.192 190.804 89.376 191 88.304 191H84.128V182.6H88.064C89.056 182.6 89.82 182.796 90.356 183.188C90.892 183.572 91.16 184.104 91.16 184.784C91.16 185.2 91.064 185.568 90.872 185.888C90.68 186.208 90.416 186.456 90.08 186.632ZM85.688 183.824V186.14H87.896C88.44 186.14 88.856 186.044 89.144 185.852C89.44 185.652 89.588 185.364 89.588 184.988C89.588 184.604 89.44 184.316 89.144 184.124C88.856 183.924 88.44 183.824 87.896 183.824H85.688ZM88.208 189.776C89.416 189.776 90.02 189.372 90.02 188.564C90.02 187.756 89.416 187.352 88.208 187.352H85.688V189.776H88.208ZM99.3169 184.592V191H97.8889V190.184C97.6489 190.472 97.3489 190.696 96.9889 190.856C96.6289 191.008 96.2409 191.084 95.8249 191.084C94.9689 191.084 94.2929 190.848 93.7969 190.376C93.3089 189.896 93.0649 189.188 93.0649 188.252V184.592H94.5649V188.048C94.5649 188.624 94.6929 189.056 94.9489 189.344C95.2129 189.624 95.5849 189.764 96.0649 189.764C96.6009 189.764 97.0249 189.6 97.3369 189.272C97.6569 188.936 97.8169 188.456 97.8169 187.832V184.592H99.3169ZM103.261 191.084C102.741 191.084 102.233 191.016 101.737 190.88C101.241 190.744 100.845 190.572 100.549 190.364L101.125 189.224C101.413 189.416 101.757 189.572 102.157 189.692C102.565 189.804 102.965 189.86 103.357 189.86C104.253 189.86 104.701 189.624 104.701 189.152C104.701 188.928 104.585 188.772 104.353 188.684C104.129 188.596 103.765 188.512 103.261 188.432C102.733 188.352 102.301 188.26 101.965 188.156C101.637 188.052 101.349 187.872 101.101 187.616C100.861 187.352 100.741 186.988 100.741 186.524C100.741 185.916 100.993 185.432 101.497 185.072C102.009 184.704 102.697 184.52 103.561 184.52C104.001 184.52 104.441 184.572 104.881 184.676C105.321 184.772 105.681 184.904 105.961 185.072L105.385 186.212C104.841 185.892 104.229 185.732 103.549 185.732C103.109 185.732 102.773 185.8 102.541 185.936C102.317 186.064 102.205 186.236 102.205 186.452C102.205 186.692 102.325 186.864 102.565 186.968C102.813 187.064 103.193 187.156 103.705 187.244C104.217 187.324 104.637 187.416 104.965 187.52C105.293 187.624 105.573 187.8 105.805 188.048C106.045 188.296 106.165 188.648 106.165 189.104C106.165 189.704 105.905 190.184 105.385 190.544C104.865 190.904 104.157 191.084 103.261 191.084ZM107.457 184.592H108.957V191H107.457V184.592ZM108.213 183.536C107.941 183.536 107.713 183.452 107.529 183.284C107.345 183.108 107.253 182.892 107.253 182.636C107.253 182.38 107.345 182.168 107.529 182C107.713 181.824 107.941 181.736 108.213 181.736C108.485 181.736 108.713 181.82 108.897 181.988C109.081 182.148 109.173 182.352 109.173 182.6C109.173 182.864 109.081 183.088 108.897 183.272C108.721 183.448 108.493 183.536 108.213 183.536ZM114.561 184.52C115.369 184.52 116.017 184.756 116.505 185.228C116.993 185.7 117.237 186.4 117.237 187.328V191H115.737V187.52C115.737 186.96 115.605 186.54 115.341 186.26C115.077 185.972 114.701 185.828 114.213 185.828C113.661 185.828 113.225 185.996 112.905 186.332C112.585 186.66 112.425 187.136 112.425 187.76V191H110.925V184.592H112.353V185.42C112.601 185.124 112.913 184.9 113.289 184.748C113.665 184.596 114.089 184.52 114.561 184.52ZM125.223 187.832C125.223 187.936 125.215 188.084 125.199 188.276H120.171C120.259 188.748 120.487 189.124 120.855 189.404C121.231 189.676 121.695 189.812 122.247 189.812C122.951 189.812 123.531 189.58 123.987 189.116L124.791 190.04C124.503 190.384 124.139 190.644 123.699 190.82C123.259 190.996 122.763 191.084 122.211 191.084C121.507 191.084 120.887 190.944 120.351 190.664C119.815 190.384 119.399 189.996 119.103 189.5C118.815 188.996 118.671 188.428 118.671 187.796C118.671 187.172 118.811 186.612 119.091 186.116C119.379 185.612 119.775 185.22 120.279 184.94C120.783 184.66 121.351 184.52 121.983 184.52C122.607 184.52 123.163 184.66 123.651 184.94C124.147 185.212 124.531 185.6 124.803 186.104C125.083 186.6 125.223 187.176 125.223 187.832ZM121.983 185.72C121.503 185.72 121.095 185.864 120.759 186.152C120.431 186.432 120.231 186.808 120.159 187.28H123.795C123.731 186.816 123.535 186.44 123.207 186.152C122.879 185.864 122.471 185.72 121.983 185.72ZM128.644 191.084C128.124 191.084 127.616 191.016 127.12 190.88C126.624 190.744 126.228 190.572 125.932 190.364L126.508 189.224C126.796 189.416 127.14 189.572 127.54 189.692C127.948 189.804 128.348 189.86 128.74 189.86C129.636 189.86 130.084 189.624 130.084 189.152C130.084 188.928 129.968 188.772 129.736 188.684C129.512 188.596 129.148 188.512 128.644 188.432C128.116 188.352 127.684 188.26 127.348 188.156C127.02 188.052 126.732 187.872 126.484 187.616C126.244 187.352 126.124 186.988 126.124 186.524C126.124 185.916 126.376 185.432 126.88 185.072C127.392 184.704 128.08 184.52 128.944 184.52C129.384 184.52 129.824 184.572 130.264 184.676C130.704 184.772 131.064 184.904 131.344 185.072L130.768 186.212C130.224 185.892 129.612 185.732 128.932 185.732C128.492 185.732 128.156 185.8 127.924 185.936C127.7 186.064 127.588 186.236 127.588 186.452C127.588 186.692 127.708 186.864 127.948 186.968C128.196 187.064 128.576 187.156 129.088 187.244C129.6 187.324 130.02 187.416 130.348 187.52C130.676 187.624 130.956 187.8 131.188 188.048C131.428 188.296 131.548 188.648 131.548 189.104C131.548 189.704 131.288 190.184 130.768 190.544C130.248 190.904 129.54 191.084 128.644 191.084ZM134.819 191.084C134.299 191.084 133.791 191.016 133.295 190.88C132.799 190.744 132.403 190.572 132.107 190.364L132.683 189.224C132.971 189.416 133.315 189.572 133.715 189.692C134.123 189.804 134.523 189.86 134.915 189.86C135.811 189.86 136.259 189.624 136.259 189.152C136.259 188.928 136.143 188.772 135.911 188.684C135.687 188.596 135.323 188.512 134.819 188.432C134.291 188.352 133.859 188.26 133.523 188.156C133.195 188.052 132.907 187.872 132.659 187.616C132.419 187.352 132.299 186.988 132.299 186.524C132.299 185.916 132.551 185.432 133.055 185.072C133.567 184.704 134.255 184.52 135.119 184.52C135.559 184.52 135.999 184.572 136.439 184.676C136.879 184.772 137.239 184.904 137.519 185.072L136.943 186.212C136.399 185.892 135.787 185.732 135.107 185.732C134.667 185.732 134.331 185.8 134.099 185.936C133.875 186.064 133.763 186.236 133.763 186.452C133.763 186.692 133.883 186.864 134.123 186.968C134.371 187.064 134.751 187.156 135.263 187.244C135.775 187.324 136.195 187.416 136.523 187.52C136.851 187.624 137.131 187.8 137.363 188.048C137.603 188.296 137.723 188.648 137.723 189.104C137.723 189.704 137.463 190.184 136.943 190.544C136.423 190.904 135.715 191.084 134.819 191.084ZM149.94 182.6V191H148.656L144.024 185.312V191H142.476V182.6H143.76L148.392 188.288V182.6H149.94ZM158.071 187.832C158.071 187.936 158.063 188.084 158.047 188.276H153.019C153.107 188.748 153.335 189.124 153.703 189.404C154.079 189.676 154.543 189.812 155.095 189.812C155.799 189.812 156.379 189.58 156.835 189.116L157.639 190.04C157.351 190.384 156.987 190.644 156.547 190.82C156.107 190.996 155.611 191.084 155.059 191.084C154.355 191.084 153.735 190.944 153.199 190.664C152.663 190.384 152.247 189.996 151.951 189.5C151.663 188.996 151.519 188.428 151.519 187.796C151.519 187.172 151.659 186.612 151.939 186.116C152.227 185.612 152.623 185.22 153.127 184.94C153.631 184.66 154.199 184.52 154.831 184.52C155.455 184.52 156.011 184.66 156.499 184.94C156.995 185.212 157.379 185.6 157.651 186.104C157.931 186.6 158.071 187.176 158.071 187.832ZM154.831 185.72C154.351 185.72 153.943 185.864 153.607 186.152C153.279 186.432 153.079 186.808 153.007 187.28H156.643C156.579 186.816 156.383 186.44 156.055 186.152C155.727 185.864 155.319 185.72 154.831 185.72ZM163.363 190.652C163.187 190.796 162.971 190.904 162.715 190.976C162.467 191.048 162.203 191.084 161.923 191.084C161.219 191.084 160.675 190.9 160.291 190.532C159.907 190.164 159.715 189.628 159.715 188.924V185.84H158.659V184.64H159.715V183.176H161.215V184.64H162.931V185.84H161.215V188.888C161.215 189.2 161.291 189.44 161.443 189.608C161.595 189.768 161.815 189.848 162.103 189.848C162.439 189.848 162.719 189.76 162.943 189.584L163.363 190.652ZM174.476 184.592L172.112 191H170.672L169.016 186.584L167.336 191H165.896L163.544 184.592H164.96L166.652 189.32L168.416 184.592H169.676L171.404 189.344L173.144 184.592H174.476ZM178.212 191.084C177.564 191.084 176.98 190.944 176.46 190.664C175.94 190.384 175.532 189.996 175.236 189.5C174.948 188.996 174.804 188.428 174.804 187.796C174.804 187.164 174.948 186.6 175.236 186.104C175.532 185.608 175.94 185.22 176.46 184.94C176.98 184.66 177.564 184.52 178.212 184.52C178.868 184.52 179.456 184.66 179.976 184.94C180.496 185.22 180.9 185.608 181.188 186.104C181.484 186.6 181.632 187.164 181.632 187.796C181.632 188.428 181.484 188.996 181.188 189.5C180.9 189.996 180.496 190.384 179.976 190.664C179.456 190.944 178.868 191.084 178.212 191.084ZM178.212 189.8C178.764 189.8 179.22 189.616 179.58 189.248C179.94 188.88 180.12 188.396 180.12 187.796C180.12 187.196 179.94 186.712 179.58 186.344C179.22 185.976 178.764 185.792 178.212 185.792C177.66 185.792 177.204 185.976 176.844 186.344C176.492 186.712 176.316 187.196 176.316 187.796C176.316 188.396 176.492 188.88 176.844 189.248C177.204 189.616 177.66 189.8 178.212 189.8ZM184.494 185.528C184.926 184.856 185.686 184.52 186.774 184.52V185.948C186.646 185.924 186.53 185.912 186.426 185.912C185.842 185.912 185.386 186.084 185.058 186.428C184.73 186.764 184.566 187.252 184.566 187.892V191H183.066V184.592H184.494V185.528ZM190.663 188.252L189.547 189.308V191H188.047V182.096H189.547V187.472L192.655 184.592H194.455L191.779 187.28L194.707 191H192.883L190.663 188.252ZM199.136 182.6H200.696V191H199.136V182.6ZM206.46 184.52C207.268 184.52 207.916 184.756 208.404 185.228C208.892 185.7 209.136 186.4 209.136 187.328V191H207.636V187.52C207.636 186.96 207.504 186.54 207.24 186.26C206.976 185.972 206.6 185.828 206.112 185.828C205.56 185.828 205.124 185.996 204.804 186.332C204.484 186.66 204.324 187.136 204.324 187.76V191H202.824V184.592H204.252V185.42C204.5 185.124 204.812 184.9 205.188 184.748C205.564 184.596 205.988 184.52 206.46 184.52ZM214.891 190.652C214.715 190.796 214.499 190.904 214.243 190.976C213.995 191.048 213.731 191.084 213.451 191.084C212.747 191.084 212.203 190.9 211.819 190.532C211.435 190.164 211.243 189.628 211.243 188.924V185.84H210.187V184.64H211.243V183.176H212.743V184.64H214.459V185.84H212.743V188.888C212.743 189.2 212.819 189.44 212.971 189.608C213.123 189.768 213.343 189.848 213.631 189.848C213.967 189.848 214.247 189.76 214.471 189.584L214.891 190.652ZM221.938 187.832C221.938 187.936 221.93 188.084 221.914 188.276H216.886C216.974 188.748 217.202 189.124 217.57 189.404C217.946 189.676 218.41 189.812 218.962 189.812C219.666 189.812 220.246 189.58 220.702 189.116L221.506 190.04C221.218 190.384 220.854 190.644 220.414 190.82C219.974 190.996 219.478 191.084 218.926 191.084C218.222 191.084 217.602 190.944 217.066 190.664C216.53 190.384 216.114 189.996 215.818 189.5C215.53 188.996 215.386 188.428 215.386 187.796C215.386 187.172 215.526 186.612 215.806 186.116C216.094 185.612 216.49 185.22 216.994 184.94C217.498 184.66 218.066 184.52 218.698 184.52C219.322 184.52 219.878 184.66 220.366 184.94C220.862 185.212 221.246 185.6 221.518 186.104C221.798 186.6 221.938 187.176 221.938 187.832ZM218.698 185.72C218.218 185.72 217.81 185.864 217.474 186.152C217.146 186.432 216.946 186.808 216.874 187.28H220.51C220.446 186.816 220.25 186.44 219.922 186.152C219.594 185.864 219.186 185.72 218.698 185.72ZM224.807 185.528C225.239 184.856 225.999 184.52 227.087 184.52V185.948C226.959 185.924 226.843 185.912 226.739 185.912C226.155 185.912 225.699 186.084 225.371 186.428C225.043 186.764 224.879 187.252 224.879 187.892V191H223.379V184.592H224.807V185.528ZM231.995 184.52C232.803 184.52 233.451 184.756 233.939 185.228C234.427 185.7 234.671 186.4 234.671 187.328V191H233.171V187.52C233.171 186.96 233.039 186.54 232.775 186.26C232.511 185.972 232.135 185.828 231.647 185.828C231.095 185.828 230.659 185.996 230.339 186.332C230.019 186.66 229.859 187.136 229.859 187.76V191H228.359V184.592H229.787V185.42C230.035 185.124 230.347 184.9 230.723 184.748C231.099 184.596 231.523 184.52 231.995 184.52ZM239.022 184.52C239.966 184.52 240.686 184.748 241.182 185.204C241.686 185.652 241.938 186.332 241.938 187.244V191H240.522V190.22C240.338 190.5 240.074 190.716 239.73 190.868C239.394 191.012 238.986 191.084 238.506 191.084C238.026 191.084 237.606 191.004 237.246 190.844C236.886 190.676 236.606 190.448 236.406 190.16C236.214 189.864 236.118 189.532 236.118 189.164C236.118 188.588 236.33 188.128 236.754 187.784C237.186 187.432 237.862 187.256 238.782 187.256H240.438V187.16C240.438 186.712 240.302 186.368 240.03 186.128C239.766 185.888 239.37 185.768 238.842 185.768C238.482 185.768 238.126 185.824 237.774 185.936C237.43 186.048 237.138 186.204 236.898 186.404L236.31 185.312C236.646 185.056 237.05 184.86 237.522 184.724C237.994 184.588 238.494 184.52 239.022 184.52ZM238.818 189.992C239.194 189.992 239.526 189.908 239.814 189.74C240.11 189.564 240.318 189.316 240.438 188.996V188.252H238.89C238.026 188.252 237.594 188.536 237.594 189.104C237.594 189.376 237.702 189.592 237.918 189.752C238.134 189.912 238.434 189.992 238.818 189.992ZM247.715 190.652C247.539 190.796 247.323 190.904 247.067 190.976C246.819 191.048 246.555 191.084 246.275 191.084C245.571 191.084 245.027 190.9 244.643 190.532C244.259 190.164 244.067 189.628 244.067 188.924V185.84H243.011V184.64H244.067V183.176H245.567V184.64H247.283V185.84H245.567V188.888C245.567 189.2 245.643 189.44 245.795 189.608C245.947 189.768 246.167 189.848 246.455 189.848C246.791 189.848 247.071 189.76 247.295 189.584L247.715 190.652ZM248.949 184.592H250.449V191H248.949V184.592ZM249.705 183.536C249.433 183.536 249.205 183.452 249.021 183.284C248.837 183.108 248.745 182.892 248.745 182.636C248.745 182.38 248.837 182.168 249.021 182C249.205 181.824 249.433 181.736 249.705 181.736C249.977 181.736 250.205 181.82 250.389 181.988C250.573 182.148 250.665 182.352 250.665 182.6C250.665 182.864 250.573 183.088 250.389 183.272C250.213 183.448 249.985 183.536 249.705 183.536ZM255.298 191.084C254.65 191.084 254.066 190.944 253.546 190.664C253.026 190.384 252.618 189.996 252.322 189.5C252.034 188.996 251.89 188.428 251.89 187.796C251.89 187.164 252.034 186.6 252.322 186.104C252.618 185.608 253.026 185.22 253.546 184.94C254.066 184.66 254.65 184.52 255.298 184.52C255.954 184.52 256.542 184.66 257.062 184.94C257.582 185.22 257.986 185.608 258.274 186.104C258.57 186.6 258.718 187.164 258.718 187.796C258.718 188.428 258.57 188.996 258.274 189.5C257.986 189.996 257.582 190.384 257.062 190.664C256.542 190.944 255.954 191.084 255.298 191.084ZM255.298 189.8C255.85 189.8 256.306 189.616 256.666 189.248C257.026 188.88 257.206 188.396 257.206 187.796C257.206 187.196 257.026 186.712 256.666 186.344C256.306 185.976 255.85 185.792 255.298 185.792C254.746 185.792 254.29 185.976 253.93 186.344C253.578 186.712 253.402 187.196 253.402 187.796C253.402 188.396 253.578 188.88 253.93 189.248C254.29 189.616 254.746 189.8 255.298 189.8ZM263.788 184.52C264.596 184.52 265.244 184.756 265.732 185.228C266.22 185.7 266.464 186.4 266.464 187.328V191H264.964V187.52C264.964 186.96 264.832 186.54 264.568 186.26C264.304 185.972 263.928 185.828 263.44 185.828C262.888 185.828 262.452 185.996 262.132 186.332C261.812 186.66 261.652 187.136 261.652 187.76V191H260.152V184.592H261.58V185.42C261.828 185.124 262.14 184.9 262.516 184.748C262.892 184.596 263.316 184.52 263.788 184.52ZM270.815 184.52C271.759 184.52 272.479 184.748 272.975 185.204C273.479 185.652 273.731 186.332 273.731 187.244V191H272.315V190.22C272.131 190.5 271.867 190.716 271.523 190.868C271.187 191.012 270.779 191.084 270.299 191.084C269.819 191.084 269.399 191.004 269.039 190.844C268.679 190.676 268.399 190.448 268.199 190.16C268.007 189.864 267.911 189.532 267.911 189.164C267.911 188.588 268.123 188.128 268.547 187.784C268.979 187.432 269.655 187.256 270.575 187.256H272.231V187.16C272.231 186.712 272.095 186.368 271.823 186.128C271.559 185.888 271.163 185.768 270.635 185.768C270.275 185.768 269.919 185.824 269.567 185.936C269.223 186.048 268.931 186.204 268.691 186.404L268.103 185.312C268.439 185.056 268.843 184.86 269.315 184.724C269.787 184.588 270.287 184.52 270.815 184.52ZM270.611 189.992C270.987 189.992 271.319 189.908 271.607 189.74C271.903 189.564 272.111 189.316 272.231 188.996V188.252H270.683C269.819 188.252 269.387 188.536 269.387 189.104C269.387 189.376 269.495 189.592 269.711 189.752C269.927 189.912 270.227 189.992 270.611 189.992ZM275.656 182.096H277.156V191H275.656V182.096Z" fill="#9A4A4D"/>
</g>
<defs>
<filter id="filter0_d" x="0" y="0" width="362" height="256" filterUnits="userSpaceOnUse" color-interpolation-filters="sRGB">
<feFlood flood-opacity="0" result="BackgroundImageFix"/>
<feColorMatrix in="SourceAlpha" type="matrix" values="0 0 0 0 0 0 0 0 0 0 0 0 0 0 0 0 0 0 127 0"/>
<feOffset/>
<feGaussianBlur stdDeviation="10"/>
<feColorMatrix type="matrix" values="0 0 0 0 0 0 0 0 0 0 0 0 0 0 0 0 0 0 0.25 0"/>
<feBlend mode="normal" in2="BackgroundImageFix" result="effect1_dropShadow"/>
<feBlend mode="normal" in="SourceGraphic" in2="effect1_dropShadow" result="shape"/>
</filter>
</defs>
</svg>
