<svg width="74" height="100" viewBox="0 0 74 100" fill="none" xmlns="http://www.w3.org/2000/svg">
<path d="M23.8599 77.3043C23.8599 77.3043 20.0455 79.5225 26.5747 80.2731C34.4848 81.1754 38.5273 81.0462 47.2443 79.3962C47.2443 79.3962 49.5362 80.8332 52.7365 82.078C33.1958 90.4528 8.51138 81.5927 23.8599 77.3043ZM21.4721 66.3755C21.4721 66.3755 17.1937 69.5425 23.7279 70.2182C32.1776 71.0899 38.8504 71.1613 50.3972 68.9379C50.3972 68.9379 51.9943 70.557 54.5056 71.4425C30.8793 78.3511 4.56398 71.9873 21.4721 66.3755Z" fill="#5382A1"/>
<path d="M41.6019 47.8367C46.4169 53.38 40.3368 58.3685 40.3368 58.3685C40.3368 58.3685 52.5626 52.0572 46.9478 44.1537C41.7039 36.7838 37.6822 33.1214 59.453 20.4954C59.453 20.4954 25.2802 29.03 41.6019 47.8364" fill="#E76F00"/>
<path d="M67.4463 85.3879C67.4463 85.3879 70.2691 87.7137 64.3373 89.5131C53.0581 92.9302 17.3917 93.962 7.48358 89.6492C3.92202 88.1001 10.6012 85.9498 12.7021 85.4983C14.8931 85.0232 16.1454 85.1119 16.1454 85.1119C12.1844 82.3215 -9.4566 90.5908 5.15294 92.9588C44.9949 99.4201 77.7807 90.0495 67.4463 85.3879ZM25.6937 55.052C25.6937 55.052 7.55179 59.3613 19.2694 60.9257C24.2168 61.5882 34.0795 61.4384 43.2665 60.6685C50.7746 60.0356 58.3136 58.6887 58.3136 58.6887C58.3136 58.6887 55.6662 59.8226 53.7509 61.1304C35.3278 65.9757 -0.262377 63.7217 9.98358 58.7653C18.6486 54.5769 25.694 55.052 25.694 55.052H25.6937ZM58.2388 73.2434C76.9671 63.5116 68.3079 54.1595 62.2639 55.4196C60.7824 55.7277 60.122 55.9948 60.122 55.9948C60.122 55.9948 60.672 55.1335 61.7223 54.7607C73.679 50.5569 82.8746 67.1587 57.8625 73.7339C57.8625 73.7342 58.1524 73.4752 58.2388 73.2434Z" fill="#5382A1"/>
<path d="M46.9486 0.107223C46.9486 0.107223 57.3205 10.4829 37.1113 26.437C20.9058 39.2352 33.4159 46.5323 37.1046 54.8696C27.6451 46.3349 20.7029 38.8216 25.3604 31.8291C32.196 21.5641 51.1332 16.5875 46.9486 0.106934" fill="#E76F00"/>
<path d="M27.5343 99.6142C45.5109 100.765 73.1158 98.9757 73.7696 90.4697C73.7696 90.4697 72.5129 93.6946 58.9129 96.2552C43.5696 99.1425 24.6459 98.8055 13.4219 96.9549C13.4222 96.9549 15.7196 98.8567 27.5346 99.6142" fill="#5382A1"/>
</svg>
