<svg width="146" height="100" viewBox="0 0 146 100" fill="none" xmlns="http://www.w3.org/2000/svg">
<g clip-path="url(#clip0)">
<path d="M145.422 46.7027C144.381 45.6615 131.019 28.8286 128.763 26.0521C126.334 23.2755 125.292 23.7961 123.731 23.9697C122.169 24.1432 105.336 27.0933 103.427 27.2668C101.518 27.6139 100.303 28.308 101.518 30.0434C102.559 31.6052 113.666 47.2233 116.095 50.8676L71.8436 61.4532L36.7895 2.62489C35.4012 0.542474 35.0541 -0.151665 31.9305 0.0218696C28.8068 0.195404 4.33839 2.27782 2.60304 2.27782C0.86769 2.45136 -1.0412 3.1455 0.694155 7.31033C2.42951 11.4752 30.1951 71.1712 30.8893 72.9065C31.5834 74.6418 33.6658 77.4184 38.3513 76.3772C43.2103 75.1624 59.8696 70.8241 69.067 68.3946C73.926 77.0713 83.6439 94.7719 85.5528 97.3749C87.9823 100.846 89.7177 100.151 93.3619 99.1103C96.312 98.2426 138.828 82.9715 140.737 82.1038C142.646 81.2362 143.861 80.7156 142.472 78.8067C141.431 77.4184 130.325 62.3209 124.425 54.5118C128.416 53.4706 142.819 49.6528 144.381 49.1322C146.117 48.6116 146.464 47.7439 145.422 46.7027ZM65.0757 63.1885C64.5551 63.3621 39.7396 69.2623 38.5248 69.6093C37.1365 69.9564 37.1365 69.7829 37.1365 69.2623C36.7895 68.7417 7.63556 8.35154 7.11495 7.6574C6.76788 6.96326 6.76788 6.26912 7.11495 6.26912C7.46202 6.26912 30.5422 4.18671 31.2363 4.18671C32.104 4.18671 31.9305 4.36024 32.2775 4.88084C32.2775 4.88084 64.7286 60.9326 65.2492 61.8003C65.9434 62.6679 65.5963 63.015 65.0757 63.1885ZM134.837 76.2037C135.184 76.8978 135.704 77.2449 134.316 77.5919C133.101 78.1125 92.4942 91.8218 91.6266 92.1689C90.7589 92.5159 90.2383 92.6895 89.1971 91.1277C88.1559 89.5658 74.9672 66.8328 74.9672 66.8328L118.177 55.553C119.219 55.2059 119.566 55.0324 120.26 56.0736C120.954 57.2884 134.49 75.6831 134.837 76.2037ZM137.613 45.6615C136.572 45.8351 120.78 49.8264 120.78 49.8264L107.765 32.1258C107.418 31.6052 107.071 31.0846 107.939 30.9111C108.807 30.7375 123.557 28.1345 124.251 27.961C124.945 27.7874 125.466 27.6139 126.334 28.8287C127.201 29.8699 138.307 44.0997 138.828 44.6203C139.349 45.1409 138.655 45.488 137.613 45.6615Z" fill="#FB503B"/>
</g>
<defs>
<clipPath id="clip0">
<rect width="145.943" height="100" fill="white"/>
</clipPath>
</defs>
</svg>
