<svg width="91" height="100" viewBox="0 0 91 100" fill="none" xmlns="http://www.w3.org/2000/svg">
<g clip-path="url(#clip0)">
<path d="M41.3135 1.26951C43.7823 -0.14361 46.9979 -0.149993 49.4645 1.26951C61.8741 8.28157 74.2876 15.2826 86.695 22.2989C89.0287 23.6135 90.5897 26.2106 90.5659 28.8997V71.0869C90.5833 73.8872 88.8681 76.5465 86.406 77.8312C74.0372 84.8046 61.6748 91.7865 49.3081 98.7599C46.7883 100.201 43.5081 100.09 41.067 98.5309C37.3589 96.3812 33.6443 94.2422 29.9358 92.0947C29.178 91.6429 28.3237 91.2833 27.7886 90.5486C28.2617 89.911 29.1074 89.8316 29.7947 89.5532C31.3425 89.061 32.7642 88.2709 34.1862 87.5043C34.5457 87.2582 34.9847 87.3525 35.3294 87.5727C38.5003 89.3908 41.6432 91.2617 44.8248 93.0624C45.5035 93.4543 46.1908 92.934 46.7709 92.6106C58.9085 85.7507 71.061 78.9167 83.1964 72.0546C83.6461 71.8383 83.8947 71.361 83.8581 70.8684C83.8667 56.9518 83.8603 43.0326 83.8624 29.116C83.9138 28.5571 83.5904 28.0433 83.0851 27.8145C70.7592 20.8731 58.4397 13.9209 46.1159 6.97767C45.9024 6.83088 45.6495 6.75212 45.3904 6.75174C45.1313 6.75136 44.8781 6.82938 44.6642 6.97554C32.3404 13.9209 20.023 20.8794 7.69928 27.8206C7.19573 28.0497 6.85779 28.555 6.91772 29.116C6.91985 43.0326 6.91772 56.9518 6.91772 70.8706C6.89635 71.1109 6.94913 71.352 7.06896 71.5614C7.18879 71.7708 7.36991 71.9385 7.58793 72.0419C10.8766 73.9067 14.1695 75.7585 17.4603 77.617C19.3142 78.6149 21.5904 79.2078 23.633 78.4433C25.4354 77.7968 26.6989 75.9575 26.6645 74.0436C26.6815 60.2082 26.656 46.3706 26.6773 32.5372C26.6323 31.9231 27.2149 31.4156 27.812 31.4734C29.3922 31.4628 30.9745 31.4521 32.5546 31.4777C33.2142 31.4628 33.6681 32.1241 33.5865 32.7429C33.5801 46.666 33.6035 60.5894 33.5759 74.5124C33.5801 78.2231 32.0557 82.2606 28.6234 84.0762C24.395 86.2667 19.1688 85.8021 14.9915 83.7018C11.3752 81.8968 7.9241 79.7667 4.37197 77.833C1.90353 76.5553 0.196797 73.8855 0.214172 71.0872V28.8997C0.188286 26.155 1.81134 23.5106 4.21772 22.2153C16.5844 15.2362 28.9489 8.25178 41.3135 1.26951Z" fill="#8CC84B"/>
<path d="M52.1018 30.493C57.4954 30.1458 63.2695 30.2873 68.1231 32.9444C71.8809 34.9806 73.9642 39.254 74.0305 43.4288C73.9256 43.992 73.3369 44.3026 72.7993 44.2639C71.2344 44.2618 69.6692 44.2852 68.1043 44.2533C67.4405 44.2788 67.0547 43.6668 66.9713 43.0799C66.5217 41.0824 65.4323 39.104 63.5522 38.1405C60.666 36.6955 57.3195 36.7682 54.1724 36.7983C51.8748 36.9203 49.4043 37.1192 47.4578 38.4703C45.9635 39.4937 45.5096 41.5597 46.0429 43.2235C46.5458 44.4182 47.9248 44.8037 49.0532 45.159C55.5532 46.859 62.4412 46.6898 68.8171 48.9271C71.4568 49.8391 74.0391 51.6122 74.9426 54.376C76.1245 58.0803 75.6064 62.508 72.971 65.4817C70.8337 67.9289 67.721 69.2608 64.6164 69.9842C60.4862 70.9052 56.2 70.9286 52.0057 70.5197C48.0617 70.07 43.9575 69.0339 40.9128 66.3466C38.3092 64.086 37.0376 60.5636 37.1638 57.164C37.194 56.5899 37.7656 56.1895 38.3156 56.2367C39.8915 56.2239 41.4674 56.2197 43.0433 56.2388C43.6727 56.1938 44.1394 56.7377 44.1716 57.331C44.4624 59.2342 45.1777 61.2317 46.8372 62.3601C50.0401 64.4264 54.0589 64.2849 57.7263 64.3427C60.7646 64.208 64.1752 64.1672 66.6547 62.159C67.9628 61.0136 68.3504 59.0973 67.9969 57.4487C67.6139 56.0569 66.1578 55.4083 64.9075 54.9842C58.4908 52.9544 51.5259 53.6909 45.1713 51.3955C42.5915 50.4838 40.0968 48.7601 39.1057 46.1097C37.7227 42.3586 38.3564 37.7189 41.2681 34.8455C44.1071 31.9873 48.2053 30.8866 52.1018 30.4926V30.493Z" fill="#8CC84B"/>
</g>
<defs>
<clipPath id="clip0">
<rect width="90.8" height="100" fill="white"/>
</clipPath>
</defs>
</svg>
