<svg width="191" height="100" viewBox="0 0 191 100" fill="none" xmlns="http://www.w3.org/2000/svg">
<g clip-path="url(#clip0)">
<path d="M95.4927 99.4169C148.232 99.4169 190.985 77.1617 190.985 49.7085C190.985 22.2552 148.232 0 95.4927 0C42.7536 0 0 22.2552 0 49.7085C0 77.1617 42.7536 99.4169 95.4927 99.4169Z" fill="#8993BE"/>
<path fill-rule="evenodd" clip-rule="evenodd" d="M26.8164 79.141L37.2818 26.162H61.481C71.9457 26.8163 77.1784 32.0482 77.1784 41.2058C77.1784 56.9032 64.7516 66.06 53.632 65.4058H41.8602L39.2439 79.141H26.8164ZM44.4759 55.5954L47.7465 35.9731H56.2491C60.8275 35.9731 64.0974 37.9352 64.0974 41.8594C63.4438 52.979 58.2111 54.9411 52.3249 55.5954H44.4766H44.4759ZM74.7471 65.4058L85.2117 12.4275H97.6392L95.0229 26.162H106.795C117.261 26.8163 121.185 32.0482 119.877 38.5895L115.299 65.4058H102.218L106.796 41.2058C107.45 37.9352 107.45 35.9731 102.872 35.9731H93.0608L87.1745 65.4058H74.7471ZM114.461 79.141L124.925 26.162H149.125C159.591 26.8163 164.824 32.0482 164.824 41.2058C164.824 56.9032 152.396 66.06 141.277 65.4058H129.504L126.888 79.141H114.461ZM132.12 55.5954L135.39 35.9731H143.894C148.472 35.9731 151.742 37.9352 151.742 41.8594C151.088 52.979 145.856 54.9411 139.969 55.5954H132.12H132.12Z" fill="#232531"/>
</g>
<defs>
<clipPath id="clip0">
<rect width="190.985" height="100" fill="white"/>
</clipPath>
</defs>
</svg>
