<svg width="101" height="100" viewBox="0 0 101 100" fill="none" xmlns="http://www.w3.org/2000/svg">
<g clip-path="url(#clip0)">
<path d="M49.7708 0.0283203C24.3464 0.0283203 25.9339 11.0538 25.9339 11.0538L25.9621 22.4766H50.2241V25.906H16.3257C16.3257 25.906 0.0566406 24.0609 0.0566406 49.7139C0.0566406 75.3677 14.2566 74.4578 14.2566 74.4578H22.7312V62.5535C22.7312 62.5535 22.2743 48.3535 36.7045 48.3535H60.768C60.768 48.3535 74.2876 48.5719 74.2876 35.2872V13.3217C74.2876 13.3217 76.341 0.0283203 49.7708 0.0283203ZM36.3927 7.7099C36.966 7.70938 37.5338 7.82193 38.0636 8.04109C38.5934 8.26026 39.0748 8.58174 39.4802 8.98714C39.8856 9.39255 40.2071 9.87392 40.4262 10.4037C40.6454 10.9335 40.7579 11.5013 40.7574 12.0746C40.7579 12.6479 40.6454 13.2157 40.4262 13.7455C40.2071 14.2753 39.8856 14.7567 39.4802 15.1621C39.0748 15.5675 38.5934 15.889 38.0636 16.1081C37.5338 16.3273 36.966 16.4398 36.3927 16.4393C35.8194 16.4398 35.2516 16.3273 34.7218 16.1081C34.192 15.889 33.7107 15.5675 33.3053 15.1621C32.8999 14.7567 32.5784 14.2753 32.3592 13.7455C32.14 13.2157 32.0275 12.6479 32.028 12.0746C32.0275 11.5013 32.14 10.9335 32.3592 10.4037C32.5784 9.87392 32.8999 9.39255 33.3053 8.98714C33.7107 8.58174 34.192 8.26026 34.7218 8.04109C35.2516 7.82193 35.8194 7.70938 36.3927 7.7099Z" fill="url(#paint0_linear)"/>
<path d="M50.4925 99.6574C75.9168 99.6574 74.3294 88.6319 74.3294 88.6319L74.3011 77.2095H50.0388V73.7801H83.9372C83.9372 73.7801 100.206 75.6252 100.206 49.9714C100.206 24.3181 86.0062 25.2279 86.0062 25.2279H77.5317V37.1318C77.5317 37.1318 77.9886 51.3318 63.5584 51.3318H39.4949C39.4949 51.3318 25.9753 51.1134 25.9753 64.3985V86.3644C25.9753 86.3644 23.9223 99.6574 50.4921 99.6574H50.4925ZM63.8705 91.9766C63.2972 91.9771 62.7294 91.8646 62.1996 91.6454C61.6699 91.4262 61.1885 91.1048 60.7831 90.6994C60.3777 90.294 60.0562 89.8126 59.837 89.2828C59.6179 88.753 59.5053 88.1852 59.5058 87.6119C59.5053 87.0385 59.6178 86.4707 59.8369 85.9408C60.0561 85.411 60.3775 84.9296 60.7829 84.5242C61.1884 84.1187 61.6697 83.7972 62.1995 83.578C62.7294 83.3588 63.2972 83.2463 63.8705 83.2468C64.4439 83.2463 65.0117 83.3588 65.5415 83.578C66.0712 83.7971 66.5526 84.1186 66.958 84.524C67.3634 84.9294 67.6849 85.4108 67.9041 85.9406C68.1232 86.4704 68.2358 87.0382 68.2353 87.6115C68.2358 88.1848 68.1232 88.7526 67.9041 89.2824C67.6849 89.8122 67.3634 90.2936 66.958 90.699C66.5526 91.1044 66.0712 91.4258 65.5415 91.645C65.0117 91.8642 64.4439 91.9767 63.8705 91.9762V91.9766Z" fill="url(#paint1_linear)"/>
</g>
<defs>
<linearGradient id="paint0_linear" x1="9.681" y1="8.98937" x2="59.3123" y2="58.1254" gradientUnits="userSpaceOnUse">
<stop stop-color="#387EB8"/>
<stop offset="1" stop-color="#366994"/>
</linearGradient>
<linearGradient id="paint1_linear" x1="40.1444" y1="40.5416" x2="93.4427" y2="90.926" gradientUnits="userSpaceOnUse">
<stop stop-color="#FFE052"/>
<stop offset="1" stop-color="#FFC331"/>
</linearGradient>
<clipPath id="clip0">
<rect width="100.402" height="100" fill="white"/>
</clipPath>
</defs>
</svg>
