<svg width="112" height="100" viewBox="0 0 112 100" fill="none" xmlns="http://www.w3.org/2000/svg">
<path d="M0.327148 49.8913C0.327148 58.2457 8.48497 66.0444 21.3458 70.4405C18.7776 83.3696 20.8858 93.7909 27.9267 97.8514C35.1637 102.025 45.9454 99.1362 56.1789 90.1905C66.1541 98.7749 76.2354 102.153 83.2702 98.0809C90.5006 93.8953 92.6993 82.7674 90.0602 69.4344C103.456 65.0057 110.949 58.3557 110.949 49.8913C110.949 41.7309 102.776 34.6713 90.0885 30.3035C92.9298 16.4195 90.5224 6.25126 83.1898 2.02299C76.1206 -2.05353 65.9219 1.49951 55.8002 10.3082C45.2698 0.958645 35.1719 -1.89571 27.8472 2.3443C20.7845 6.43256 18.7693 17.0434 21.3458 30.2117C8.91889 34.5443 0.327148 41.7639 0.327148 49.8913Z" fill="white"/>
<path d="M87.4017 34.6408C86.3561 34.2821 85.3015 33.9498 84.2391 33.6443C84.4153 32.9283 84.5782 32.2092 84.7278 31.4873C87.1217 19.8664 85.5565 10.5047 80.2113 7.42295C75.0865 4.4673 66.7048 7.54904 58.2396 14.9156C57.4054 15.6431 56.5898 16.3916 55.7935 17.1603C55.2602 16.6492 54.7175 16.1479 54.1657 15.6569C45.2939 7.77947 36.4013 4.46034 31.0617 7.55121C25.9417 10.5151 24.4252 19.3164 26.5804 30.3295C26.7949 31.4201 27.037 32.5051 27.3065 33.5834C26.0483 33.9408 24.833 34.3216 23.6704 34.7269C13.2696 38.353 6.62695 44.0364 6.62695 49.9312C6.62695 56.0199 13.7574 62.1269 24.5913 65.8295C25.4698 66.1283 26.3556 66.4052 27.2478 66.6599C26.958 67.8216 26.7006 68.9912 26.4761 70.1673C24.4213 80.989 26.0261 89.5816 31.1326 92.5273C36.407 95.5686 45.2591 92.4425 53.8791 84.9077C54.5604 84.3121 55.2443 83.6803 55.9291 83.0182C56.7917 83.8504 57.6772 84.6584 58.5848 85.4412C66.9343 92.626 75.1804 95.5273 80.2826 92.5738C85.5522 89.5234 87.2644 80.2925 85.0409 69.0616C84.8713 68.2038 84.6735 67.3277 84.4517 66.4356C85.0735 66.2521 85.6835 66.0625 86.2787 65.8651C97.5413 62.1338 104.869 56.1012 104.869 49.9312C104.869 44.0151 98.0122 38.2934 87.4017 34.6408Z" fill="#53C1DE"/>
<path d="M84.9585 61.8816C84.4215 62.0595 83.8702 62.2312 83.3084 62.3977C82.065 58.4616 80.3867 54.276 78.3337 49.9521C80.2932 45.7303 81.9063 41.5986 83.115 37.6877C84.1198 37.979 85.0954 38.2856 86.0354 38.6095C95.1267 41.7386 100.672 46.366 100.672 49.9312C100.672 53.729 94.6828 58.6595 84.9589 61.8816H84.9585ZM80.9237 69.8769C81.9067 74.8429 82.0471 79.3329 81.3958 82.8429C80.8106 85.9969 79.6341 88.0995 78.1793 88.9416C75.0832 90.7338 68.4619 88.4043 61.3219 82.2599C60.5032 81.5556 59.6785 80.8034 58.8515 80.0077C61.6198 76.9799 64.3863 73.4599 67.0863 69.5512C71.8358 69.1299 76.3228 68.4408 80.3919 67.5003C80.5919 68.309 80.7702 69.1016 80.9237 69.8769ZM40.1193 88.6321C37.0945 89.7003 34.6854 89.7308 33.2293 88.8912C30.1302 87.1042 28.8424 80.2042 30.5993 70.9499C30.8083 69.8562 31.0475 68.7686 31.3167 67.6882C35.3406 68.5782 39.795 69.2186 44.5558 69.6047C47.2737 73.4295 50.1202 76.9451 52.9889 80.0238C52.3792 80.6136 51.7551 81.1882 51.1171 81.7473C47.3054 85.0795 43.4858 87.4429 40.1198 88.6321H40.1193ZM25.9485 61.8582C21.158 60.2208 17.2019 58.0929 14.4902 55.7712C12.0537 53.6843 10.8232 51.6125 10.8232 49.9312C10.8232 46.3543 16.1567 41.7912 25.0519 38.6899C26.1684 38.3023 27.296 37.9476 28.4332 37.626C29.6628 41.6247 31.2754 45.8056 33.2215 50.0334C31.2502 54.3243 29.6145 58.5716 28.3737 62.6173C27.5592 62.3842 26.7505 62.131 25.9485 61.8582ZM30.6989 29.5234C28.8524 20.0873 30.0785 12.9695 33.1641 11.1834C36.4511 9.28078 43.7185 11.9938 51.3784 18.7951C51.868 19.2299 52.3598 19.6851 52.8524 20.156C49.9985 23.2208 47.178 26.7099 44.4837 30.5125C39.8632 30.9408 35.4402 31.6286 31.3741 32.5499C31.1236 31.5468 30.8985 30.5375 30.6989 29.523V29.5234ZM73.0758 39.9873C72.1154 38.3284 71.1194 36.6903 70.0884 35.0743C73.2232 35.4699 76.2263 35.996 79.0463 36.6399C78.1998 39.3534 77.1445 42.1908 75.9019 45.0995C74.994 43.3768 74.0518 41.6724 73.0758 39.9873ZM55.7945 23.1551C57.7302 25.2521 59.6689 27.5938 61.5758 30.1343C57.7076 29.9515 53.8329 29.9506 49.9645 30.1316C51.8732 27.6147 53.8284 25.2764 55.7945 23.1551ZM38.4024 40.016C37.4386 41.6877 36.514 43.3816 35.6293 45.0964C34.4072 42.1977 33.3615 39.3477 32.5076 36.5956C35.3106 35.9682 38.2998 35.4556 41.4141 35.0664C40.3716 36.6925 39.3674 38.3428 38.4024 40.016ZM41.5037 65.0956C38.2863 64.7364 35.2519 64.2499 32.4498 63.6399C33.3172 60.839 34.3858 57.9277 35.6341 54.9669C36.5225 56.683 37.4512 58.3779 38.4193 60.0503C39.4072 61.7564 40.4356 63.4386 41.5037 65.0956ZM55.9106 77.0038C53.9215 74.8573 51.9376 72.4834 49.9998 69.9299C51.8806 70.0038 53.7984 70.0412 55.7476 70.0412C57.7502 70.0412 59.7298 69.9964 61.678 69.9095C59.765 72.5095 57.8332 74.8869 55.9106 77.0038ZM75.9419 54.816C77.255 57.809 78.3619 60.7047 79.2411 63.4582C76.3924 64.1082 73.3171 64.6316 70.0767 65.0203C71.1151 63.3741 72.1207 61.7074 73.0928 60.0212C74.081 58.3075 75.031 56.572 75.9419 54.816ZM69.4571 57.9247C67.969 60.5099 66.3971 63.046 64.7441 65.529C61.8293 65.7373 58.8171 65.8447 55.7476 65.8447C52.6906 65.8447 49.7167 65.7495 46.8528 65.5638C45.1569 63.0866 43.5553 60.5461 42.0515 57.9477C40.5547 55.3632 39.1566 52.7227 37.8602 50.0321C39.1533 47.3406 40.5472 44.6988 42.0389 42.1121V42.1129C43.5301 39.5257 45.1191 36.9961 46.8024 34.5295C49.7241 34.3086 52.7198 34.193 55.748 34.193C58.7898 34.193 61.7893 34.3095 64.7102 34.5321C66.3764 36.9949 67.9552 39.5157 69.4437 42.0899C70.9405 44.6708 72.353 47.2997 73.6789 49.9725C72.3666 52.6725 70.9586 55.3249 69.4576 57.9247H69.4571ZM78.115 11.0586C81.4045 12.956 82.6841 20.6069 80.6171 30.6403C80.4817 31.294 80.3344 31.9451 80.1754 32.5934C76.0998 31.653 71.6737 30.953 67.0397 30.5182C64.3402 26.6743 61.5432 23.179 58.7354 20.1538C59.4712 19.4445 60.2244 18.7536 60.9945 18.0816C68.2476 11.7695 75.0263 9.2773 78.115 11.0586Z" fill="white"/>
<path d="M55.7482 41.1587C60.5934 41.1587 64.5208 45.0865 64.5208 49.9313C64.5208 54.7765 60.5934 58.7043 55.7482 58.7043C50.9034 58.7043 46.9756 54.7765 46.9756 49.9313C46.9756 45.0865 50.9034 41.1587 55.7482 41.1587Z" fill="#53C1DE"/>
</svg>
