<svg width="100" height="100" viewBox="0 0 100 100" fill="none" xmlns="http://www.w3.org/2000/svg">
<g clip-path="url(#clip0)">
<path d="M90.9118 5.21444C89.5057 8.57335 87.7221 11.763 85.574 14.6923C76.1743 5.29256 63.4156 0.00683594 50.1232 0.00683594C22.627 0.00683594 0 22.6599 0 50.1951C0 63.9302 5.62421 77.0794 15.5707 86.5572L17.4194 88.1976C26.4546 95.8138 37.8983 100.006 49.7066 100.006C75.8488 100.006 97.8249 79.514 99.6866 53.3978C101.054 40.6131 97.3041 24.4435 90.9118 5.21444ZM22.6921 86.8437C21.885 87.8461 20.6482 88.432 19.3593 88.432C17.0028 88.432 15.076 86.4922 15.076 84.1357C15.076 81.7793 17.0159 79.8394 19.3593 79.8394C20.3357 79.8394 21.2991 80.1779 22.0542 80.8028C23.8899 82.287 24.1763 85.008 22.6921 86.8437ZM90.7035 71.8197C78.3354 88.3148 51.9198 82.7557 34.9821 83.5499C34.9821 83.5499 31.9747 83.7321 28.9543 84.2268C28.9543 84.2268 30.0869 83.7451 31.5581 83.1853C43.4445 79.0453 49.0687 78.2381 56.2942 74.5277C69.8991 67.6016 83.3477 52.4474 86.1468 36.6814C80.9653 51.8486 65.2643 64.8806 50.9564 70.1793C41.1531 73.7986 23.4472 77.3137 23.4472 77.3137L22.7312 76.9362C10.6756 71.0646 10.3111 44.9355 32.2221 36.4991C41.8171 32.8017 50.9955 34.8327 61.3586 32.3591C72.4248 29.7292 85.2225 21.4231 90.4301 10.5913C96.2626 27.9196 103.28 55.0512 90.7035 71.8197Z" fill="#73DE00"/>
</g>
<defs>
<clipPath id="clip0">
<rect width="99.96" height="100" fill="white"/>
</clipPath>
</defs>
</svg>
