<?xml version="1.0" encoding="UTF-8"?> <svg xmlns="http://www.w3.org/2000/svg" xmlns:xlink="http://www.w3.org/1999/xlink" viewBox="0 0 450 450"><clipPath id="a"><path d="m189.8 170.9c-10.4 0-20.1-2.3-27.3-6.5-6.4-3.7-9.9-8.3-9.9-12.9 0-4.7-15.7-118.2-15.7-118.2l41.1-21.8 71.2 18s-21.7 117.3-21.7 122-3.9 9.5-10.3 13.2c-7.2 4.2-17.1 6.2-27.4 6.2z"></path></clipPath><path d="m65.9 405.3c87.9 45.9 230.4 45.9 318.2 0 87.9-45.9 87.9-120.3 0-166.3-87.9-45.9-230.4-45.9-318.3 0-87.8 45.9-87.8 120.4.1 166.3z" fill="#f5f5f5"></path><ellipse cx="394.2" cy="317" fill="#e0e0e0" rx="40.4" ry="19.3"></ellipse><ellipse cx="69.2" cy="338.2" fill="#e0e0e0" rx="40.4" ry="19.3"></ellipse><path d="m219.5 414-102.3-59c-.7-.4-1.2-1.3-1.2-2.1v-1.6c0-.8.5-1.7 1.2-2.1l124.7-72c.7-.4 1.7-.4 2.4 0l102.3 59c.7.4 1.2 1.3 1.2 2.1v1.6c0 .8-.5 1.7-1.2 2.1l-124.7 72c-.7.4-1.8.4-2.4 0z" fill="#ebebeb"></path><path d="m346.5 337.7-124.7 72c-.7.4-1.7.4-2.4 0l-102.3-59c-.7-.4-.7-1 0-1.4l124.7-72c.7-.4 1.7-.4 2.4 0l102.3 59c.7.4.7 1 0 1.4z" fill="#fafafa"></path><path d="m346.5 337.7-124.7 72c-.7.4-1.7.4-2.4 0l-102.3-59c-.7-.4-.7-1 0-1.4l124.7-72c.7-.4 1.7-.4 2.4 0l102.3 59c.7.4.7 1 0 1.4z" fill="#fafafa"></path><path d="m220.7 410.3v3.9c-.4 0-.9-.1-1.2-.3l-102.3-59c-.7-.4-1.2-1.3-1.2-2.1v-1.6c0-.7.4-1.5 1-1.9-.4.4-.4.9.2 1.2l102.3 59c.1.1.2.1.3.1z" fill="#e0e0e0"></path><g fill="#2f3037"><path d="m159 344.6v.2c0 .1-.1.1-.1.1l-.6.2-13.3.7c-.4 0-.8.3-1 .7s-.1.7.3.7l12.5.6.3.2s0 .1-.1.1c-.1.2-.4.3-.6.3l-12.6-.6c-.7 0-.9-.6-.5-1.4.4-.7 1.4-1.3 2.1-1.4l13.4-.7c.1.2.2.2.2.3z"></path><path d="m276.2 336.6c0 .1 0 .1-.1.2-.1.2-.4.3-.6.3 0 0-3.3-.4-9.4-.9-.2 0-.2-.2-.1-.4s.4-.3.6-.3c6.1.5 9.4.9 9.4.9.1 0 .2.1.2.2z"></path><path d="m265.1 355.8v.1c-.1.2-.3.4-.5.4 0 0-3.8.4-10.5.9-.2 0-.3-.1-.2-.3s.3-.4.5-.4c6.7-.5 10.4-.9 10.5-.9s.2 0 .2.2z"></path><path d="m251 334.5c0 .1 0 .1-.1.2-.1.2-.4.3-.6.3-5.6-.3-11.4-.6-17.3-.9-27-1.1-35.9-.1-44.1 1.2-8.9 1.4-31.5 9.6-33.4 11.1.2 1.5 13.4 9.7 20.6 11.1 6.7 1.3 14.5 2.3 42.8 1.1 6.2-.3 12.3-.6 18.3-.9.2 0 .3.1.2.3s-.3.4-.6.4c-6 .4-12.1.7-18.3.9-28.3 1.2-36.2.2-42.9-1.1-6.5-1.3-21.9-9.9-20.8-11.8 1.1-1.8 26.5-10.6 34.4-11.8 8.2-1.3 17.2-2.3 44.3-1.2 5.9.2 11.7.5 17.3.9.1.1.2.1.2.2z"></path><path d="m200.4 340.5c-.7-1.6-2.3-2.4-4.5-2.4s-4.8.9-7.3 2.5c-1.2.8-2.4 1.7-3.4 2.7s-1.8 2.1-2.5 3.2c-1 1.8-1.4 3.4-1.2 4.9.3 2.2 2.1 3.5 4.8 3.5 2.2 0 4.8-.9 7.3-2.5s4.6-3.7 5.9-5.9c.8-1.4 1.3-2.8 1.3-4 0-.8-.1-1.4-.4-2zm-1.6 6c-1.2 2-3.1 4-5.4 5.4s-4.7 2.2-6.7 2.3c-2.5 0-4.1-1.2-4.4-3.2 0-.2-.1-.5 0-.8 0-1.1.4-2.4 1.2-3.7 1.2-2 3.1-4 5.4-5.4s4.7-2.2 6.7-2.2 3.5.8 4.1 2.2.3 3.3-.9 5.4z"></path></g><path d="m199.7 341c-.6-1.4-2.1-2.2-4.1-2.2s-4.4.8-6.7 2.2c-2.3 1.5-4.2 3.4-5.4 5.4-.7 1.3-1.2 2.6-1.2 3.7v.8c.3 2 1.9 3.2 4.4 3.2 2 0 4.4-.8 6.7-2.3 2.3-1.4 4.2-3.4 5.4-5.4s1.5-3.9.9-5.4zm-2.7 5.5c-1.9 3.2-6 5.9-9.2 5.9-3.2 0-4.3-2.6-2.5-5.9 1.9-3.2 6-5.9 9.2-5.9 2.2 0 3.4 1.2 3.4 3 0 .9-.3 1.8-.9 2.9z" fill="#ee4922"></path><path d="m176.5 338.2c-.1 0-.2 0-.3 0-6.3 2-20.5 6.9-21.4 8.4-.8 1.5 7.7 6.3 11.7 8.3h.3c.1 0 .2-.1.3-.2 4.9-5.4 8.1-10.9 9.4-16.2 0 0 0 0 0-.1 0-.2 0-.2 0-.2z" fill="#2f3037"></path><path d="m175.6 339c-1.3 5-4.2 10-8.7 15.1-6.1-3-11.2-6.6-11.4-7.5 1.3-1 10.5-4.6 20.1-7.6z" fill="#ee4922"></path><path d="m276.3 337.6c0 .8-.3 2.1-1.1 4.2-.1.2-.3.4-.5.4s-.3-.1-.2-.3c1.3-3.2 1.1-4.5 1-4.8-.5-.1-2.7-.3-6.4-.6-.1 1.3-.6 3.3-2.2 6.5-.1.2-.3.4-.5.4s-.3-.1-.2-.3c1.7-3.6 2.1-5.7 2.1-6.8 0-.1.1-.3.2-.4s.3-.2.4-.2c4.6.4 7.1.7 7.1.7.1 0 .1 0 .1.1.1 0 .2.3.2 1.1z" fill="#2f3037"></path><path d="m270 350.7c0 .1 0 .1-.1.2-2.9 4-5 5.2-5.1 5.3-.1 0-.2.1-.2.1s-2.9.3-8 .7c-.1 0-.2-.1-.2-.2s.1-.3.2-.4c1.3-1.1 3.3-3.2 5.6-6.8.1-.2.4-.3.6-.3s.2.2.1.4c-2.1 3.2-3.9 5.2-5.3 6.5 4.1-.3 6.5-.6 7.1-.7.4-.3 2.2-1.6 4.5-4.8.1-.2.4-.3.6-.3.2.1.2.2.2.3z" fill="#2f3037"></path><path d="m282.7 364.6-25.5 1.7-2.5-9.7c0-.1-.1-.1-.1-.1-4.9-1.3-10.7-.9-17.4 1.2-.1 0-.3.1-.4.2s-.1.2-.1.3l5.8 15.3c0 .1.1.1.2.1l10 .2h.1l29.6-8.6c.2-.1.4-.2.5-.4v-.1c.1 0 0-.1-.2-.1zm-29.7 8.6-9.8-.2-5.6-14.8c6.2-1.9 11.7-2.2 16.2-1l2.6 9.7c0 .1.1.1.2.1l22.9-1.5z" fill="#2f3037"></path><path d="m279.6 365.5-26.5 7.7-9.8-.2-5.6-14.8c6.2-1.9 11.7-2.2 16.2-1l2.6 9.7c0 .1.1.1.2.1z" fill="#ee4922"></path><path d="m304.4 327.3-19.8-8.5h-.1l-10.2.2c-.1 0-.2 0-.3.1l-23.5 15.4c-.1.1-.2.2-.3.3 0 .1 0 .2.1.3 4.2 2.1 9.6 2.5 16 1.2.1 0 .2-.1.3-.1l13.7-9.7 23.6 1.6c.2 0 .4-.1.5-.3.1-.1.1-.2.1-.2 0-.2-.1-.3-.1-.3zm-23.9-1.7c-.1 0-.2 0-.4.1l-13.8 9.8c-6 1.2-11 .9-15.1-1l22.7-14.9 10-.2 17.7 7.6z" fill="#2f3037"></path><path d="m301.7 327.1-21.2-1.5c-.1 0-.2 0-.4.1l-13.8 9.8c-6 1.2-11 .9-15.1-1l22.7-14.9 10-.2z" fill="#ee4922"></path><path d="m303.4 345.9-24.9-4.8h-.1l-37 5c-.2 0-.4.2-.5.4s-.1.3.1.4l31.3 5h.1l30.6-5.1c.2 0 .4-.2.5-.4 0-.1.1-.1.1-.2-.1-.2-.1-.3-.2-.3zm-30.7 5.1-29-4.6 34.4-4.6 23.1 4.5z" fill="#2f3037"></path><path d="m301.1 346.2-28.4 4.8-29-4.6 34.4-4.6z" fill="#ee4922"></path><path d="m271.2 367.9-2.9.8-2.9.8-3.2.9c-2.4.7-4.6 2.8-5.2 4.8s.8 3.2 3.1 2.7l3.1-.6h.1l2.8-.6 2.8-.6c1.5-.4 2.7-2.7 3.2-4.6.2-.7.3-1.4.3-2.1.1-1-.2-1.7-1.2-1.5zm.1 3.8c-.5 1.9-1.5 3.6-2.2 3.8l-2 .4-1 .2-2 .4-.9.2-3 .6c-1.6.3-2.7-.3-2.6-1.6 0-.2 0-.4.1-.6.5-1.6 2.3-3.3 4.2-3.9l3-.9.9-.3 2-.6 1-.3 2-.6c.9 0 1 1.4.5 3.2z" fill="#2f3037"></path><path d="m269 369.2c-.1-.2-.2-.4-.4-.4-.1 0-.1 0-.2 0l-2.9.8c-.2.1-.3.2-.4.3s-.1.3 0 .3c0 0 .1 0 .1.1.3.4.3 1.6-.1 3s-1.1 2.7-1.7 3.4c0 .1-.1.1-.1.1-.1.1-.2.3-.2.4s.1.1.2.1h.1l2.8-.6c.1 0 .2-.1.2-.1.3-.2.5-.5.8-.8.8-1 1.4-2.4 1.7-3.5.2-.7.3-1.4.4-2.1-.1-.3-.2-.7-.3-1zm-1 3.4c-.4 1.5-1.2 3-1.9 3.5l-2 .4c.7-1 1.3-2.3 1.6-3.4s.5-2.3.2-3l2-.6c.6.3.6 1.5.1 3.1z" fill="#2f3037"></path><path d="m268 372.6c-.4 1.5-1.2 3-1.9 3.5l-2 .4c.7-1 1.3-2.3 1.6-3.4s.5-2.3.2-3l2-.6c.6.3.6 1.5.1 3.1z" fill="#ee4922"></path><path d="m303.3 316.5-2.1-.6-2.1-.6-2.4-.7c-1.7-.5-4.5.7-6.2 2.7s-1.9 4.1-.3 4.8l2.1.9 1.9.8 1.9.8c.4.1 1 0 2.4-1 .8-.6 1.8-1.6 2.7-2.6s1.6-2 2.1-2.8c.3-.6.4-1 .4-1.2-.1-.3-.2-.5-.4-.5zm-.8 1.8c-.4.7-1.1 1.6-1.9 2.6-.8.9-1.7 1.8-2.4 2.4-.7.5-1.2.8-1.4.7l-1.3-.6-.7-.3-1.3-.6-.6-.3-2-.9c-1.3-.6-1.2-2.3.2-3.9s3.6-2.6 5.1-2.2l2.2.6.7.2 1.5.4.7.2 1.5.4c.1.2 0 .7-.3 1.3z" fill="#2f3037"></path><path d="m301.3 316s-.1-.1-.1-.1l-2.1-.6c-.1 0-.3 0-.4.1-.2.1-.2.3-.2.4v.1c-.1.6-1 2-2.2 3.4s-2.5 2.6-3.3 3c-.1 0-.1.1-.2.1-.2.1-.3.2-.4.3s-.1.3.1.3l1.9.8h.2c.3-.1.6-.2 1-.4 1.1-.7 2.4-2 3.5-3.2 1-1.2 2-2.6 2.4-3.5.1-.2.1-.4.1-.5-.3 0-.3-.1-.3-.2zm-3.1 4.1c-1.3 1.6-2.8 2.8-3.5 3.1l-1.3-.6c1.1-.7 2.3-2 3.3-3.1.9-1.1 1.9-2.4 2.3-3.4l1.5.4c0 .6-.9 2.1-2.3 3.6z" fill="#2f3037"></path><path d="m300.5 316.6c0 .5-.9 2-2.2 3.5-1.3 1.6-2.8 2.8-3.5 3.1l-1.3-.6c1.1-.7 2.3-2 3.3-3.1.9-1.1 1.9-2.4 2.3-3.4z" fill="#ee4922"></path><path d="m194.5 340.6c-3.2 0-7.4 2.6-9.2 5.9-1.9 3.2-.7 5.9 2.5 5.9 3.2 0 7.4-2.6 9.2-5.9.6-1 .9-2 .9-2.8.1-1.9-1.2-3.1-3.4-3.1zm1.8 5.9c-1.6 2.8-5.3 5.2-8.1 5.2s-3.8-2.3-2.2-5.1 5.3-5.1 8.1-5.2c2.9-.1 3.8 2.2 2.2 5.1z" fill="#2f3037"></path><path d="m373.9 153c-4.2 5.6-12.6 15.5-16.8 20.7-2.2 2.8-3.4 6.2-3.4 9.7 0 2.6.7 4.8 3.3 3.7 1.8-.8 3-1.8 5.7-4.4 2.4-2.4 16.4-20.1 16.4-20.1s1.1-9.9 4.8-11c3.6-1.1-1.3-4.1-1.3-4.1-1.5.2-4.5-.1-8.7 5.5z" fill="#9a4a4d"></path><path d="m322.7 285.7-26.1 29.8c-.8.9-2.2.3-2.1-.9l2.6-39.8z" fill="#ffa8a7"></path><path d="m294.4 314.7c-.1 1.2 1.4 1.7 2.1.9l5.1-5.8c-2.5.3-4.9-.9-6.3-3l-.4-.6z" fill="#2f3037"></path><path d="m361 120.2-1.4 3.4-1.7 4.1-60.9 147.2c1.4 4.2 4.8 7.5 8.8 9.6 6 3.2 13.2 3.8 16.9 1.3l60.3-146.2 3.2-7.8c-2.3 4.9-27.5-6.6-25.2-11.6z" fill="#ee4922"></path><path d="m355.6 133.1-3.1 7.6c-1 2.2 3.1 5.5 8.3 8.2 6.9 3.6 15.7 6.1 17 3.3l2.3-5.6.8-2c-1.3 2.9-10.1.4-17-3.3-5-2.6-9-5.8-8.4-8s0-.1.1-.2z" fill="#ebebeb"></path><path d="m354.8 135c-2.3 5 23.1 16.5 25.4 11.5l3.1-7.6c-2.3 5-27.6-6.5-25.4-11.5z" fill="#2f3037"></path><path d="m361 120.2-3.1 7.5c-2.3 4.9 22.1 16.3 25.2 11.9.1-.1.1-.2.2-.3l3.1-7.6c-2.5 5-27.7-6.5-25.4-11.5z" fill="#ebebeb"></path><path d="m383 139.6 3.2-7.8c-1.1 2.2-6.8 1.1-12.6-1.3l-63.1 155.8-14.1 29.2 26.1-29.8z" opacity=".1"></path><path d="m374.1 88.5-13.1 31.7c-1 2.1 3 5.5 8.2 8.2 6.9 3.6 15.8 6.2 17.1 3.4l12.7-30.6c3.5-6.9-8.7-15.5-17.4-16-3.4-.2-6.1.7-7.5 3.3z" fill="#ffa8a7"></path><path d="m386.3 98.9-12.6 31.6c5.1 2.1 10.2 3.2 12 1.9.2-.1.3-.3.4-.4s.1-.2.2-.2l13.1-31.5c-1.7 3.8-13.1-1.4-13.1-1.4z" fill="#f28f8f"></path><path d="m425.7 308.3-7.2 2.1-3.1-10.5 7.3-2.5z" fill="#b16668"></path><path d="m417.4 306.8-.3-1c-.6.5-.8 6.9-2.5 10.6-1.8 4-3.8 6.9-4.6 8.7-1.1 2.4 3.2 3.7 7.9 1.4 2.3-1.2 6.1-4.2 6.7-6.1s.4-4.5.9-5.9 2.1-3.4 2.2-4.9c0-.8-.8-2.4-1.5-3.7-.7-1.2-1.5-2.5-1.9-2.2 0 .2.2.8.2.8-.4.7-1.5 2.2-3 2.9-1.1.5-3.7.7-4.1-.6z" fill="#2f3037"></path><path d="m407.8 188.4c4.3 5.6 5.1 11.3 4.2 27.7-.9 16.3-1.2 30-1 30.9s5.4 7.5 7 13.4c1.7 6 6.1 39.8 6.1 39.8s-2.5 3.7-8.2 3.7c0 0-18.1-49.4-19.4-53.1-1.2-3.7-9-42.3-9-42.3l1.2-21.8z" fill="#3e4049"></path><path d="m388.9 140.4h6c7.9 0 14.2-6.4 14.2-14.2 0-9.5-7.7-17.2-17.2-17.2-9.5 0-17.2 7.7-17.2 17.2 0 7.8 6.3 14.2 14.2 14.2z" fill="#2f3037"></path><path d="m372.3 294.4h7.5v11h-7.5z" fill="#b16668" transform="matrix(.9999 .01319662 -.01319662 .9999 3.9898 -4.9364)"></path><path d="m374.6 207.2c.7-7.5 2.3-20.6 2.3-20.6l19.3-1.1c3.1 4.9 1.8 12.9.9 20.3l-11 43.1c.2 2.1 2.1 6.4 0 17.5-2.4 12.4-5.9 30.2-5.9 30.2s-5.5 2.8-8.2-.2c0 0-1.5-40.3-.4-51 1-11.7 2.6-33.1 3-38.2z" fill="#3e4049"></path><path d="m372.3 301.6v-1.1c-.7.3-2.8 6.3-5.5 9.3-3 3.3-5.7 5.4-7 6.9-1.8 2 1.9 4.5 7.1 3.7 2.6-.4 7.1-2.2 8.2-3.8 1.1-1.7 1.7-4.1 2.6-5.4.9-1.2 3-2.6 3.6-4 .3-.8 0-2.5-.4-4-.3-1.3-.7-2.8-1.1-2.7v.8c-.6.6-2.1 1.6-3.8 1.9-1.2.3-3.7-.3-3.7-1.6z" fill="#2f3037"></path><path d="m379.2 171.5c-.5 4.4-3.3 23.5-3.3 23.5 14.5 7.7 32.5 2.6 35.3-.6-2.5-8.2-5.2-12.9-7.2-15.1l3.1-12.1s-7-7.5-.8-19.2l-7.7-.6-11.3-.3c-2.7.2-4.6.4-4.6.4-1.4 2.2-3.5 6.2-5.3 10.8-1.2 2.9-2.4 7.1 1.8 13.2z" fill="#f0f0f0"></path><path d="m380.8 116.4c-1.8 1.1-4.1 5.7-3.9 15.3.2 8.1 2.8 10.2 4.2 10.7 1.3.6 3.9.2 6.4-.2v4.9s-3.4 4-3.2 6.2 5 2.8 8.2.6 5.9-6.5 5.9-6.5l-.1-11.2s1.5 1.4 3.9-.7c2-1.8 2.7-4.8 1.1-6.4s-4.5-1.2-5.7 1.1c0 0-4 .1-9.2-2.8s-7.2-7.9-7.6-11z" fill="#b16668"></path><path d="m386.1 129.6c0 .6.4 1.1 1 1.1s1-.4 1.1-1c0-.6-.4-1.1-1-1.1s-1.1.4-1.1 1z" fill="#263238"></path><path d="m385.8 136.5-2.4.8c.2.7.9 1.1 1.5.9.7-.3 1.1-1 .9-1.7z" fill="#9a4a4d"></path><path d="m377.7 126.5 2.1-1.4c-.4-.6-1.1-.7-1.7-.4-.7.4-.8 1.2-.4 1.8z" fill="#263238"></path><path d="m378.1 128.9c0 .6.4 1.1 1 1.1s1-.4 1.1-1c0-.6-.4-1.1-1-1.1-.5-.1-1 .4-1.1 1z" fill="#263238"></path><path d="m383 128.3-.2 6.1-3.2-1z" fill="#9a4a4d"></path><path d="m387.5 142.2c2.6-.3 8-1.9 8.8-4 0 0-.3 1.3-1.9 2.7s-7 2.9-7 2.9v-1.6z" fill="#9a4a4d"></path><path d="m409 128.8 3.7-2.7c-.7-1.1-2.1-1.3-3.1-.6-1.1.8-1.3 2.2-.6 3.3z" fill="#2f3037"></path><path d="m391 225.5-3.1-15.8s-4.7-1.6-7.9-4c0 0 2.6 3.3 5.5 5.1z" fill="#2f3037"></path><path d="m407 140.4c-3.3-1.7-2.9-4.9-1.2-8.2s4-5.6 7.3-3.9 4.7 5.8 3 9.1c-1.7 3.4-5.8 4.7-9.1 3z" fill="#2f3037"></path><path d="m353.1 190.4c1.7.4 3.3.3 5.6 1.1 2 .7 2.9 1 4.9.8 2.2-.1 7.9-2.8 12.9-5.9 6-3.6 12.1-10.2 14.4-13.4 4.6-6.5 9.6-16.7 12.1-20.6 2.4-3.9 3.2-4.5 3.2-4.5 3.2.1 6.3 3 4.2 10.7-1.7 6.4-6.4 14.7-12.2 21.6-2.8 3.4-7.7 8.4-15.3 13-5.3 3.3-10 4.9-16 6.9-1.6.5-2.7 1.3-5.6 2.7-1.2.6-2.5 1.2-3.8 1.4-1.7.2-3.4.3-5 0-2.1-.3-4.1-1.1-5.8-2.5-.9-.7-1.7-1.7-2.1-2.7-.5-1.1-.6-2.3-.3-3.4.1-.2.2-.5.3-.6.3-.3.8-.3 1.2-.3 2.4.1 4.9.5 7.3.4 2-.1 3.4-.5 3.1-.8s-1.5-.1-3.1-.8c-1.5-.7-2.6-2.2-2.2-3 .6-.7.5-.5 2.2-.1z" fill="#b16668"></path><path d="m342.1 165.9s3.2-1.6 7.4-.9c2 .3 2 7-4.4 9.1-4.2 1.4-6.7.8-8.1 4.2 0 0-2.7-.4-2.1-4.2.6-3.9 2.3-7.4 5.1-10.7 1.8-2.2 2-4 2.9-3.4 1 .7.6 2.7.6 2.7z" fill="#b16668"></path><path d="m82.5 170.7c4.5 5.3 12.6 15.5 16.8 20.7 2.2 2.8 3.4 6.2 3.4 9.7 0 2.6-.7 4.8-3.3 3.7-1.8-.8-3-1.8-5.7-4.4-2.4-2.4-11-12.7-11-12.7s-6.6-17.3-10.2-18.4-6.1-.8-6.1-.8c4.3-1.5 10.4-4.5 16.1 2.2z" fill="#f28f8f"></path><path d="m64.1 165c4.5-3.4 12-2.5 16.2 2.6 3.1 3.7 10.4 12.8 10.4 12.8s-2.1 5.8-9.4 8.4z" fill="#e0e0e0"></path><path d="m149.7 284.5s-12.6-45.5-30.3-88.4c-17.6-42.5-44.7-85.6-49.2-92.2 0 0 0-.1-.1-.1 0 0-.1-.1-.1-.1-.6-.8-1.6-1.4-2.7-1.4-1.9 0-3.4 1.5-3.4 3.4 0 .3 0 .5.1.8s12 58.9 29.3 100.7 40.9 83.6 40.9 83.6c.6 1 1.7 1.6 3.4 1.9 3.7.5 8.6-1.5 10.9-4.5 1.2-1.3 1.5-2.7 1.2-3.7z" fill="#ee4922"></path><path d="m63.9 105.8c0 .3 0 .5.1.8s12 58.9 29.3 100.7c11.6 28.1 26.1 56.3 34.4 71.7l9.1-5.7s-72.1-169.5-69.4-170.8c-2-.2-3.5 1.4-3.5 3.3z" opacity=".1"></path><path d="m134.3 290.9c-1.5 7.3-4 16.8.6 29 5.2 13.9 21 17.8 28.6 17.8 10.6 0 17.3-3.9 17.3-3.9s-5.5-2.1-7.7-10c-.5-1.6-.7-3.4-.8-5.3-.5-6.4-.7-13.4-6.3-21.1-7.1-9.9-16.2-13-16.2-13z" fill="#ebebeb"></path><path d="m173 323.8c-.5-1.6-.7-3.4-.8-5.3 0 0-1.9 8.3-6.6 7.9-4.7-.5-6-5.5-12.2-5.5-7.6 0-10.2 6.3-16.6 2.9 6.5 10.9 19.8 13.9 26.7 13.9 10.6 0 17.3-3.9 17.3-3.9s-5.5-2.1-7.8-10z" fill="#ee4922"></path><path d="m153.3 326.5c-12.2-8.5-9.9-31-9.6-34.7l-9.4-.9c-1.5 7.3-4 16.8.6 29 5.2 13.9 21 17.8 28.6 17.8 10.6 0 17.3-3.9 17.3-3.9s-13.2 2.6-27.5-7.3z" opacity=".1"></path><path d="m134.3 290.9c.6 1 1.7 1.6 3.4 1.9 3.7.5 8.6-1.5 10.9-4.5 1-1.4 1.4-2.7 1.1-3.8-1.8-6.3-3.8-13.2-6.1-20.4.4 1.4 0 3.1-1.3 4.9-2.9 3.8-9.1 6.3-13.8 5.7-2.3-.3-3.8-1.3-4.4-2.6 3.9 7.3 7.6 14.1 10.2 18.8z" fill="#2f3037"></path><path d="m136.8 273.2c-2.7 1.2-5.7 1.9-8.3 1.5-2.3-.3-3.8-1.3-4.4-2.6 3.9 7.3 7.6 14.2 10.2 18.8.6 1 1.7 1.6 3.4 1.9 1.9.2 4-.1 6-1l.1-.2z" fill="#37474f"></path><ellipse cx="70.4" cy="138.6" fill="#263238" rx="10.8" ry="10.8" transform="matrix(.9732 -.2298 .2298 .9732 -29.9619 19.8935)"></ellipse><path d="m44.5 322.1h7.6v13.1h-7.6z" fill="#ffa8a7" transform="matrix(-1 0 0 -1 96.5895 657.3478)"></path><path d="m71 321.4 7.6.3.4-13.8-7.7-.3z" fill="#ffa8a7"></path><path d="m45 218.5c0 7.3-1 51.5-1 51.5-.2 2.1-2.1 6-1.7 14 .6 11 1.5 39.4 1.5 39.4s3.6 3.6 8.6 0c0 0 6.9-39.4 8.3-50.2 1.3-9.5 3.3-35.2 3.3-35.2l7.1 30.3s-1.2 7.1-1.5 12.1 1.3 31.3 1.3 31.3 3.9 2.7 8.3.3c0 0 6.1-39.7 6.9-44.2s-5.4-49.4-5.4-49.4h-35.7z" fill="#3e4049"></path><path d="m52.3 165.7c-3.3.6-6 3.1-6.7 6.4-.4 1.6-.6 3.6-.6 5.8v15 25.6c5.4 5.8 24 8.5 35.7 0 0 0-.2-35.8-1.1-41.7-1.5-10.2-6.4-13.9-11.3-13.5l-11.8 1.7z" fill="#f0f0f0"></path><path d="m51.7 146.3s1.8 8.3 2.5 9.6c.7 1.4 2.2 1.7 2.2 1.7l-.1-5.8z" fill="#263238"></path><path d="m53.9 134.5s-1.9-.3-3.4 1.2c-1.4 1.5-.6 6.1 1.2 10.6l3.3.4z" fill="#2f3037"></path><path d="m56 146.7c-.7.4-1.6-.9-2.4-1.7-.8-.9-3.5-2-4.8.8-1.4 2.9 1.2 6.6 3.3 7.3 3.6 1.1 4.2-1.2 4.2-1.2l.3 13.1s2.4 5.8 8.8 6.7 5.1-4.4 3-7v-4s3.3.5 4.9.3c2.7-.4 4.3-2.5 5.2-5.4 1.3-4.6 1.8-8.4.7-17.5-1.2-10-12.8-10.1-19.1-6.1-6.5 3.8-4.1 14.7-4.1 14.7z" fill="#ffa8a7"></path><path d="m56 147.8c-.3 0-1.6-2.1-2.4-2.9-1.1-1 .3-10.5.3-10.5s-1.1-2.3 1.1-4.8c1.6-1.7 4.2-1.9 8.7-2.6 2.3-.4 5.9-1 8.3-1.5 2.8-.5 5.1-1.1 7.1.6 1.5 1.3 2.2 3.7 1.4 5.6-.2.4-.5.8-.8 1.2-.6.6-1.2 1.1-2 1.4 0 0-1.2 1.1-5.5 1.6-4.2.5-10.9-.1-11.8-.2-1.2-.2-1.5 1-2.2 4.3-.6 2.9-1.1 7.8-2.2 7.8z" fill="#2f3037"></path><path d="m53.9 135.2-4-2.2c.6-1.2 1.9-1.6 3-1 1.1.7 1.6 2.1 1 3.2z" fill="#263238"></path><path d="m68.3 160.6s-6-1.2-8-2.3c-1.4-.7-2.5-2-2.9-2.8 0 0 .4 1.8 1.6 3.4 1.5 1.9 9.3 3.4 9.3 3.4z" fill="#f28f8f"></path><path d="m66.8 145.2c0 .7-.5 1.2-1.2 1.2s-1.2-.6-1.2-1.2c0-.7.5-1.2 1.2-1.2s1.2.5 1.2 1.2z" fill="#263238"></path><path d="m65.6 140.7-2.6 1.4c-.4-.7-.1-1.6.6-2s1.6-.1 2 .6z" fill="#263238"></path><path d="m67.7 153.5 2.7 1c-.3.8-1.1 1.2-1.8.9-.8-.3-1.1-1.2-.9-1.9z" fill="#f28f8f"></path><path d="m77.5 141.7-2.3-1.8c.5-.7 1.4-.8 2-.3s.7 1.4.3 2.1z" fill="#263238"></path><path d="m76.8 144.9c0 .7-.5 1.2-1.2 1.2s-1.2-.6-1.2-1.2c0-.7.5-1.2 1.2-1.2.6-.1 1.2.5 1.2 1.2z" fill="#263238"></path><path d="m70.7 143.7.4 7.2 3.7-1.3z" fill="#f28f8f"></path><path d="m52.1 331.4v-1.1c.7.3 2.4 6.8 5.5 9.6 2.4 2.2 5.7 4.7 6.5 7.2.9 2.5-4.6 4-6.8 3.6-2.6-.5-7.1-2.3-8.3-4-1.1-1.7-1.7-4.2-2.6-5.5s-3.1-2.6-3.6-4.1c-.3-.8.1-2.5.4-4 .4-1.4.7-2.8 1.2-2.7v.8c.6.6 2.1 1.2 3.8 1.3 1.2 0 3.9-.2 3.9-1.1z" fill="#2f3037"></path><path d="m78.7 319.3c.4 0 .7.6 1.6 1.5 1.1 1.1 2.8 2.4 4.5 3.2 2.9 1.4 8.4 3.6 10.9 4.8 1.6.7 1.5 2.6-.1 3.7s-5.5 1.9-10.3.8c-2.6-.6-5.9-2.9-8-2.8s-6.1.1-7.6-1c-1.6-1.1-.9-3.4-.5-5.3.5-2.2 1.2-5.5 1.9-5.3v.7c.9 1.4 5.6 2 7.6.9z" fill="#2f3037"></path><path d="m64 238s6.1-1.7 10.6-6.1c0 0-2.1 3.8-8.2 7.4l2.3 19.5z" fill="#2f3037"></path><path d="m106.8 209.5c-1.7.4-3.3.3-5.6 1.1-2 .7-2.9 1-4.9.8-2.2-.1-7.9-2.8-12.9-5.9-6-3.6-12.1-10.2-14.4-13.4-4.6-6.5-9.6-16.7-12.1-20.6-2.4-3.9-4.7-4.3-7.4-4.2-3.2.1-5.2 3-2.4 9s8.8 16.1 14.5 23c2.8 3.4 7.7 8.4 15.3 13 5.3 3.3 10 4.9 16 6.9 1.6.5 2.7 1.3 5.6 2.7 1.2.6 2.5 1.2 3.8 1.4 1.7.2 3.4.3 5 0 2.1-.3 4.1-1.1 5.8-2.5.9-.7 1.7-1.7 2.1-2.7.5-1.1.6-2.3.3-3.4-.1-.2-.2-.5-.3-.6-.3-.3-.8-.3-1.2-.3-2.4.1-4.9.5-7.3.4-2-.1-3.4-.5-3.1-.8s1.5-.1 3.1-.8c1.5-.7 2.6-2.2 2.2-3-.5-.7-.5-.6-2.1-.1z" fill="#ffa8a7"></path><path d="m50.5 166.2c-2.4.1-5.6 1.6-5.5 5.8.1 4.1 6.4 16.2 11.3 23.1 0 0 7.7-.5 11.7-6.3 0 0-7.2-11.4-9.1-15-1.7-3.3-4.9-7.7-8.4-7.6z" fill="#e0e0e0"></path><path d="m114 183.5s-2.9-1.5-7-.8c-2 .3-2 7 4.4 9.1 4.2 1.4 6.7.8 8.1 4.2 0 0 2.7-.4 2.1-4.2-.6-3.9-2.3-7.4-5.1-10.7-1.8-2.2-2-4-2.9-3.4-1 .7-.9 2.9-.9 2.9z" fill="#ffa8a7"></path><path d="m289.6 211.2-36.7-.5-.3 30c0 2.7 1.7 5.4 5.3 7.6 7.1 4.2 18.7 4.3 26 .3 3.6-2 5.5-4.8 5.5-7.5z" fill="#2f3037"></path><path d="m258.4 203.3c-7.2 4.1-7.3 10.8-.2 15s18.7 4.3 26 .3c7.2-4.1 7.3-10.8.2-15-7.2-4.3-18.8-4.4-26-.3z" fill="#3e4049"></path><path d="m288 211.1c0 .5-.1 1-.3 1.4-.6 1.7-2.1 3.3-4.4 4.6-3.3 1.8-7.6 2.8-12.2 2.8-4.6-.1-8.9-1.1-12.1-3-2.3-1.3-3.7-3-4.3-4.6-.2-.5-.3-1-.3-1.5 0-2.2 1.7-4.4 4.7-6.1 3.2-1.8 7.6-2.8 12.2-2.8s8.9 1.1 12.2 3c2.9 1.7 4.5 3.9 4.5 6.2z" fill="#263238"></path><path d="m287.8 212.5c-.6 1.7-2.1 3.3-4.4 4.6-3.3 1.8-7.6 2.8-12.2 2.8-4.6-.1-8.9-1.1-12.1-3-2.3-1.3-3.7-3-4.3-4.6.6-1.7 2.1-3.3 4.4-4.6 3.2-1.8 7.6-2.8 12.2-2.8 4.6.1 8.9 1.1 12.2 3 2.2 1.3 3.6 2.9 4.2 4.6z" fill="#ee4922"></path><path d="m279.1 222.4c.8-.5 1.4-.1 1.4.9 0 .9-.7 2-1.5 2.5s-1.4.1-1.4-.9c0-.9.7-2 1.5-2.5z" fill="#263238"></path><path d="m252.8 216c-2 4-6 13.4-.8 17.3.2.2.4.3.6.4v1.9c-.5-.3-1.1-.7-1.6-1.1-7.8-5.8 1-20.6 1.4-21.2.1-.2.3-.3.4-.3z" fill="#e0e0e0"></path><path d="m279.8 224.5c-.2.5-5.9 11.3-15.2 13.5-1.1.3-2.1.4-3.2.4-2.9 0-5.8-.9-8.7-2.7v-1.9c3.9 2.7 7.7 3.6 11.5 2.7 8.6-2 14.1-12.6 14.2-12.7.2-.4.7-.5 1.1-.3.3.1.5.6.3 1z" fill="#e0e0e0"></path><path d="m232.3 151.5h-84l9.4 77.3c.4 4.5 3.6 8.9 9.5 12.3 12.8 7.4 33.5 7.4 46.2 0 5.9-3.4 9.1-7.8 9.5-12.3z" fill="#2f3037"></path><path d="m160.6 134.4c16.4-9.5 43-9.5 59.4 0s16.4 24.8 0 34.3-43 9.5-59.4 0-16.4-24.9 0-34.3z" fill="#3e4049"></path><path d="m190.3 170.9c-10.4 0-20.1-2.3-27.3-6.5-6.4-3.7-9.9-8.3-9.9-12.9 0-4.7 3.5-9.3 9.9-12.9 7.2-4.2 16.9-6.5 27.3-6.5s20.1 2.3 27.3 6.5c6.4 3.7 9.9 8.3 9.9 12.9 0 4.7-3.5 9.3-9.9 12.9-7.2 4.2-16.9 6.5-27.3 6.5z" fill="#263238"></path><g clip-path="url(#a)"><path d="m213.6 215-15.5 29.5c-.5.9-1.7.7-1.9-.3l-5.7-33z" fill="#ffa8a7"></path><path d="m213.6 215-15.5 29.5c-.5.9-1.7.7-1.9-.3l-5.7-33z" fill="#ffa8a7"></path><path d="m196.2 244.2c.2 1 1.4 1.2 1.9.3l3-5.8c-2 .7-4.2.2-5.7-1.2l-.4-.4z" fill="#263238"></path><path d="m212.4 72.3-.5 3-.6 3.7-20.8 132.1c2 3.2 5.4 5.1 9 6.1 5.5 1.4 11.5.5 14-2.3l20.7-131.2 1.1-7c-.9 4.6-23.8.1-22.9-4.4z" fill="#ee4922"></path><path d="m210.5 83.9-1.1 6.8c-.4 2 3.6 3.9 8.4 5.1 6.3 1.6 14.1 1.9 14.6-.7l.8-5 .3-1.8c-.5 2.6-8.2 2.3-14.6.7-4.6-1.2-8.5-3-8.4-4.9 0-.1 0-.2 0-.2z" fill="#ebebeb"></path><path d="m210.3 85.6c-.9 4.6 22.1 9 23 4.4l1.1-6.8c-.9 4.6-23.8.1-23-4.4z" fill="#2f3037"></path><path d="m212.4 72.3-1.1 6.7c-.9 4.5 21.2 8.9 22.9 4.8 0-.1.1-.2.1-.2l1-6.8c-.9 4.5-23.8 0-22.9-4.5z" fill="#ebebeb"></path><path d="m234.2 83.8 1.1-7c-.4 2-5.4 2.2-10.5 1.4l-21 139.7-5.8 26.6 15.5-29.5z" opacity=".1"></path><path d="m216.9 43.7-4.5 28.5c-.4 1.9 3.6 3.9 8.3 5.1 6.3 1.6 14.1 2 14.6-.6l4.3-27.4c1.5-6.3-10.1-11-17.4-9.7-2.6.5-4.7 1.8-5.3 4.1z" fill="#ffa8a7"></path></g><g clip-path="url(#a)"><path d="m163.5 208.5-.4-3.1-.5-3.7-18.5-132.4c1.7 1.8 6.2 2.7 11 2.2 5.7-.6 10.9-2.9 12.1-5.6l18.4 131.5 1 7c-.9-4.5-23.9-.5-23.1 4.1z" fill="#ee4922"></path><path d="m161.9 196.9-.9-6.8c-.3-2 3.7-3.8 8.5-4.9 6.4-1.5 14.1-1.7 14.6.9l.7 5 .2 1.8c-.5-2.6-8.2-2.4-14.6-.9-4.6 1.1-8.5 2.8-8.5 4.7z" fill="#ebebeb"></path><path d="m161.7 195.2c-.8-4.6 22.2-8.6 23-4l1 6.8c-.8-4.6-23.8-.6-23 4z" fill="#27debf"></path><path d="m163.5 208.5-1-6.7c-.8-4.5 21.4-8.6 23-4.4 0 .1.1.2.1.3l.9 6.8c-.8-4.6-23.8-.6-23 4z" fill="#ebebeb"></path><path d="m153.5 43.2c-3.4.9-4.6.2-4.6.2l-4.9 25.9c2.7 3.8 9.2 4.6 14.7 3l-.2-1.3z" fill="#ffa8a7"></path><path d="m167.2 65.8-12.1-24z" fill="#fafafa"></path><path d="m155.1 41.9-2.9-5.8z" fill="#e0e0e0"></path><path d="m150.3 36.3-1.3 7s1.1.8 4.6-.2l-1.3-7.1c-.3-.5-.9-.7-1.3-.5s-.6.5-.7.8z" fill="#2f3037"></path><path d="m185.6 197.3-18.4-131.4c-1.3 3.1-4.6 5.4-8.4 6.4l17.3 130.5c5.2-.7 10.1-.4 10.5 1.6z" opacity=".1"></path><path d="m167.2 65.9-12-24c-.4.6-.9 1.1-1.6 1.3l5.1 27.8.2 1.3c3.7-1.1 7-3.3 8.3-6.4z" fill="#f28f8f"></path><path d="m153.5 43.2c.8-.2 1.5-1 1.6-1.3l-2.9-5.8z" fill="#3e4049"></path><path d="m167.6 237.1-4-28.6c-.4-1.9 3.6-3.8 8.4-4.9 6.4-1.5 14.1-1.8 14.6.8l3.9 27.5c1.4 6.3-10.3 10.8-17.6 9.4-2.7-.5-4.8-1.8-5.3-4.2z" fill="#f28f8f"></path></g><g clip-path="url(#a)"><path d="m182.9 57.3s-4.5 35.9-4.5 71.4c0 35.2 6.5 73.6 7.8 79.6v.1.1c.2.8.7 1.4 1.5 1.8 1.3.6 2.9-.1 3.4-1.4.1-.2.1-.4.2-.6s8.7-45.2 8.8-79.8-4.4-71.1-4.4-71.1c-.1-.8-.7-1.7-1.9-2.3-2.5-1.4-6.6-1.4-9.1 0-1.1.5-1.7 1.3-1.8 2.2z" fill="#ee4922"></path><path d="m191.1 208.8c.1-.2.1-.4.2-.6s8.7-45.2 8.8-79.8c0-23.3-2-47.4-3.3-60.7l-8.1 1.4s1.3 141-1 141.1c1.3.5 2.9-.1 3.4-1.4z" opacity=".1"></path><path d="m189.2 53.9c1.1-2.1 7.2-13.4 5.3-22.7-1.1 0-2.3-.2-3.6-.8-4.4-1.8-3.9-5.7-7-7.4-3.2-1.7-6.9 3.6-7 3.6-1.5 4.7-3.4 9.7-1.7 16.8 2.2 9.1 7.7 13.9 7.7 13.9h12.8c.8-1.2 1.7-2.5 2.6-3.8-.9 1.4-1.8 2.6-2.6 3.8z" fill="#f0f0f0"></path><path d="m203.5 33.2c-2.7-3.3-5.5-1.9-9-2 2 9.2-4.1 20.6-5.3 22.7l6.4 3.4c.8-1.2 1.7-2.5 2.6-3.8.2-.3.4-.7.7-1.1.4-.7.9-1.5 1.3-2.3.6-1.2 1.2-2.5 1.7-3.8.3-.9.6-1.9.9-2.9.5-2 .9-4.3 1-6.8-.1-1.2-.1-2.3-.3-3.4z" opacity=".1"></path><path d="m203.5 33.2c-.1-.6-.2-1.1-.3-1.7 0-.1 0-.1 0-.2-.1-.4-.2-.8-.4-1.2-.1-.2-.1-.3-.2-.5 0-.1-.1-.2-.1-.4-.1-.2-.2-.4-.3-.6-.1-.3-.2-.5-.3-.8-.3-.6-.6-1.1-.9-1.6s-.6-1-1-1.5c-.3-.5-.7-1-1.1-1.4-2.6-3.2-5.8-5.5-8.5-6.9-.2-.1-.5-.3-.7-.4-.1 0-.1-.1-.2-.1-.3-.1-.6-.3-.8-.4-1.9-.8-3.6-1.3-5.2-1.7-.8-.2-1.6-.3-2.3-.4s-1.4-.2-2-.2c-.3 0-.6 0-.9-.1-.3 0-.5 0-.8 0-.5 0-.9 0-1.2 0-.7 0-1 .1-1 .1s3.3 3.1 2.5 9.3c-.1 1.3-.5 2.6-1 4 0 0 3.8-5.3 7-3.6s2.6 5.6 7 7.4c1.3.5 2.5.7 3.6.8 3.6.2 6.4-1.1 9.1 2.1z" fill="#ee4922"></path><path d="m175.4 13.3s10.1 2 17.3 13.2c.9 1.4 1.5 3 1.9 4.6 3.5.1 6.3-1.2 9 2-.1-.6-.2-1.1-.3-1.7 0-.1 0-.1 0-.2-.1-.4-.2-.8-.4-1.2-.1-.2-.1-.3-.2-.5 0-.1-.1-.2-.1-.4-.1-.2-.2-.4-.3-.6-.1-.3-.2-.5-.3-.8-.3-.6-.6-1.1-.9-1.6s-.6-1-1-1.5c-.3-.5-.7-1-1.1-1.4-2.6-3.2-5.8-5.5-8.5-6.9-.2-.1-.5-.3-.7-.4-.1 0-.1-.1-.2-.1-.3-.1-.6-.3-.8-.4-1.9-.8-3.6-1.3-5.2-1.7-.8-.2-1.6-.3-2.3-.4s-1.4-.2-2-.2c-.3 0-.6 0-.9-.1-.3 0-.5 0-.8 0-.5 0-.9 0-1.2 0-.7.3-1 .3-1 .3z" opacity=".1"></path><path d="m195.6 57.3c-.1-.8-.7-1.7-1.9-2.3-2.5-1.4-6.6-1.4-9.1 0-1.1.7-1.8 1.5-1.9 2.4-.6 5-1.2 10.4-1.7 16.2.1-1.1.9-2.2 2.4-3.1 3.2-1.8 8.3-1.8 11.4 0 1.5.9 2.3 2 2.4 3.1-.5-6.4-1.1-12.3-1.6-16.3z" fill="#2f3037"></path><path d="m188.7 69.1c2.3-.1 4.6.4 6.3 1.4 1.5.9 2.3 2 2.4 3.1-.6-6.3-1.2-12.2-1.7-16.3-.1-.8-.7-1.7-1.9-2.3-1.3-.7-2.9-1.1-4.6-1.1l-.1.1z" fill="#37474f"></path></g><path d="m235.3 76.8c.1 0 .1 0 0 0l4.4-27.5c.1-.3.1-.6.1-.9-1.8 4.7-10.8 2.3-10.8 2.3l-4.2 27.4c5.2.9 10.1.7 10.5-1.3z" fill="#f28f8f"></path></svg> 