<?xml version="1.0" encoding="UTF-8"?> <svg xmlns="http://www.w3.org/2000/svg" viewBox="0 0 428 428"><path d="m64.3 395.7c82.8 43.2 216.9 43.2 299.7 0s82.8-113.3 0-156.6c-82.8-43.2-216.9-43.2-299.7 0-82.8 43.2-82.8 113.3 0 156.6z" fill="#f5f5f5"></path><ellipse cx="353.9" cy="352.1" fill="#e0e0e0" rx="45.5" ry="21.7"></ellipse><path d="m28.9 337.5c-.2-.9-.5-1.8-1-2.5-.9-1.1-2.3-1.6-3.7-1.8s-2.8-.2-4.1-.6c-2.1-.6-3.9-2-4.9-3.8-1.1-1.9-1.3-4.1-.7-6.2.4-1.3 1.1-2.5 1.4-3.9 1-3.5-1.7-4.9-4.2-6.6-1.7-1.2-4.5-2.9-4.2-5.4.7-4.6 7.5-5.8 14-3.9s10 3.3 14.8 2c4.9-1.3 9.3-1.6 11.9 2.7 2.5 4.3 0 8.4 3.3 11.4s9.1.9 11.3 7.5v39.1c0-.2-1.1-1-1.3-1.1-1.2-1.1-2.4-2.1-3.6-3.2-1.1-1-2.7-1.9-3.4-3.1-1.1-1.7-1.6-3.8-2.7-5.5-1.3-2-3-3.9-5.1-5-4.2-2.1-9.2-1.8-13.4-3.8-1.5-.7-2.9-1.9-3.5-3.4-.6-.9-.7-1.9-.9-2.9z" fill="#ee4922"></path><path d="m28.9 337.5c-.2-.9-.5-1.8-1-2.5-.9-1.1-2.3-1.6-3.7-1.8s-2.8-.2-4.1-.6c-2.1-.6-3.9-2-4.9-3.8-1.1-1.9-1.3-4.1-.7-6.2.4-1.3 1.1-2.5 1.4-3.9 1-3.5-1.7-4.9-4.2-6.6-1.7-1.2-4.5-2.9-4.2-5.4.7-4.6 7.5-5.8 14-3.9s10 3.3 14.8 2c4.9-1.3 9.3-1.6 11.9 2.7 2.5 4.3 0 8.4 3.3 11.4s9.1.9 11.3 7.5v39.1c0-.2-1.1-1-1.3-1.1-1.2-1.1-2.4-2.1-3.6-3.2-1.1-1-2.7-1.9-3.4-3.1-1.1-1.7-1.6-3.8-2.7-5.5-1.3-2-3-3.9-5.1-5-4.2-2.1-9.2-1.8-13.4-3.8-1.5-.7-2.9-1.9-3.5-3.4-.6-.9-.7-1.9-.9-2.9z" opacity=".2"></path><g fill="#fff"><path d="m62.8 356.9c-.2 0-.4-.2-.5-.4-4.1-23.5-31.7-45.3-48.1-49.3-.3-.1-.4-.3-.4-.6.1-.3.3-.4.6-.4 16.7 4.1 44.6 26.2 48.8 50.1.1.3 0 .6-.4.6z"></path><path d="m23.8 324.2c-.1 0-.3-.1-.4-.2-.2-.2-.1-.5.1-.7 3.9-3.1 11.9-4 15.1-3.8.3 0 .5.3.5.5 0 .3-.3.5-.5.5-3.3-.2-10.9.8-14.4 3.6-.2.1-.3.1-.4.1z"></path><path d="m42 323.5c-.1 0-.1 0-.2 0-.3-.1-.4-.4-.3-.7 2.1-5.1 1-13.6.9-13.7 0-.3.2-.5.4-.6.3 0 .5.2.6.4 0 .4 1.2 8.9-1 14.2 0 .3-.2.4-.4.4z"></path></g><path d="m60.6 372.4c-1.2-3.5-6.9-10.9-17.4-16.7-9.1-5-23-8.8-21.8-15.4s14.1-6.8 23-1.5c11.2 6.7 17.4 20.4 18.2 25.9z" fill="#ee4922"></path><path d="m61.7 368.7c-.2 0-.4-.2-.5-.4-2.3-12.3-19.7-29-33.6-28.6-.3 0-.5-.2-.5-.5s.2-.5.5-.5c14.4-.4 32.3 16.8 34.7 29.4 0 .3-.2.5-.6.6.1 0 .1 0 0 0z" fill="#fff"></path><path d="m368.9 317.3c2-6.6 8.5-12.7 14.1-16.4s9.8-5.5 12.3-7.5c3-2.5-.9-8.4-10.1-5-9.2 3.5-14.8 13.7-18.1 24z" fill="#ee4922"></path><path d="m368.9 317.3c2-6.6 8.5-12.7 14.1-16.4s9.8-5.5 12.3-7.5c3-2.5-.9-8.4-10.1-5-9.2 3.5-14.8 13.7-18.1 24z" opacity=".2"></path><path d="m368.6 312.9c-.1 0-.1 0-.2 0-.3-.1-.4-.4-.3-.7 3.5-9.1 12.6-20 22.6-22.3.3-.1.6.1.7.4s-.1.6-.4.7c-8.5 2-17.8 11.3-21.8 21.6-.2.2-.4.3-.6.3z" fill="#fff"></path><path d="m366.8 343.5c2.4-2.7 7.7-1.7 10.6-5.2 2.3-2.8.6-6.9 2.9-9.6.6-.7 1.5-1.2 2.4-1.6 1.9-.9 4-1.5 5.7-2.6 1.7-1.2 3.2-3.1 3-5.2-.1-2.1-1.7-3.8-1.7-5.9 0-1.5.9-2.8 2-3.9 1-1.1 2.2-2.1 2.9-3.4.4-.7.7-1.5.5-2.3-.2-1.2-1.4-2-2.5-2.2-3.1-.6-5.7 1.2-8.4 2.4-2.3 1.1-4.4.9-6.9.9-1 0-2 0-3 .3-1.9.7-3.2 2.5-4.1 4.4s-1.5 3.9-2.8 5.5c-.8 1.1-1.9 1.9-2.6 3.1-.8 1.3-1 2.9-1.3 4.4-.7 3.7-1.1 7.4-.8 11.2.2 1.8.5 3.6 1.2 5.3.3.4 2.7 4.7 2.9 4.4z" fill="#ee4922"></path><path d="m386.5 320.8h-.1c-.1 0-7.9-2-13.5-.7-.3.1-.6-.1-.7-.4s.1-.6.4-.7c5.9-1.3 13.7.6 14 .7s.5.4.4.7c0 .2-.2.4-.5.4z" fill="#fff"></path><path d="m377.3 315.2c-.3 0-.5-.2-.6-.5-.2-2.6-1.8-6.2-1.8-6.2-.1-.3 0-.6.3-.7s.6 0 .7.3c.1.2 1.7 3.8 1.9 6.6.1.2-.2.5-.5.5z" fill="#fff"></path><path d="m364.5 340.1c-.4 0-.6-.3-.6-.6 1.7-14.4 10.4-26 25.9-34.5.3-.1.6 0 .8.2.1.3 0 .6-.2.8-15.2 8.2-23.7 19.5-25.3 33.6-.1.3-.3.5-.6.5z" fill="#fff"></path><path d="m135.6 69.5-6.5 3.7c0-.3.1-.6.1-.9v-1.9c0-3.3-2.3-4.7-5.2-3-1.2.7-2.2 1.7-3.1 3-.5-4.2-3.8-5.8-7.8-3.4-4.3 2.5-7.8 8.6-7.8 13.5v2.8c0 1.3.2 2.4.7 3.2l-5.4 3.1c-1.6.9-2.9 3.2-2.9 5s1.3 2.6 2.9 1.7l35-20.2c1.6-.9 2.9-3.2 2.9-5s-1.3-2.5-2.9-1.6z" fill="#ebebeb"></path><path d="m92.8 52.3-3.6 1.4v-7.9c0-6.2-5-7.7-10.4-4.6-5.4 3.1-9.8 10.7-9.8 16.9v1.1c-1.2-.5-2.8-.3-4.5.7-3.9 2.2-7 7.7-7 12.2v.5l-5 2.9c-2.6 1.5-4.6 5.1-4.6 8 0 3 2.1 4.1 4.6 2.7l40.3-23.2c2.6-1.5 4.6-5.1 4.6-8 .1-3-2-4.2-4.6-2.7z" fill="#ebebeb"></path><path d="m185.4 372s0 0-.1.1-.2.2-.3.3c-.3.2-.4 0-.6-.1-.5-.3-1.1-.6-1.9-1.1s-1.7-1-2.6-1.6c-1-.6-2-1.2-3-1.8-2-1.3-4-2.6-5.5-3.6s-2.5-1.7-2.5-1.7 1.1.5 2.7 1.3 3.8 1.9 5.9 3c1.1.6 2.1 1.1 3.1 1.7 1 .5 1.9 1.1 2.7 1.5s1.4.8 1.9 1.1c.2.1.4.2.4.5 0 .1 0 .3-.1.4-.1-.1-.1 0-.1 0z" fill="#e0e0e0"></path><path d="m187.3 373.4c-1.5 2.5-3.8 3.9-6.3 2.5 0 0-.1 0-.1-.1 0 0 0 0-.1 0-.7-.4-1.1-1.2-1.1-2.4 0-2.4 1.7-5.3 3.8-6.5 1-.6 1.9-.6 2.5-.3 0 0 .1 0 .1.1.1 0 .2.1.2.1 2.5 1.4 2.4 4.1 1 6.6z" fill="#232428"></path><path d="m185.2 369.4c1.4-.8 2.5-.1 2.5 1.4s-1.1 3.5-2.5 4.3-2.5.1-2.5-1.4c0-1.7 1.1-3.6 2.5-4.3z" fill="#3e4049"></path><path d="m193.1 373.5c-.5-.3-4-2-6.1-4.3l-3.6 5.9c3.5.9 6.4 2.8 6.9 3.1z" fill="#3e4049"></path><path d="m195.5 374.5c0-1.6-1.3-2.9-2.9-2.9-.4 0-.7.1-1 .2 0 0 0 0-.1 0 0 0-.1 0-.1.1-.2.1-.3.1-.5.2-1.6 1-3 3.3-3 5.2 0 .3 0 .5.1.7.2 1.4 1.4 2.4 2.9 2.4 1.6 0 2.9-1.3 2.9-2.9 0-.1 0-.2 0-.3 1-.5 1.7-1.6 1.7-2.7z" fill="#232428"></path><path d="m192.6 373c1.6-1 3-.2 3 1.7s-1.3 4.2-3 5.2c-1.6 1-3 .2-3-1.7 0-2 1.3-4.3 3-5.2z" fill="#3e4049"></path><path d="m208.3 365.2s0 0-.1.1-.2.2-.3.3c-.3.2-.4 0-.6-.1-.5-.3-1.1-.6-1.9-1.1s-1.7-1-2.6-1.6c-1-.6-2-1.2-3-1.8-2-1.3-4-2.6-5.5-3.6s-2.5-1.7-2.5-1.7 1.1.5 2.7 1.3 3.8 1.9 5.9 3c1.1.6 2.1 1.1 3.1 1.7 1 .5 1.9 1.1 2.7 1.5s1.4.8 1.9 1.1c.2.1.4.2.4.5 0 .1 0 .3-.1.4-.1 0-.1 0-.1 0z" fill="#e0e0e0"></path><path d="m210.2 366.6c-1.5 2.5-3.8 3.9-6.3 2.5 0 0-.1 0-.1-.1 0 0 0 0-.1 0-.7-.4-1.1-1.2-1.1-2.4 0-2.4 1.7-5.3 3.8-6.5 1-.6 1.9-.6 2.5-.3 0 0 .1 0 .1.1.1 0 .2.1.2.1 2.4 1.4 2.4 4.1 1 6.6z" fill="#232428"></path><path d="m208.1 362.6c1.4-.8 2.5-.1 2.5 1.4s-1.1 3.5-2.5 4.3-2.5.1-2.5-1.4c0-1.6 1.1-3.5 2.5-4.3z" fill="#3e4049"></path><path d="m216 366.8c-.5-.3-4-2-6.1-4.3l-3.6 5.9c3.5.9 6.4 2.8 6.9 3.1z" fill="#3e4049"></path><path d="m218.4 367.7c0-1.6-1.3-2.9-2.9-2.9-.4 0-.7.1-1 .2 0 0 0 0-.1 0 0 0-.1 0-.1.1-.2.1-.3.1-.5.2-1.6 1-3 3.3-3 5.2 0 .3 0 .5.1.7.2 1.4 1.4 2.4 2.9 2.4 1.6 0 2.9-1.3 2.9-2.9 0-.1 0-.2 0-.3 1-.5 1.7-1.5 1.7-2.7z" fill="#232428"></path><path d="m215.5 366.2c1.6-1 3-.2 3 1.7s-1.3 4.2-3 5.2c-1.6 1-3 .2-3-1.7 0-2 1.3-4.3 3-5.2z" fill="#3e4049"></path><path d="m144.4 365.8s0-.1 0-.2-.1-.3-.1-.4c0-.3.2-.3.4-.5.5-.3 1.1-.6 1.9-1.1.8-.4 1.7-1 2.7-1.5s2-1.1 3.1-1.7c2.1-1.1 4.3-2.2 5.9-3s2.7-1.3 2.7-1.3-1 .7-2.5 1.7-3.5 2.3-5.5 3.6c-1 .6-2 1.3-3 1.8-1 .6-1.9 1.1-2.6 1.6-.8.5-1.4.8-1.9 1.1-.2.1-.4.3-.6.1-.1 0-.2-.2-.3-.3-.2.2-.2.1-.2.1z" fill="#e0e0e0"></path><path d="m142.4 367.2c1.5 2.5 3.8 3.9 6.3 2.5 0 0 .1 0 .1-.1h.1c.7-.4 1.1-1.2 1.1-2.4 0-2.4-1.7-5.3-3.8-6.5-1-.6-1.9-.6-2.5-.3 0 0-.1 0-.1.1-.1 0-.2.1-.2.1-2.4 1.4-2.4 4.1-1 6.6z" fill="#232428"></path><path d="m144.6 363.2c-1.4-.8-2.5-.1-2.5 1.4s1.1 3.5 2.5 4.3 2.5.1 2.5-1.4-1.2-3.5-2.5-4.3z" fill="#3e4049"></path><path d="m136.6 367.4c.5-.3 4-2 6.1-4.3l3.6 5.9c-3.5.9-6.4 2.8-6.9 3.1z" fill="#3e4049"></path><path d="m134.2 368.3c0-1.6 1.3-2.9 2.9-2.9.4 0 .7.1 1 .2h.1s.1 0 .1.1c.2.1.3.1.5.2 1.6 1 3 3.3 3 5.2 0 .3 0 .5-.1.7-.2 1.4-1.4 2.4-2.9 2.4-1.6 0-2.9-1.3-2.9-2.9 0-.1 0-.2 0-.3-1-.5-1.7-1.5-1.7-2.7z" fill="#232428"></path><path d="m137.1 366.8c-1.6-1-3-.2-3 1.7s1.3 4.2 3 5.2c1.6 1 3 .2 3-1.7s-1.3-4.3-3-5.2z" fill="#3e4049"></path><path d="m78.1 358.1 245.6-141.8v-191.9l-245.6 141.7z" fill="#ee4922"></path><path d="m78.1 358.1 245.6-141.8v-191.9l-245.6 141.7z" fill="#fff" opacity=".6"></path><path d="m66.8 159.6 11.3 6.5 245.6-141.7 11.3-19.7z" fill="#2f3037"></path><path d="m335 222.8v-218.1l-11.3 19.7v191.9z" fill="#3e4049"></path><path d="m66.8 159.6 11.3 6.5v192l-11.3 19.6z" fill="#3e4049"></path><path d="m78.1 358.1 245.6-141.8 11.3 6.5-268.2 154.9z" fill="#2f3037"></path><path d="m335 4.7-7.6-4.3-268.2 154.8 7.6 4.4z" fill="#3e4049"></path><path d="m59.2 155.2 7.6 4.4v218.1l-7.6-4.4z" fill="#232428"></path><path d="m323.7 24.4-3.8 2.1v187.6l-241.8 139.6v4.4l245.6-141.8z" fill="#232428"></path><path d="m297.3 119.7-50.9 29.4c-.6.3-1 1.1-1 1.7v82.7c0 .6.5.9 1 .6l50.9-29.4c.6-.3 1-1.1 1-1.7v-82.7c0-.7-.4-.9-1-.6z" fill="#3e4049"></path><path d="m302.7 118.1-1.8-1c-.6-.3-1.5-.3-2 0l-50.9 29.3c-.6.3-1 1.1-1 1.7v82.7c0 .6.5 1.4 1 1.7l1.8 1c.6.3 1.5.3 2 0l50.9-29.4c.6-.3 1-1.1 1-1.7v-82.7c0-.5-.5-1.3-1-1.6z" fill="#fafafa"></path><path d="m274.1 162.6c-.4-.2-18.5-10.7-26.8-15.5-.2.3-.3.7-.3 1v82.7c0 .6.5 1.4 1 1.7l1.8 1c.6.3 1.5.3 2 0l22.4-19.4c.1-19.3.2-51.3-.1-51.5z" fill="#e0e0e0"></path><path d="m302.7 119.2-50.9 29.4c-.6.3-1 1.1-1 1.7v82.7c0 .6.5.9 1 .6l50.9-29.4c.6-.3 1-1.1 1-1.7v-82.7c0-.6-.5-.9-1-.6z" fill="#f0f0f0"></path><path d="m253.7 149.7 47.1-27.2c.6-.3 1-.1 1 .6v65.3c0 .6-.5 1.4-1 1.7l-47.1 27.2c-.6.3-1 .1-1-.6v-65.3c0-.6.4-1.4 1-1.7z" fill="#fafafa"></path><path d="m252.7 151.5v13.8c1.5.6 3.5.3 5.7-.9 5-2.9 9-9.8 9-15.5 0-2.6-.9-4.6-2.3-5.6l-11.4 6.6c-.6.1-1 .9-1 1.6z" fill="#ee4922"></path><path d="m293.2 148.3-12.2 29.3-8-6.5c-.7-.6-1.8-.3-2.1.5l-18.1 39.8v5.4c0 .6.5.9 1 .6l7.1-4.1 40-23.1c.6-.3 1-1.1 1-1.7v-31.6l-6.1-8.8c-.8-1-2.1-.8-2.6.2z" fill="#ee4922"></path><path d="m152.5 197.3-50.9 29.4c-.6.3-1 1.1-1 1.7v82.7c0 .6.5.9 1 .6l50.9-29.4c.6-.3 1-1.1 1-1.7v-82.7c0-.7-.4-.9-1-.6z" fill="#3e4049"></path><path d="m157.9 195.7-1.8-1c-.6-.3-1.5-.3-2 0l-50.9 29.3c-.6.3-1 1.1-1 1.7v82.7c0 .6.5 1.4 1 1.7l1.8 1c.6.3 1.5.3 2 0l50.9-29.4c.6-.3 1-1.1 1-1.7v-82.7c0-.5-.5-1.3-1-1.6z" fill="#fafafa"></path><path d="m129.3 240.2c-.4-.2-18.5-10.7-26.8-15.5-.2.3-.3.7-.3 1v82.7c0 .6.5 1.4 1 1.7l1.8 1c.6.3 1.5.3 2 0l22.4-19.4c.1-19.3.2-51.3-.1-51.5z" fill="#e0e0e0"></path><path d="m157.9 196.8-50.9 29.4c-.6.3-1 1.1-1 1.7v82.7c0 .6.5.9 1 .6l50.9-29.4c.6-.3 1-1.1 1-1.7v-82.7c0-.6-.5-.9-1-.6z" fill="#f0f0f0"></path><path d="m108.9 227.3 47.1-27.2c.6-.3 1-.1 1 .6v65.3c0 .6-.5 1.4-1 1.7l-47.1 27.2c-.6.3-1 .1-1-.6v-65.3c0-.6.4-1.4 1-1.7z" fill="#fafafa"></path><path d="m107.9 229v13.8c1.5.6 3.5.3 5.7-.9 5-2.9 9-9.8 9-15.5 0-2.6-.9-4.6-2.3-5.6l-11.4 6.6c-.6.2-1 1-1 1.6z" fill="#ee4922"></path><path d="m148.5 225.9-12.2 29.3-8-6.5c-.7-.6-1.8-.3-2.1.5l-18.1 39.8v5.4c0 .6.5.9 1 .6l7.1-4.1 40-23.1c.6-.3 1-1.1 1-1.7v-31.6l-6.1-8.8c-.8-1-2.2-.9-2.6.2z" fill="#ee4922"></path><path d="m135.4 221.4c-1.5 2.5-3.8 3.9-6.3 2.5 0 0-.1 0-.1-.1 0 0 0 0-.1 0-.7-.4-1.1-1.2-1.1-2.4 0-2.4 1.7-5.3 3.8-6.5 1-.6 1.9-.6 2.5-.3 0 0 .1 0 .1.1.1 0 .2.1.2.1 2.4 1.4 2.4 4.1 1 6.6z" fill="#232428"></path><path d="m133.3 217.4c1.4-.8 2.5-.1 2.5 1.4s-1.1 3.5-2.5 4.3-2.5.1-2.5-1.4 1.1-3.5 2.5-4.3z" fill="#3e4049"></path><path d="m141.2 221.6c-.5-.3-4-2-6.1-4.3l-3.6 5.9c3.5.9 6.4 2.8 6.9 3.1z" fill="#3e4049"></path><path d="m143.6 222.5c0-1.6-1.3-2.9-2.9-2.9-.4 0-.7.1-1 .2 0 0 0 0-.1 0 0 0-.1 0-.1.1-.2.1-.3.1-.5.2-1.6 1-3 3.3-3 5.2 0 .3 0 .5.1.7.2 1.4 1.4 2.4 2.9 2.4 1.6 0 2.9-1.3 2.9-2.9 0-.1 0-.2 0-.3 1-.5 1.7-1.5 1.7-2.7z" fill="#232428"></path><ellipse cx="140.7" cy="224.4" fill="#3e4049" rx="4.2" ry="2.4" transform="matrix(.4999 -.8661 .8661 .4999 -124.0176 234.0952)"></ellipse><path d="m221.8 110.2-50.9 29.4c-.6.3-1 1.1-1 1.7v82.7c0 .6.5.9 1 .6l50.9-29.4c.6-.3 1-1.1 1-1.7v-82.7c0-.6-.5-.9-1-.6z" fill="#3e4049"></path><path d="m227.1 108.6-1.8-1c-.6-.3-1.5-.3-2 0l-50.8 29.4c-.6.3-1 1.1-1 1.7v82.7c0 .6.5 1.4 1 1.7l1.8 1c.6.3 1.5.3 2 0l50.9-29.4c.6-.3 1-1.1 1-1.7v-82.7c-.1-.6-.5-1.4-1.1-1.7z" fill="#fafafa"></path><path d="m198.5 153.2c-.4-.2-18.5-10.7-26.8-15.5-.2.3-.3.7-.3 1v82.7c0 .6.5 1.4 1 1.7l1.8 1c.6.3 1.5.3 2 0l22.4-19.4c.1-19.4.2-51.3-.1-51.5z" fill="#e0e0e0"></path><path d="m227.1 109.8-50.9 29.4c-.6.3-1 1.1-1 1.7v82.7c0 .6.5.9 1 .6l50.9-29.4c.6-.3 1-1.1 1-1.7v-82.7c0-.7-.4-.9-1-.6z" fill="#f0f0f0"></path><path d="m178.1 140.2 47.1-27.2c.6-.3 1-.1 1 .6v65.3c0 .6-.5 1.4-1 1.7l-47.1 27.2c-.6.3-1 .1-1-.6v-65.3c0-.6.5-1.3 1-1.7z" fill="#fafafa"></path><path d="m177.1 142v13.8c1.5.6 3.5.3 5.7-.9 5-2.9 9-9.8 9-15.5 0-2.6-.9-4.6-2.3-5.6l-11.4 6.6c-.5.2-1 .9-1 1.6z" fill="#ee4922"></path><path d="m217.7 138.8-12.2 29.3-8-6.5c-.7-.6-1.8-.3-2.1.5l-18.1 39.8v5.4c0 .6.5.9 1 .6l7.1-4.1 40-23.1c.6-.3 1-1.1 1-1.7v-31.6l-6.1-8.8c-.8-1-2.2-.8-2.6.2z" fill="#ee4922"></path><path d="m204.6 134.3c-1.5 2.5-3.8 3.9-6.3 2.5 0 0-.1 0-.1-.1 0 0 0 0-.1 0-.7-.4-1.1-1.2-1.1-2.4 0-2.4 1.7-5.3 3.8-6.5 1-.6 1.9-.6 2.5-.3 0 0 .1 0 .1.1.1 0 .2.1.2.1 2.5 1.5 2.5 4.2 1 6.6z" fill="#232428"></path><path d="m202.5 130.3c1.4-.8 2.5-.1 2.5 1.4s-1.1 3.5-2.5 4.3-2.5.1-2.5-1.4c0-1.6 1.1-3.5 2.5-4.3z" fill="#3e4049"></path><path d="m210.5 134.5c-.5-.3-4-2-6.1-4.3l-3.6 5.9c3.5.9 6.4 2.8 6.9 3.1z" fill="#3e4049"></path><path d="m212.9 135.4c0-1.6-1.3-2.9-2.9-2.9-.4 0-.7.1-1 .2 0 0 0 0-.1 0 0 0-.1 0-.1.1-.2.1-.3.1-.5.2-1.6 1-3 3.3-3 5.2 0 .3 0 .5.1.7.2 1.4 1.4 2.4 2.9 2.4 1.6 0 2.9-1.3 2.9-2.9 0-.1 0-.2 0-.3 1-.5 1.7-1.5 1.7-2.7z" fill="#232428"></path><path d="m209.9 133.9c1.6-1 3-.2 3 1.7s-1.3 4.2-3 5.2c-1.6 1-3 .2-3-1.7s1.4-4.2 3-5.2z" fill="#3e4049"></path><path d="m381.4 196.4c-1.2-5.2-3.6-15.6-6.1-27-1.3-5.8-2.8-11.5-7.1-12.4 0 0-11.4 4.5-11.4 12.9s9.3 11.6 9.3 11.6 6 16.7 5.9 19" fill="#ffa8a7"></path><path d="m280.2 143.8c-1.5 2.5-3.8 3.9-6.3 2.5 0 0-.1 0-.1-.1 0 0 0 0-.1 0-.7-.4-1.1-1.2-1.1-2.4 0-2.4 1.7-5.3 3.8-6.5 1-.6 1.9-.6 2.5-.3 0 0 .1 0 .1.1.1 0 .2.1.2.1 2.4 1.4 2.4 4.1 1 6.6z" fill="#232428"></path><path d="m278.1 139.8c1.4-.8 2.5-.1 2.5 1.4s-1.1 3.5-2.5 4.3-2.5.1-2.5-1.4c0-1.6 1.1-3.5 2.5-4.3z" fill="#3e4049"></path><path d="m286 144c-.5-.3-4-2-6.1-4.3l-3.6 5.9c3.5.9 6.4 2.8 6.9 3.1z" fill="#3e4049"></path><path d="m343 154.6c-3.9 0-7.8-.3-10.8 1.8-7.6 5.4-17.3 12.6-22 16.6 0 0-13.8-27.9-18.9-31.4-3.3-2.3-5.9-3.3-8.1-3.4-2.3-.1-4.2.6-5.6 2.3-2.1 2.5-1.4 6 3.7 5.2 1.3-.2 2.3-3 2.3-3 1.2.1.4 4.3 1.6 4.6 2.1 2.9 4.5 1.7 5.7 4.8 1.7 4.3 11.8 31.7 13.4 33.8 1.8 2.3 4.1 3.1 8 1.1s23.6-14.5 23.6-14.5z" fill="#ffa8a7"></path><path d="m288.4 144.9c0-1.6-1.3-2.9-2.9-2.9-.4 0-.7.1-1 .2 0 0 0 0-.1 0 0 0-.1 0-.1.1-.2.1-.3.1-.5.2-1.6 1-3 3.3-3 5.2 0 .3 0 .5.1.7.2 1.4 1.4 2.4 2.9 2.4 1.6 0 2.9-1.3 2.9-2.9 0-.1 0-.2 0-.3 1-.5 1.7-1.5 1.7-2.7z" fill="#232428"></path><path d="m285.5 143.4c1.6-1 3-.2 3 1.7s-1.3 4.2-3 5.2c-1.6 1-3 .2-3-1.7s1.3-4.2 3-5.2z" fill="#3e4049"></path><path d="m357.1 331.3h8.1v11.8h-8.1z" fill="#ffa8a7"></path><path d="m343.5 339.6c-.5 1.5-2.9 2.6-4.7 3.9-1.6 1.2-1.8 3.2-1.1 4.3s3.8 1.7 7.1 1.2c3.7-.6 7-2.2 7.7-5.5.9-4.6 1-4.9 2.2-8.1.6-1.7 1.8-3.3 1.5-5s-1.5-3.2-2.8-4c0 0-6.1 13.9-7.9 14.2s-2-1-2-1z" fill="#232428"></path><path d="m343.2 321s1.3 4.6 1.7 6.1-.2 9.2-1 11.3c-.8 2-1 2.1-2.1 3.1 0 0-2.5 2.2.4 2.6 2.3.3 4.5.1 6.5-2.2 1.9-2.2 2.1-8.4 3.4-11 .8-1.6 1.4-2.7 1.6-3.2s-.6-.8-1.4-3.2c-.8-2.3-1.4-7-1.4-7z" fill="#ffa8a7"></path><path d="m370.9 210.8c4.2 11.8.5 32.4-.6 44-1.1 11.3-2.4 24.5-2.4 24.5s3.5 11.9 3.3 21.1c-.2 9.8-5.9 33.3-5.9 33.3s-3.7 2.7-8.3 0c0 0-1.5-19.8-2.8-31-1.4-11.7-1.9-20.2-3.1-27.1-1.5-8.5-2.9-42.2-2.9-42.2l-6.4 35.4s3 6.2 4.8 13.1 5.3 39.4 5.3 39.4-2.5 3.7-8.2 3.1c0 0-16.4-47-18-51.4-2.2-6.1 1.5-46.5 2.8-60z" fill="#3e4049"></path><path d="m356.5 155.1s10.3 1.3 11.7 1.9c-10.8 7.6-2.1 24.4-2.1 24.4l-5.2 14.4c4.5 5 7.1 7.8 10 15-3 3.5-21.7 15.5-42.2 2.3 0 0 .7-12.1 2.4-20.8-3-14.2-3.3-18.6-2.4-21.9 2.4-9.3 7.9-15.3 14.3-15.6z" fill="#ee4922"></path><path d="m356.5 155.1s10.3 1.3 11.7 1.9c-10.8 7.6-2.1 24.4-2.1 24.4l-5.2 14.4c4.5 5 7.1 7.8 10 15-3 3.5-21.7 15.5-42.2 2.3 0 0 .7-12.1 2.4-20.8-3-14.2-3.3-18.6-2.4-21.9 2.4-9.3 7.9-15.3 14.3-15.6z" opacity=".2"></path><path d="m357.1 339.1v-1.2c-.2 1.8-2.6 7.2-5.8 10.2-2.6 2.3-6.1 5-6.9 7.6-.9 2.7 4.1 3.8 7.4 3.4 3.9-.4 6.9-2.7 8.3-4.4 2.1-2.4 2.1-4.1 3.1-5.4s3.2-2.8 3.8-4.4c.3-.8-.1-2.7-.5-4.3-.4-1.4-.8-3-1.3-2.9v.9c-.6.7-2.2 1.3-4.1 1.4-1.1.2-4 0-4-.9z" fill="#232428"></path><path d="m365.2 338.8c-.2-.8-2.4 1.1-4.2 1.2-1.2 0-3-.1-3-1l-.9-1.1c-.2 1.8-2.6 7.2-5.8 10.2-.6.6-1.3 1.1-2 1.7-1.4 1.5-1 2.8 2.2 3.1s6-1.7 8.4-4.6c2.6-3 5.3-9.5 5.3-9.5z" fill="#ffa8a7"></path><path d="m347.6 148.1h1.9c10.3 0 18.6-8.3 18.6-18.6v-1.8c0-8.7-7-15.7-15.7-15.7h-7.6c-8.7 0-15.7 7-15.7 15.7v1.9c0 10.2 8.2 18.5 18.5 18.5z" fill="#232428"></path><path d="m335.5 119.9c-2.1 1.2-4.6 6.4-4.4 17.3.2 9.2 3.2 11.5 4.7 12.1 1.5.7 4.4.3 7.2-.2v5.5s-3.9 4.5-3.6 7c.2 2.5 5.6 3.1 9.2.7 3.6-2.5 6.7-7.3 6.7-7.3l-.1-12.7s1.7 1.6 4.5-.8c2.3-2 3.1-5.4 1.3-7.3-1.8-1.8-5.1-1.3-6.4 1.3 0 0-4.5.2-10.4-3.1-6-3.3-8.3-8.9-8.7-12.5z" fill="#ffa8a7"></path><path d="m341.4 134.9c0 .7.5 1.2 1.1 1.3.6 0 1.2-.5 1.2-1.1 0-.7-.5-1.2-1.1-1.3s-1.2.4-1.2 1.1z" fill="#263238"></path><path d="m341.1 142.7-2.7.9c.2.8 1 1.2 1.7 1 .8-.3 1.2-1.2 1-1.9z" fill="#f28f8f"></path><path d="m331.9 131.3 2.3-1.6c-.4-.7-1.3-.8-1.9-.4-.7.4-.8 1.3-.4 2z" fill="#263238"></path><path d="m332.4 134c0 .7.5 1.2 1.1 1.3.6 0 1.2-.5 1.2-1.1 0-.7-.5-1.2-1.1-1.3-.6 0-1.1.5-1.2 1.1z" fill="#263238"></path><path d="m337.9 133.4-.2 6.9-3.7-1.1z" fill="#f28f8f"></path><path d="m343 149.1c3-.4 9.1-2.1 10-4.5 0 0-.3 1.5-2.1 3.1s-7.9 3.3-7.9 3.3z" fill="#f28f8f"></path><path d="m364 187.3-8.1 11 5-2.5z" fill="#ee4922"></path><path d="m364 187.3-8.1 11 5-2.5z" opacity=".4"></path><path d="m290 150.5c-.9-.6-3-1.2-4.5-1.8s-2.2-.7-2.9-.9c-.7-.1-.8-2.4 1.9-2.2 2.7.3 3.7.4 4-.5z" fill="#ffa8a7"></path><path d="m372 200.4c-.1 1.6-1.7 18-3.7 23.8-.3.8-.9 1.4-1.6 1.7-3.5 1.5-4.5 3.1-6.7 5.1-1.5 1.4-2.7 1.6-2.5 2.1.2.6 1.1 1.6 2.9 1.2.9-.2 2-.8 3.5-1.6 0 0-1.2 2.8-3.8 5.6-3.6 3.8-3.9 6.3 2.8 6.8 4.2.3 7.7-2 11.5-11 1.1-2.6 2-6.6 2.9-10.1 1.4-5.6 3.4-15.6 4.5-20.9.4-2.3.4-4.6-.1-6.9" fill="#ffa8a7"></path><path d="m378.1 155c-6.8 0-12.3-5.5-12.3-12.3v-23.1c6.8 0 12.3 5.5 12.3 12.3z" fill="#232428"></path><path d="m348.3 233.5s-4.6-3.2-9-6.9c0 0 4.4 5.8 7 8l-2.8 25.6z" fill="#232428"></path></svg> 