<?xml version="1.0" encoding="UTF-8"?> <svg xmlns="http://www.w3.org/2000/svg" xmlns:xlink="http://www.w3.org/1999/xlink" viewBox="0 0 467 467"><clipPath id="a"><path d="m173.4 97.5 73.2-42.2c1.3-.8 2.4-.1 2.4 1.4v112.3c0 1.5-1.1 3.4-2.4 4.1l-73.2 42.2c-1.3.8-2.4.1-2.4-1.4v-112.3c.1-1.5 1.1-3.3 2.4-4.1z"></path></clipPath><ellipse cx="252" cy="314.4" fill="#f5f5f5" rx="214.9" ry="122.2"></ellipse><ellipse cx="388.3" cy="339" fill="#e6e6e6" rx="51.4" ry="32.2"></ellipse><path d="m49 245.5s-.6-10.5-5.1-21.6-13.2-22.3-23.2-24.5c-10-2.1-14.2 4.6-12.1 11.2 1.8 5.7 9.2 10.4 14.9 15.4 5.6 5 16.2 16.9 19.1 28.5l5.6.6z" fill="#ee4922"></path><path d="m49 245.5s-.6-10.5-5.1-21.6-13.2-22.3-23.2-24.5c-10-2.1-14.2 4.6-12.1 11.2 1.8 5.7 9.2 10.4 14.9 15.4 5.6 5 16.2 16.9 19.1 28.5l5.6.6z" opacity=".15"></path><path d="m45.1 250.7c-.3 0-.6-.3-.6-.6-1-29.1-29.5-45.4-29.8-45.6s-.4-.6-.2-.9.6-.4.9-.2 29.4 16.8 30.5 46.6c-.1.4-.4.7-.8.7z" fill="#fff"></path><path d="m53.5 296.8s-5.8 3.7-14.9 2.1c-2.9-.5-5.8-1.6-7.8-3.8-2.3-2.4-2.7-4.9-3.4-8.1-.3-1.3-.6-2.7-1.4-3.8-1.9-2.7-5.8-2.6-9.1-3.3-4.6-1-8.8-4.3-10.2-8.8-1.3-4.5.8-10 5.2-11.8-1.8-1.1-3.6-2.3-5.3-3.4-1.6-1-3.3-2.1-4.6-3.5s-2.3-3.2-2.3-5.2c0-2.8 2.1-5.4 4.7-6.5 2.6-1.2 5.6-1.2 8.4-.9s5.7 1 8.4 2c.8.3 1.5.6 2.3.5 1.1-.1 2-.7 2.9-1.3 6.1-4 16.1-3.7 19.4 3.9.5 1.1.8 2.3 1.3 3.4 1.9 4.1 7.3 2.9 10.7 4.8 2.2 1.2 3.6 3.7 4 6.3.7 4.1-.4 8.7-1.2 12.7-.7 3.9-1.7 7.7-2.8 11.5-.9 3.1-1.9 6.2-2.9 9.3-.3.7-.8 3.5-1.4 3.9z" fill="#ee4922"></path><path d="m57.2 287.4c-3.1-8.9-8.5-16.2-14.6-22-.1-.1-.2-.3-.3-.3-1.9-1.8-3.9-3.5-5.9-5-1.4-8.5 2-15.9 2-15.9.1-.3 0-.7-.3-.8s-.7 0-.8.3-3.3 7.1-2.3 15.4c-13.4-9.8-27.3-13.7-27.5-13.8-.3-.1-.7.1-.8.4s.1.7.4.8 18 5.1 32.7 18c-9-1.6-19.7 2.8-20.2 3-.3.1-.5.5-.3.8.1.2.3.4.6.4h.2c.1-.1 12.7-5.2 21.6-2.4 6 5.7 11.3 12.9 14.4 21.6.1.3.3.4.6.4h.2c.2-.2.4-.6.3-.9z" fill="#fff"></path><path d="m53.7 295.9c0 2.6 1.9 5.8 4.4 7.2l121.9 70.4c2.4 1.4 6.3 1.4 8.7 0l166.8-96.3c2.4-1.4 4.4-4.6 4.4-7.2s-1.9-5.8-4.4-7.2l-121.9-70.4c-2.4-1.4-6.3-1.4-8.7 0l-166.9 96.3c-2.4 1.4-4.3 4.6-4.3 7.2z" fill="#2f3037"></path><path d="m184.3 365.1v9.4c-1.6 0-3.2-.3-4.4-1l-121.9-70.4c-2.4-1.4-4.4-4.6-4.4-7.2 0-2.4 1.7-5.4 3.9-6.9-1.9 1.4-1.8 3.4.4 4.7l122.1 70.4c1.2.7 2.8 1 4.3 1z" fill="#232428"></path><path d="m49.6 288.8c-2.3-1.3-4.1-4.6-4.1-7.4v-145.5c0-2.8 1.9-6.1 4.4-7.5l166.8-96.3c2.4-1.4 6.2-1.5 8.4-.2 2.3 1.3 4.1 4.6 4.1 7.4v145.5c0 2.8-1.9 6.1-4.4 7.5l-166.8 96.4c-2.4 1.4-6.1 1.4-8.4.1z" fill="#3e4049"></path><path d="m57.5 288.9c-2.4 1.1-5.8 1.1-7.9-.1-2.3-1.3-4.1-4.6-4.1-7.4v-145.5c0-1.4.5-2.9 1.3-4.3l8.2 4.7c-.8 1.4-1.3 2.9-1.3 4.3v145.5c0 2.6 1.7 3.8 3.8 2.8z" fill="#232428"></path><path d="m53.7 140.6v145.5c0 2.8 1.9 3.9 4.4 2.5l166.8-96.3c2.4-1.4 4.4-4.8 4.4-7.5v-145.5c0-2.8-1.9-3.9-4.4-2.5l-166.9 96.3c-2.4 1.4-4.3 4.8-4.3 7.5z" fill="#2f3037"></path><path d="m58 293.7 122 70.4c2.4 1.4 6.3 1.4 8.7 0l166.8-96.3c2.4-1.4 2.4-3.6 0-5l-121.9-70.4c-2.4-1.4-6.3-1.4-8.7 0l-166.9 96.3c-2.4 1.4-2.4 3.6 0 5z" fill="#3e4049"></path><path d="m60.4 141.2 160.8-92.8c1.4-.8 2.6-.2 2.6 1.5v126c0 1.7-1.2 3.7-2.6 4.5l-160.8 92.8c-1.4.8-2.6.2-2.6-1.5v-126c0-1.7 1.1-3.7 2.6-4.5z" fill="#fafafa"></path><path d="m72.2 289.9 154.9-89.4c1.2-.7 3.1-.7 4.4 0l7.9 4.6c1.2.7 1.2 1.8 0 2.5l-155 89.4c-1.2.7-3.2.7-4.4 0l-7.9-4.6c-1.1-.7-1.1-1.8.1-2.5z" fill="#2f3037"></path><path d="m92.6 301.7 154.9-89.4c1.2-.7 3.1-.7 4.4 0l48.7 28.1c1.2.7 1.2 1.8 0 2.5l-154.7 89.3c-1.2.7-3.2.7-4.4 0l-48.9-28c-1.2-.7-1.2-1.8 0-2.5z" fill="#232428"></path><path d="m231.4 252.5 4.8-2.8c.2-.1.2-.3 0-.4l-5.6-3.2c-.2-.1-.6-.1-.8 0l-4.8 2.8c-.2.1-.2.3 0 .4l5.6 3.2c.3.1.6.1.8 0zm-9.5-11.1-4.8 2.8c-.2.1-.2.3 0 .4l5.6 3.2c.2.1.6.1.8 0l4.8-2.8c.2-.1.2-.3 0-.4l-5.6-3.2c-.3-.1-.6-.1-.8 0zm-15.7 9-8.2 4.7c-.2.1-.2.3 0 .4l5.6 3.2c.2.1.6.1.8 0l8.2-4.7c.2-.1.2-.3 0-.4l-5.6-3.2c-.3-.1-.6-.1-.8 0zm8.6-4.9-4.8 2.8c-.2.1-.2.3 0 .4l5.6 3.2c.2.1.6.1.8 0l4.8-2.8c.2-.1.2-.3 0-.4l-5.6-3.2c-.3-.1-.6-.1-.8 0zm-19 11-4.8 2.8c-.2.1-.2.3 0 .4l5.6 3.2c.2.1.6.1.8 0l4.8-2.8c.2-.1.2-.3 0-.4l-5.6-3.2c-.3-.1-.6-.1-.8 0zm-7.1 4.1-4.8 2.8c-.2.1-.2.3 0 .4l5.6 3.2c.2.1.6.1.8 0l4.8-2.8c.2-.1.2-.3 0-.4l-5.6-3.2c-.3-.1-.6-.2-.8 0zm22 13.1 4.8-2.8c.2-.1.2-.3 0-.4l-5.6-3.2c-.2-.1-.6-.1-.8 0l-4.8 2.8c-.2.1-.2.3 0 .4l5.6 3.2c.3.1.6.1.8 0zm-7.1 4.1 4.8-2.8c.2-.1.2-.3 0-.4l-5.6-3.2c-.2-.1-.6-.1-.8 0l-4.8 2.8c-.2.1-.2.3 0 .4l5.6 3.2c.3.1.6.1.8 0zm-7.1 4.1 4.8-2.8c.2-.1.2-.3 0-.4l-5.6-3.2c-.2-.1-.6-.1-.8 0l-4.8 2.8c-.2.1-.2.3 0 .4l5.6 3.2c.3.1.6.1.8 0zm-7 4.1 4.8-2.8c.2-.1.2-.3 0-.4l-5.6-3.2c-.2-.1-.6-.1-.8 0l-4.8 2.8c-.2.1-.2.3 0 .4l5.6 3.2c.2.1.6.1.8 0zm34.8-29.4 4.8-2.8c.2-.1.2-.3 0-.4l-5.6-3.2c-.2-.1-.6-.1-.8 0l-4.8 2.8c-.2.1-.2.3 0 .4l5.6 3.2c.3.1.6.1.8 0zm-6.5 13 10.8-6.2c.2-.1.2-.3 0-.4l-13.6-7.9c-.2-.1-.6-.1-.8 0l-5.6 3.2c-.2.1-.2.3 0 .4l7.2 4.2c.2.1.2.3 0 .4l-4.5 2.6c-.2.1-.2.3 0 .4l5.6 3.2c.4.3.7.3.9.1zm-36.2-4.9-4.8 2.8c-.2.1-.2.3 0 .4l5.6 3.2c.2.1.6.1.8 0l4.8-2.8c.2-.1.2-.3 0-.4l-5.6-3.2c-.3-.2-.6-.2-.8 0zm-7.1 4-4.8 2.8c-.2.1-.2.3 0 .4l5.6 3.2c.2.1.6.1.8 0l4.8-2.8c.2-.1.2-.3 0-.4l-5.6-3.2c-.3-.1-.6-.1-.8 0zm-35.4 45.9c.2.1.6.1.8 0l4.8-2.8c.2-.1.2-.3 0-.4l-5.6-3.2c-.2-.1-.6-.1-.8 0l-4.8 2.8c-.2.1-.2.3 0 .4zm-21.3-13.1-4.8 2.8c-.2.1-.2.3 0 .4l5.6 3.2c.2.1.6.1.8 0l4.8-2.8c.2-.1.2-.3 0-.4l-5.6-3.2c-.2-.1-.6-.1-.8 0zm11.4 9.6c.2.1.6.1.8 0l4.8-2.8c.2-.1.2-.3 0-.4l-5.6-3.2c-.2-.1-.6-.1-.8 0l-4.8 2.8c-.2.1-.2.3 0 .4zm22.4 6 4.8-2.8c.2-.1.2-.3 0-.4l-5.6-3.2c-.2-.1-.6-.1-.8 0l-4.8 2.8c-.2.1-.2.3 0 .4l5.6 3.2c.2.1.6.1.8 0zm-7.9 4.1c.2.1.6.1.8 0l4.8-2.8c.2-.1.2-.3 0-.4l-5.6-3.2c-.2-.1-.6-.1-.8 0l-4.8 2.8c-.2.1-.2.3 0 .4zm-18.8-23.8-4.8 2.8c-.2.1-.2.3 0 .4l5.6 3.2c.2.1.6.1.8 0l4.8-2.8c.2-.1.2-.3 0-.4l-5.6-3.2c-.3-.1-.6-.1-.8 0zm35.4-20.5-4.8 2.8c-.2.1-.2.3 0 .4l5.6 3.2c.2.1.6.1.8 0l4.8-2.8c.2-.1.2-.3 0-.4l-5.6-3.2c-.2-.1-.6-.1-.8 0zm-28.3 16.4-4.8 2.8c-.2.1-.2.3 0 .4l5.6 3.2c.2.1.6.1.8 0l4.8-2.8c.2-.1.2-.3 0-.4l-5.6-3.2c-.3-.1-.6-.1-.8 0zm35.4-20.5-4.8 2.8c-.2.1-.2.3 0 .4l5.6 3.2c.2.1.6.1.8 0l4.8-2.8c.2-.1.2-.3 0-.4l-5.6-3.2c-.2-.1-.6-.1-.8 0zm-14.2 8.2-4.8 2.8c-.2.1-.2.3 0 .4l5.6 3.2c.2.1.6.1.8 0l4.8-2.8c.2-.1.2-.3 0-.4l-5.6-3.2c-.2-.1-.6-.1-.8 0zm-7.1 4.1-4.8 2.8c-.2.1-.2.3 0 .4l5.6 3.2c.2.1.6.1.8 0l4.8-2.8c.2-.1.2-.3 0-.4l-5.6-3.2c-.2-.1-.5-.1-.8 0zm-7 4.1-4.8 2.8c-.2.1-.2.3 0 .4l5.6 3.2c.2.1.6.1.8 0l4.8-2.8c.2-.1.2-.3 0-.4l-5.6-3.2c-.3-.1-.6-.1-.8 0zm36.2 5 4.8-2.8c.2-.1.2-.3 0-.4l-5.6-3.2c-.2-.1-.6-.1-.8 0l-4.8 2.8c-.2.1-.2.3 0 .4l5.6 3.2c.2.1.6.1.8 0zm62.2-61.8-4.8 2.8c-.2.1-.2.3 0 .4l5.6 3.2c.2.1.6.1.8 0l4.8-2.8c.2-.1.2-.3 0-.4l-5.6-3.2c-.2-.2-.6-.2-.8 0zm-8.6 4.9-4.8 2.8c-.2.1-.2.3 0 .4l5.6 3.2c.2.1.6.1.8 0l4.8-2.8c.2-.1.2-.3 0-.4l-5.6-3.2c-.2-.1-.5-.1-.8 0zm15.7-9-4.8 2.8c-.2.1-.2.3 0 .4l5.6 3.2c.2.1.6.1.8 0l4.8-2.8c.2-.1.2-.3 0-.4l-5.6-3.2c-.2-.1-.6-.2-.8 0zm-36.7 37.8 4.8-2.8c.2-.1.2-.3 0-.4l-5.6-3.2c-.2-.1-.6-.1-.8 0l-4.8 2.8c-.2.1-.2.3 0 .4l5.6 3.2c.3.1.6.1.8 0zm44.6-41.9c-.2-.1-.6-.1-.8 0l-4.8 2.8c-.2.1-.2.3 0 .4l5.6 3.2c.2.1.6.1.8 0l4.8-2.8c.2-.1.2-.3 0-.4zm-70.1 65.9 4.8-2.8c.2-.1.2-.3 0-.4l-5.6-3.2c-.2-.1-.6-.1-.8 0l-4.8 2.8c-.2.1-.2.3 0 .4l5.6 3.2c.2.1.6.1.8 0zm86.9-50.2 4.8-2.8c.2-.1.2-.3 0-.4l-5.6-3.2c-.2-.1-.6-.1-.8 0l-4.8 2.8c-.2.1-.2.3 0 .4l5.6 3.2c.2.1.6.1.8 0zm-15.1-.5 4.8-2.8c.2-.1.2-.3 0-.4l-5.6-3.2c-.2-.1-.6-.1-.8 0l-4.8 2.8c-.2.1-.2.3 0 .4l5.6 3.2c.2.1.6.1.8 0zm6.3-10.6c-.2-.1-.6-.1-.8 0l-4.8 2.8c-.2.1-.2.3 0 .4l5.6 3.2c.2.1.6.1.8 0l4.8-2.8c.2-.1.2-.3 0-.4zm1.5-.8 13.6 7.9c.2.1.6.1.8 0l4.8-2.8c.2-.1.2-.3 0-.4l-13.6-7.9c-.2-.1-.6-.1-.8 0l-4.8 2.8c-.3 0-.3.2 0 .4zm-16.5 9-4.8 2.8c-.2.1-.2.3 0 .4l5.6 3.2c.2.1.6.1.8 0l4.8-2.8c.2-.1.2-.3 0-.4l-5.6-3.2c-.2-.1-.6-.1-.8 0zm-53.3 30.8-4.8 2.8c-.2.1-.2.3 0 .4l5.6 3.2c.2.1.6.1.8 0l4.8-2.8c.2-.1.2-.3 0-.4l-5.6-3.2c-.3-.1-.6-.1-.8 0zm69.2-23.8c.2.1.6.1.8 0l4.8-2.8c.2-.1.2-.3 0-.4l-5.6-3.2c-.2-.1-.6-.1-.8 0l-4.8 2.8c-.2.1-.2.3 0 .4zm-62.1 19.7-4.8 2.8c-.2.1-.2.3 0 .4l5.6 3.2c.2.1.6.1.8 0l4.8-2.8c.2-.1.2-.3 0-.4l-5.6-3.2c-.3-.1-.6-.1-.8 0zm-53.1 46.8c.2.1.6.1.8 0l4.8-2.8c.2-.1.2-.3 0-.4l-5.6-3.2c-.2-.1-.6-.1-.8 0l-4.8 2.8c-.2.1-.2.3 0 .4zm-10.7-10-4.8 2.8c-.2.1-.2.3 0 .4l5.6 3.2c.2.1.6.1.8 0l4.8-2.8c.2-.1.2-.3 0-.4l-5.6-3.2c-.2-.1-.6-.1-.8 0zm18.5 6 4.8-2.8c.2-.1.2-.3 0-.4l-5.6-3.2c-.2-.1-.6-.1-.8 0l-4.8 2.8c-.2.1-.2.3 0 .4l5.6 3.2c.3.1.6.1.8 0zm7.1-4.1 4.8-2.8c.2-.1.2-.3 0-.4l-5.6-3.2c-.2-.1-.6-.1-.8 0l-4.8 2.8c-.2.1-.2.3 0 .4l5.6 3.2c.3.1.6.1.8 0zm7.1-4.1 4.8-2.8c.2-.1.2-.3 0-.4l-5.6-3.2c-.2-.1-.6-.1-.8 0l-4.8 2.8c-.2.1-.2.3 0 .4l5.6 3.2c.2.1.6.1.8 0zm-25.6-1.9-4.8 2.8c-.2.1-.2.3 0 .4l5.6 3.2c.2.1.6.1.8 0l4.8-2.8c.2-.1.2-.3 0-.4l-5.6-3.2c-.3-.1-.6-.1-.8 0zm7.1-4.1-4.8 2.8c-.2.1-.2.3 0 .4l5.6 3.2c.2.1.6.1.8 0l4.8-2.8c.2-.1.2-.3 0-.4l-5.6-3.2c-.3-.1-.6-.1-.8 0zm28.3-16.3-4.8 2.8c-.2.1-.2.3 0 .4l5.6 3.2c.2.1.6.1.8 0l4.8-2.8c.2-.1.2-.3 0-.4l-5.6-3.2c-.2-.2-.6-.2-.8 0zm-7.1 4-4.8 2.8c-.2.1-.2.3 0 .4l5.6 3.2c.2.1.6.1.8 0l4.8-2.8c.2-.1.2-.3 0-.4l-5.6-3.2c-.2-.1-.6-.1-.8 0zm14.2-8.1-4.8 2.8c-.2.1-.2.3 0 .4l5.6 3.2c.2.1.6.1.8 0l4.8-2.8c.2-.1.2-.3 0-.4l-5.6-3.2c-.2-.1-.6-.2-.8 0zm-28.3 16.3-4.8 2.8c-.2.1-.2.3 0 .4l5.6 3.2c.2.1.6.1.8 0l4.8-2.8c.2-.1.2-.3 0-.4l-5.6-3.2c-.3-.1-.6-.1-.8 0zm7.1-4.1-4.8 2.8c-.2.1-.2.3 0 .4l5.6 3.2c.2.1.6.1.8 0l4.8-2.8c.2-.1.2-.3 0-.4l-5.6-3.2c-.3-.1-.6-.1-.8 0zm-5.2 28.9 4.8-2.8c.2-.1.2-.3 0-.4l-5.6-3.2c-.2-.1-.6-.1-.8 0l-4.8 2.8c-.2.1-.2.3 0 .4l5.6 3.2c.2.1.6.1.8 0zm-41.6-4.2-5.6-3.2c-.2-.1-.6-.1-.8 0l-4.8 2.8c-.2.1-.2.3 0 .4l5.6 3.2c.2.1.6.1.8 0l4.8-2.8c.2 0 .2-.2 0-.4zm10.6 3.1-5.6-3.2c-.2-.1-.6-.1-.8 0l-7.5 4.3c-.2.1-.2.3 0 .4l5.6 3.2c.2.1.6.1.8 0l7.5-4.3c.2 0 .2-.2 0-.4zm-19.2-9.3-5.6-3.2c-.2-.1-.6-.1-.8 0l-6 3.4c-.2.1-.2.3 0 .4l5.6 3.2c.2.1.6.1.8 0l6-3.4c.2-.1.2-.3 0-.4zm4.6-2.7c.2.1.6.1.8 0l4.8-2.8c.2-.1.2-.3 0-.4l-5.6-3.2c-.2-.1-.6-.1-.8 0l-4.8 2.8c-.2.1-.2.3 0 .4zm24.5 15.6-5.6-3.2c-.2-.1-.6-.1-.8 0l-9.3 5.4c-.2.1-.2.3 0 .4l5.6 3.2c.2.1.6.1.8 0l9.3-5.4c.2-.1.2-.3 0-.4zm4.6 6.6-5.6-3.2c-.2-.1-.6-.1-.8 0l-6 3.4c-.2.1-.2.3 0 .4l5.6 3.2c.2.1.6.1.8 0l6-3.4c.3-.1.3-.3 0-.4zm23.6-52.6c.2.1.6.1.8 0l4.8-2.8c.2-.1.2-.3 0-.4l-5.6-3.2c-.2-.1-.6-.1-.8 0l-4.8 2.8c-.2.1-.2.3 0 .4zm-14.2 8.2c.2.1.6.1.8 0l4.8-2.8c.2-.1.2-.3 0-.4l-5.6-3.2c-.2-.1-.6-.1-.8 0l-4.8 2.8c-.2.1-.2.3 0 .4zm-31.4 18.1c.2.1.6.1.8 0l4.8-2.8c.2-.1.2-.3 0-.4l-5.6-3.2c-.2-.1-.6-.1-.8 0l-4.8 2.8c-.2.1-.2.3 0 .4zm38.5-22.2c.2.1.6.1.8 0l4.8-2.8c.2-.1.2-.3 0-.4l-5.6-3.2c-.2-.1-.6-.1-.8 0l-4.8 2.8c-.2.1-.2.3 0 .4zm-14.2 8.2c.2.1.6.1.8 0l4.8-2.8c.2-.1.2-.3 0-.4l-5.6-3.2c-.2-.1-.6-.1-.8 0l-4.8 2.8c-.2.1-.2.3 0 .4zm1.6 40.8c-.2-.1-.6-.1-.8 0l-7.5 4.3c-.2.1-.2.3 0 .4l5.6 3.2c.2.1.6.1.8 0l7.5-4.3c.2-.1.2-.3 0-.4zm-11.8-34.9c.2.1.6.1.8 0l4.8-2.8c.2-.1.2-.3 0-.4l-5.6-3.2c-.2-.1-.6-.1-.8 0l-4.8 2.8c-.2.1-.2.3 0 .4zm-7.1 4c.2.1.6.1.8 0l4.8-2.8c.2-.1.2-.3 0-.4l-5.6-3.2c-.2-.1-.6-.1-.8 0l-4.8 2.8c-.2.1-.2.3 0 .4zm150.2-44.9c-.2-.1-.6-.1-.8 0l-11.9 6.9c-.2.1-.2.3 0 .4l5.6 3.2c.2.1.6.1.8 0l11.9-6.9c.2-.1.2-.3 0-.4zm-15.6 9c-.2-.1-.6-.1-.8 0l-4.8 2.8c-.2.1-.2.3 0 .4l5.6 3.2c.2.1.6.1.8 0l4.8-2.8c.2-.1.2-.3 0-.4zm-96 53.1 4.8-2.8c.2-.1.2-.3 0-.4l-5.6-3.2c-.2-.1-.6-.1-.8 0l-4.8 2.8c-.2.1-.2.3 0 .4l5.6 3.2c.2.1.6.1.8 0zm81.8-44.9c-.2-.1-.6-.1-.8 0l-4.8 2.8c-.2.1-.2.3 0 .4l5.6 3.2c.2.1.6.1.8 0l4.8-2.8c.2-.1.2-.3 0-.4zm36.9-21.3c-.2-.1-.6-.1-.8 0l-4.8 2.8c-.2.1-.2.3 0 .4l5.6 3.2c.2.1.6.1.8 0l4.8-2.8c.2-.1.2-.3 0-.4zm12.7-.9-13.6-7.9c-.2-.1-.6-.1-.8 0l-4.8 2.8c-.2.1-.2.3 0 .4l13.6 7.9c.2.1.6.1.8 0l4.8-2.8c.2 0 .2-.2 0-.4zm-76.1 37.5c-.2-.1-.6-.1-.8 0l-6 3.4c-.2.1-.2.3 0 .4l5.6 3.2c.2.1.6.1.8 0l6-3.4c.2-.1.2-.3 0-.4zm17.9-10.3c-.2-.1-.6-.1-.8 0l-7.5 4.3c-.2.1-.2.3 0 .4l5.6 3.2c.2.1.6.1.8 0l7.5-4.3c.2-.1.2-.3 0-.4zm-34.3 19.8c-.2-.1-.6-.1-.8 0l-39.9 23c-.2.1-.2.3 0 .4l5.6 3.2c.2.1.6.1.8 0l39.9-23c.2-.1.2-.3 0-.4zm-42.2 24.3c-.2-.1-.6-.1-.8 0l-6 3.4c-.2.1-.2.3 0 .4l5.6 3.2c.2.1.6.1.8 0l6-3.4c.2-.1.2-.3 0-.4zm50.4-29.1c-.2-.1-.6-.1-.8 0l-6 3.4c-.2.1-.2.3 0 .4l5.6 3.2c.2.1.6.1.8 0l6-3.4c.2-.1.2-.3 0-.4zm-58.6 33.8c-.2-.1-.6-.1-.8 0l-6 3.4c-.2.1-.2.3 0 .4l5.6 3.2c.2.1.6.1.8 0l6-3.4c.2-.1.2-.3 0-.4zm75-43.2c-.2-.1-.6-.1-.8 0l-6 3.4c-.2.1-.2.3 0 .4l5.6 3.2c.2.1.6.1.8 0l6-3.4c.2-.1.2-.3 0-.4zm25.4-14.7c-.2-.1-.6-.1-.8 0l-4.8 2.8c-.2.1-.2.3 0 .4l5.6 3.2c.2.1.6.1.8 0l4.8-2.8c.2-.1.2-.3 0-.4zm15.5-11.3 4.8-2.8c.2-.1.2-.3 0-.4l-5.6-3.2c-.2-.1-.6-.1-.8 0l-4.8 2.8c-.2.1-.2.3 0 .4l5.6 3.2c.2.1.6.2.8 0zm-31.7-.2 4.8-2.8c.2-.1.2-.3 0-.4l-5.6-3.2c-.2-.1-.6-.1-.8 0l-4.8 2.8c-.2.1-.2.3 0 .4l5.6 3.2c.3.1.6.2.8 0zm-16 27.8 14.2-8.2c.2-.1.2-.3 0-.4l-5.6-3.2c-.2-.1-.6-.1-.8 0l-14.2 8.2c-.2.1-.2.3 0 .4l5.6 3.2c.2.1.5.1.8 0zm39.8-23.5c.2.1.6.1.8 0l4.8-2.8c.2-.1.2-.3 0-.4l-5.6-3.2c-.2-.1-.6-.1-.8 0l-4.8 2.8c-.2.1-.2.3 0 .4zm-7.2-4.6 4.8-2.8c.2-.1.2-.3 0-.4l-5.6-3.2c-.2-.1-.6-.1-.8 0l-4.8 2.8c-.2.1-.2.3 0 .4l5.6 3.2c.2.1.6.1.8 0zm-39.7 32.2 4.8-2.8c.2-.1.2-.3 0-.4l-5.6-3.2c-.2-.1-.6-.1-.8 0l-4.8 2.8c-.2.1-.2.3 0 .4l5.6 3.2c.2.1.6.1.8 0zm31.3-18.5c.2.1.6.1.8 0l4.8-2.8c.2-.1.2-.3 0-.4l-5.6-3.2c-.2-.1-.6-.1-.8 0l-4.8 2.8c-.2.1-.2.3 0 .4zm-66.8 38.9 4.8-2.8c.2-.1.2-.3 0-.4l-5.6-3.2c-.2-.1-.6-.1-.8 0l-4.8 2.8c-.2.1-.2.3 0 .4l5.6 3.2c.3.2.6.2.8 0zm7.1-4 4.8-2.8c.2-.1.2-.3 0-.4l-5.6-3.2c-.2-.1-.6-.1-.8 0l-4.8 2.8c-.2.1-.2.3 0 .4l5.6 3.2c.3.1.6.1.8 0zm-14.1 8.1 4.8-2.8c.2-.1.2-.3 0-.4l-5.6-3.2c-.2-.1-.6-.1-.8 0l-4.8 2.8c-.2.1-.2.3 0 .4l5.6 3.2c.2.2.5.2.8 0zm28.3-16.3 4.8-2.8c.2-.1.2-.3 0-.4l-5.6-3.2c-.2-.1-.6-.1-.8 0l-4.8 2.8c-.2.1-.2.3 0 .4l5.6 3.2c.2.1.6.1.8 0zm-7.1 4.1 4.8-2.8c.2-.1.2-.3 0-.4l-5.6-3.2c-.2-.1-.6-.1-.8 0l-4.8 2.8c-.2.1-.2.3 0 .4l5.6 3.2c.3.1.6.1.8 0zm14.2-8.2 4.8-2.8c.2-.1.2-.3 0-.4l-5.6-3.2c-.2-.1-.6-.1-.8 0l-4.8 2.8c-.2.1-.2.3 0 .4l5.6 3.2c.2.1.6.1.8 0zm32.4-60.5c.2.1.6.1.8 0l4.8-2.8c.2-.1.2-.3 0-.4l-1.5-.9c-.2-.1-.6-.1-.8 0l-4.8 2.8c-.2.1-.2.3 0 .4zm-34.9 22.5c.2.1.6.1.8 0l4.8-2.8c.2-.1.2-.3 0-.4l-5.6-3.2c-.2-.1-.6-.1-.8 0l-4.8 2.8c-.2.1-.2.3 0 .4zm14.2-8.2c.2.1.6.1.8 0l4.8-2.8c.2-.1.2-.3 0-.4l-5.6-3.2c-.2-.1-.6-.1-.8 0l-4.8 2.8c-.2.1-.2.3 0 .4zm-22.8 13.2c.2.1.6.1.8 0l4.8-2.8c.2-.1.2-.3 0-.4l-5.6-3.2c-.2-.1-.6-.1-.8 0l-4.8 2.8c-.2.1-.2.3 0 .4zm15.7-9.1c.2.1.6.1.8 0l4.8-2.8c.2-.1.2-.3 0-.4l-5.6-3.2c-.2-.1-.6-.1-.8 0l-4.8 2.8c-.2.1-.2.3 0 .4zm-29.9 17.2c.2.1.6.1.8 0l4.8-2.8c.2-.1.2-.3 0-.4l-5.6-3.2c-.2-.1-.6-.1-.8 0l-4.8 2.8c-.2.1-.2.3 0 .4zm7.1-4c.2.1.6.1.8 0l4.8-2.8c.2-.1.2-.3 0-.4l-5.6-3.2c-.2-.1-.6-.1-.8 0l-4.8 2.8c-.2.1-.2.3 0 .4zm36.4-23.5c.2.1.6.1.8 0l4.8-2.8c.2-.1.2-.3 0-.4l-1.5-.9c-.2-.1-.6-.1-.8 0l-4.8 2.8c-.2.1-.2.3 0 .4zm21.3-12.2c.2.1.6.1.8 0l4.8-2.8c.2-.1.2-.3 0-.4l-1.5-.9c-.2-.1-.6-.1-.8 0l-4.8 2.8c-.2.1-.2.3 0 .4zm11.8 6.8c.2.1.6.1.8 0l4.8-2.8c.2-.1.2-.3 0-.4l-5.6-3.2c-.2-.1-.6-.1-.8 0l-4.8 2.8c-.2.1-.2.3 0 .4zm17.7 17.9 4.8-2.8c.2-.1.2-.3 0-.4l-5.6-3.2c-.2-.1-.6-.1-.8 0l-4.8 2.8c-.2.1-.2.3 0 .4l5.6 3.2c.2.2.6.2.8 0zm-43.7-16.6c.2.1.6.1.8 0l4.8-2.8c.2-.1.2-.3 0-.4l-1.5-.9c-.2-.1-.6-.1-.8 0l-4.8 2.8c-.2.1-.2.3 0 .4zm-57.7 35.7c.2.1.6.1.8 0l4.8-2.8c.2-.1.2-.3 0-.4l-5.6-3.2c-.2-.1-.6-.1-.8 0l-4.8 2.8c-.2.1-.2.3 0 .4z" fill="#3e4049"></path><path d="m207.3 306.2 47.8-27.6c1.4-.8 3.8-.8 5.2 0l27.4 15.8c1.4.8 1.4 2.2 0 3l-47.7 27.6c-1.4.8-3.8.8-5.2 0l-27.4-15.8c-1.5-.8-1.5-2.2-.1-3z" fill="#232428"></path><path d="m217.8 62.7v7.3l-108.9 62.9c-.8.4-1.4.1-1.4-.8l.1-2.6s-2-.7-2-.6l-32.6 18.8c-.8.4-1.4 1.5-1.4 2.4v2.8c0 .9-.6 1.9-1.4 2.4l-3.8 2.2v-7.3c0-.9.6-1.9 1.4-2.4l148.6-85.8c.8-.5 1.4-.1 1.4.7z" fill="#ee4922"></path><path d="m217.8 172.2c0 .9-.6 1.9-1.4 2.4l-148.5 85.7c-.8.4-1.4.1-1.4-.8v-102.1l3.8-2.2c.8-.4 2-7.1 2.7-7.5l32.6-18.8c.8-.4 2.5 4.5 3.3 4l108.9-62.9v8.9z" fill="#ebebeb"></path><path d="m73 185.4 65.3-37.7c.8-.4 1.4-.1 1.4.8v64.1c0 .9-.6 1.9-1.4 2.4l-65.3 37.7c-.8.4-1.4.1-1.4-.8v-64.1c0-.9.6-2 1.4-2.4z" fill="#fafafa"></path><path d="m73 168.4 138.3-79.9c.8-.4 1.4-.1 1.4.8v9.6c0 .9-.6 1.9-1.4 2.4l-138.3 79.9c-.8.4-1.4.1-1.4-.8v-9.6c0-.9.6-1.9 1.4-2.4z" fill="#3e4049"></path><path d="m161.4 125v2.5c0 .5.4.7.8.5l40.2-23.2v-4.4l-40.2 23.2c-.4.3-.8.9-.8 1.4z" fill="#fafafa"></path><path d="m206.7 97.9c.5-.3.8 0 .8.5v2.5c0 .5-.4 1.2-.8 1.4l-4.3 2.5v-4.4z" fill="#27debf"></path><path d="m206.4 101.4-.5-.1c0-.2.1-.4.1-.6 0-.5-.2-.9-.4-1s-.5-.1-.7 0c-.5.3-1 1.2-1 2 0 .5.2.9.4 1 .1.1.2.1.3.1s.3 0 .4-.1c.3-.2.6-.6.8-1l.5.2h.1c.1 0 .1 0 .2-.1 0-.3-.1-.4-.2-.4zm-1.5.9c-.1.1-.2.1-.3 0-.2-.1-.3-.4-.3-.7 0-.7.4-1.4.8-1.7.1 0 .2-.1.2-.1h.1c.2.1.3.4.3.7 0 .8-.4 1.6-.8 1.8z" fill="#fafafa"></path><path d="m217.8 70v8.9l-151.3 87.4v-8.9l2.8-1.6c.8-.4 1-1.1 1.4-2.4l1-3.3c.3-1.1.6-1.9 1.4-2.4l32.6-18.8c.8-.4 1.3-.5 1.9.5l1.2 2.1c.4.7.6 1.2 1.4.7z" fill="#e6e6e6"></path><path d="m211.4 67.3c.9-.5 1.7-.1 1.7 1s-.8 2.4-1.7 3c-1 .5-1.7.1-1.7-1s.8-2.4 1.7-3z" fill="#3e4049"></path><path d="m205.2 70.9c.9-.5 1.7-.1 1.7 1s-.8 2.4-1.7 3c-.9.5-1.7.1-1.7-1s.8-2.5 1.7-3z" fill="#3e4049"></path><path d="m199 74.4c1-.5 1.7-.1 1.7 1s-.8 2.4-1.7 3c-.9.5-1.7.1-1.7-1s.8-2.4 1.7-3z" fill="#3e4049"></path><g fill="#455a64"><path d="m72.8 158-2.1 1.2.8-1.6c.1-.1.1-.3 0-.4s-.2 0-.2.1l-1.2 2.2v.1.1.1l1.2.9h.1s.1-.1.1-.2c.1-.1.1-.3 0-.4l-.8-.6 2.1-1.2c.1-.1.2-.2.2-.4-.1.1-.1.1-.2.1z" opacity=".5"></path><path d="m74.6 157 2.1-1.2-.8-.6c-.1-.1-.1-.2 0-.4.1-.1.2-.2.2-.2l1.2.9v.1.1.1l-1.2 2.2c0 .1-.1.1-.1.1h-.1c-.1-.1-.1-.2 0-.4l.8-1.6-2.1 1.2c-.1.1-.2 0-.2-.2 0 .1.1-.1.2-.1z" opacity=".5"></path><path d="m81.6 150.8c0-.1-.1-.1-.2 0l-.3.7c-.5-.1-1.1.4-1.5 1.3-.5 1.1-.5 2.5 0 3 .3.3.6.3 1 .1.3-.2.7-.6 1-1.2.1-.1.1-.3 0-.4s-.2 0-.2.1c-.4.8-1 1.2-1.4.8s-.4-1.4 0-2.2c.3-.6.7-1 1-1l-.2.5c-.1.1 0 .3.1.2l.9-.6c.1 0 .1-.2.1-.2z" opacity=".5"></path><path d="m104.7 132.9.8-1.7c.1-.2.1-.4 0-.5s-.2 0-.3.2l-.8 1.7-.8-.8c-.1-.1-.2 0-.3.2s-.1.4 0 .5l.8.8-.8 1.7c-.1.2-.1.4 0 .5h.2c.1 0 .1-.1.2-.2l.8-1.7.8.8h.2s.1-.1.2-.2c.1-.2.1-.4 0-.5z" opacity=".5"></path></g><path d="m84.5 152.8v-2.8c0-.9.6-1.9 1.4-2.4l122.9-70.9c.8-.4 1.4-.1 1.4.8v2.8c0 .9-.6 1.9-1.4 2.4l-123 70.9c-.7.5-1.3.1-1.3-.8z" fill="#fafafa"></path><path d="m208 78.2.4.8s.1.1.1 0l.8-.3c.1 0 .2.1.1.3l-.6 1.1c0 .1-.1.1 0 .2l.1 1c0 .2-.1.4-.2.3l-.7-.1s-.1 0-.1.1l-.7.9c-.1.1-.2.1-.2-.1l.1-1.1c0-.1 0-.1 0-.2l-.6-.4c-.1-.1 0-.3.1-.4l.8-.6c.1 0 .1-.1.1-.2l.4-1.2c-.2-.1 0-.2.1-.1z" fill="none" stroke="#e0e0e0" stroke-miterlimit="10" stroke-width=".75"></path><g fill="#455a64" opacity=".5"><path d="m211.7 76.4c-.2 0-.3-.1-.4-.2-.1-.2-.1-.5.2-.6l3.8-2.2c.2-.1.5-.1.6.2.1.2.1.5-.2.6l-3.8 2.2s-.1 0-.2 0z"></path><path d="m211.7 78.7c-.2 0-.3-.1-.4-.2-.1-.2-.1-.5.2-.6l3.8-2.2c.2-.1.5-.1.6.2.1.2.1.5-.2.6l-3.8 2.2c0-.1-.1 0-.2 0z"></path><path d="m211.7 80.9c-.2 0-.3-.1-.4-.2-.1-.2-.1-.5.2-.6l3.8-2.2c.2-.1.5-.1.6.2.1.2.1.5-.2.6l-3.8 2.2s-.1 0-.2 0z"></path></g><path d="m102.9 200.5c5.5-5.6 6.9-8.1 6.9-10.4 0-2.1-.9-3.7-3.9-2-2.3 1.3-3.5 3-4.3 5.3-.3.9-1.2 1.8-2.1 2l-3.8.8c-.9.2-1.5-.4-1.3-1.3 1.7-6.8 5.9-13.1 11.8-16.5 7.1-4.1 11.2-1 11.2 5.9 0 6.6-3.5 12.2-7 16.2-.6.7-1.1 2-1.1 2.9v2.3c0 .9-.7 2.1-1.5 2.5l-4.7 2.7c-.8.5-1.5.1-1.5-.8v-6.8c.1-.9.6-2.2 1.3-2.8z" fill="#3e4049"></path><path d="m101.6 220.4c0-2.6 1.3-5.4 3.9-6.9 2.5-1.5 3.8-.2 3.8 2.5 0 2.6-1.3 5.5-3.8 6.9-2.6 1.5-3.9.1-3.9-2.5z" fill="#3e4049"></path><path d="m256.7 39.4-3.7-2.1c-.6-.3-1.4-.3-2.2.2l-91.4 52.7c-1.7 1-3.1 3.4-3.1 5.4v131.4c0 1 .3 1.7.9 2l3.7 2.1 89.9-55.1c1.7-1 3.1-3.4 3.1-5.4z" fill="#ee4922"></path><path d="m160.8 231.2-3.6-2.1c-.5-.3-.9-1-.9-2v-131.4c0-1.1.4-2.2 1-3.3l3.7 2.1c-.6 1-1 2.2-1 3.3v131.4c-.1.9.3 1.6.8 2z" opacity=".15"></path><path d="m163.1 92.3 91.4-52.7c1.7-1 3.1-.2 3.1 1.8v131.4c0 2-1.4 4.4-3.1 5.4l-91.4 52.8c-1.7 1-3.1.2-3.1-1.8v-131.4c-.1-2 1.3-4.5 3.1-5.5z" fill="#ee4922"></path><path d="m252.9 37.2 3.6 2.1c-.6-.3-1.3-.2-2.1.3l-91.4 52.7c-.8.5-1.6 1.3-2.1 2.2l-3.7-2.1c.5-.9 1.3-1.7 2.1-2.2l91.4-52.7c.9-.6 1.7-.6 2.2-.3z" fill="#fff" opacity=".4"></path><path d="m173.4 97.5 73.2-42.2c1.3-.8 2.4-.1 2.4 1.4v112.3c0 1.5-1.1 3.4-2.4 4.1l-73.2 42.2c-1.3.8-2.4.1-2.4-1.4v-112.3c.1-1.5 1.1-3.3 2.4-4.1z" fill="#fff"></path><path d="m231.4 122.2.7-.6c-.1-.1-1.6-1.9-4.6-2.7l-.2.9c2.7.8 4.1 2.4 4.1 2.4z" fill="#37474f"></path><path d="m233 126-1.5-1.5c-.8-.8-.8-2 0-2.8.8-.8 2-.8 2.8 0l1.5 1.5c.8.8.8 2 0 2.8-.7.7-2 .7-2.8 0z" fill="#ee4922"></path><g clip-path="url(#a)"><path d="m246.4 160.2c2 3.4 3.4 5.8 3.4 5.8s22.1-11.7 23.4-13.3c1.2-1.5 1.2-4.7 1.4-6.3.3-2.8-.7-5.2-.9-6.2-.3-1.8 2.3-1.9 3.5.6.9 1.8 1 3.8 1.8 3.8.3 0 2.7-2.3 3.1-2.7 1.4-1.5 3.8-4 5.7-3.7.6.1 1.1.6 1.3 1.3.2 1.1.1 2.1.7 3 .2.4.6.7.7 1.2.2.6-.1 1.3 0 1.9.1.9 1 1.3 1.1 2.2.1.7-.2 1.4-.2 2.1 0 .4.1.8.1 1.3 0 .9-.6 1.8-1.1 2.5-2.1 2.5-4.1 3.9-6.6 5.5-2 1.3-4.7 2.5-7 3.7s-28.4 21.3-31.8 18.9c-1.4-1-5.2-5.8-9.1-11.1" fill="#ffa8a7"></path><path d="m235 171.5c-5.7-7.7-10.9-17.3-10.9-17.3-4-11.2.5-18.7.5-18.7s5.7-1.8 10.5 5.8c2.1 3.3 7.6 12.7 11.3 18.9" fill="#ffa8a7"></path><path d="m214.5 135.7s6.3-2.6 10.4-2.3 7.2 1.4 10.2 6.3c4 6.5 10.7 17.7 10.7 17.7s-3.8 8.8-12.9 13.9l-12.3-18.5z" fill="#3e4049"></path><path d="m194.4 146.9c-2 1.6-3.7 4-4.5 6.6-.7 2.3-1.4 5.6-1.4 9.7v21.1l-.3 39.8c13.4 4.6 30.3.5 44.6-15.3 0 0-.8-51-.8-59.3 0-.4 0-.8 0-1.1-.5-11.8-10.7-17.3-20.8-11.6l-8.4 4.8z" fill="#f0f0f0"></path><path d="m199 98.4s-6.5-.5-8 5.6c-1.3 5.4 8.5 26.8 8.3 26.5-.2-.4-.3-32.1-.3-32.1z" fill="#232428"></path><path d="m222.1 86.2s-2.4-6.5-14.2-1.9c-6 2.4-8.3 9.8-8.3 9.8z" fill="#ee4922"></path><path d="m222.1 86.2s-2.4-6.5-14.2-1.9c-6 2.4-8.3 9.8-8.3 9.8z" opacity=".4"></path><g fill="#263238"><path d="m203.5 103.6c0 9 6.3 14.6 14.1 12.5s14.1-11.1 14.1-20c0-9-6.7-9-14.5-6.9-7.8 2-13.7 5.4-13.7 14.4z"></path><path d="m196.1 117.8s2.1 10.7 2.9 12.3 2.6 1.7 2.6 1.7l-.1-7.9z"></path><path d="m198.8 100.9s-2.2.2-4 2.7c-1.7 2.5-.8 8.5 1.4 14.1l3.9-.5z"></path></g><path d="m201.2 116.9c-.8.8-1.9-.7-2.9-1.6s-4.1-1.7-5.7 2.6 1.4 8.7 3.9 8.9c4.3.4 4.9-2.9 4.9-2.9l.1 18.3c7.2 7.6 19.8-1.4 14.1-4.7v-5.4s3.9-.4 5.8-1.2c3.1-1.4 5.1-4.8 6.1-9 1.5-6.7 2.1-12 .8-24.1-1.4-13.2-15.1-9.7-22.6-2.3-7.3 7.3-4.5 21.4-4.5 21.4z" fill="#ffa8a7"></path><path d="m201.2 118.5c-.4.1-1.9-2.4-2.9-3.1-1.4-1.1.4-14.4.4-14.4-1.6-3.4 1.3-8.6 4.3-10.7 2.3-1.6 4.7-2.2 7.1-2.6 2.2-.4 4.3-.7 6.5-.9 2.6-.2 5.2-.3 7.8-.9 2.1-.5 3.7-1.1 5.8-2.1 1.6-.8 3 .9 1.5 3.8-.7 1.3-2.7 4.7-5.3 6.7-6.4 4.8-13.8 5.9-20.2 6.6-1.5.2-1.8 1.9-2.5 6.5-.6 3.9-1.1 10.7-2.5 11.1z" fill="#232428"></path><path d="m193.8 101.1-4.7-1.7c.7-1.7 2.3-2.8 3.6-2.3 1.3.4 1.8 2.2 1.1 4z" fill="#263238"></path><path d="m215.7 132s-7 .2-9.5-.6c-1.6-.6-3-2-3.4-3 0 0 .5 2.3 1.9 4.1 1.8 2.2 11 1.7 11 1.7z" fill="#f28f8f"></path><path d="m214 111.5c0 .9-.6 1.9-1.4 2.1s-1.4-.4-1.4-1.3.6-1.9 1.4-2.1 1.4.3 1.4 1.3z" fill="#263238"></path><path d="m211.8 105.3-3 2.7c-.4-.9-.1-2.2.7-3 .8-.6 1.8-.5 2.3.3z" fill="#263238"></path><path d="m215.1 122.4 3.2.5c-.3 1.1-1.3 2-2.2 1.8-.9-.1-1.4-1.1-1-2.3z" fill="#f28f8f"></path><path d="m226.9 102.7-2.7-1.7c.6-1.1 1.6-1.5 2.4-1.1.7.5.9 1.8.3 2.8z" fill="#263238"></path><path d="m225.7 107.9c0 .9-.6 1.9-1.4 2.1s-1.4-.4-1.4-1.3.6-1.9 1.4-2.1 1.4.3 1.4 1.3z" fill="#263238"></path><path d="m218.8 108.4.1 9.9 5.1-2.7z" fill="#f28f8f"></path><path d="m173.2 206.5c3.9-40.5 10.3-54.9 20.3-58.9 3.4 2.6 3.9 14.6.1 23.5 0 0-8.3 26.9-9 36-.6 8.1.1 19.2.9 25.6.1 1.1.7 2 1.5 2.6 2.1 1.5 1.9 3.5 3.4 5.5 1.2 1.5 2.3 1.8 2.1 2.4-.3.7-1.4 2-3.1 1.5-.8-.2-1.4-.6-2.6-1.5 0 0 .6 2.9 2.6 6.1 2.7 4.4 2.5 7.3-4.1 8.1-4.1.5-7.1-2.1-8.9-12.5-.5-3-1.8-8.4-2.3-12.3-1.4-11.1-1.5-19.6-.9-26.1z" fill="#ffa8a7"></path><path d="m196.3 145.7s-7.3 2.3-11 8.1c-3.8 5.8-7.5 15.2-10.3 32 0 0 4.4 6.3 16.4 1.5 0 0 5.7-21.4 6.4-29.8.7-9.3-1.5-11.8-1.5-11.8z" fill="#3e4049"></path><path d="m203.1 86.5c-6.8 4.3-9.7 9.4-9.9 15.6-.1 5.2.3 10.8.5 12.8-2.6 1.9-4.3 5-4.3 8 0 4.2 3.4 6.7 7.6 5.6s7.6-5.5 7.6-9.7c0-3.1-1.9-5.3-4.6-5.8 0-.1-1.4-9 .1-17.9 1.5-9 18.3-14.2 22.1-9-1.2-4.4-9.7-5.5-19.1.4z" fill="#ee4922"></path><path d="m203.1 86.5c-6.8 4.3-9.7 9.4-9.9 15.6-.1 5.2.3 10.8.5 12.8-2.6 1.9-4.3 5-4.3 8 0 4.2 3.4 6.7 7.6 5.6s7.6-5.5 7.6-9.7c0-3.1-1.9-5.3-4.6-5.8 0-.1-1.4-9 .1-17.9 1.5-9 18.3-14.2 22.1-9-1.2-4.4-9.7-5.5-19.1.4z" opacity=".15"></path><path d="m200.6 119.9c0-2-1.6-3.2-3.7-2.7-2 .5-3.7 2.6-3.7 4.6s1.6 3.2 3.7 2.7 3.7-2.6 3.7-4.6z" fill="#ee4922"></path></g><path d="m143.1 184.2c-.2.2-.3.4-.5.5-.3.4-.4.7-.5 1-.1.2-.1.5 0 .7 0 .1.1.3.2.4l.2.2-3.7-2.1c-.2-.1-.3-.2-.4-.3-.1-.2-.1-.5 0-.9.1-.2.2-.5.3-.7.2-.2.4-.5.6-.8z" fill="#ee4922"></path><path d="m143.1 184.1c-1.9 2-1.2 3.3 1.5 3l15.3-1.8v-18.8z" fill="#ee4922"></path><path d="m143.1 184.1c-1.2 1.3-1.4 2.3-.7 2.8l-3.7-2.1c-.8-.5-.6-1.5.6-2.8l16.8-17.5 3.7 2.1z" fill="#ee4922"></path><path d="m143.1 184.2c-.2.2-.3.4-.5.5-.3.4-.4.7-.5 1-.1.2-.1.5 0 .7 0 .1.1.3.2.4l.2.2-3.7-2.1c-.2-.1-.3-.2-.4-.3-.1-.2-.1-.5 0-.9.1-.2.2-.5.3-.7.2-.2.4-.5.6-.8z" opacity=".15"></path><path d="m159.9 166.6-16.8 17.5-3.7-2.1 16.8-17.5z" fill="#fff" opacity=".4"></path><path d="m246.4 160.2c2 3.4 3.4 5.8 3.4 5.8s22.1-11.7 23.4-13.3c1.2-1.5 1.2-4.7 1.4-6.3.3-2.8-.7-5.2-.9-6.2-.3-2.1 2.8-1.7 3.8-.8.7.6 1.1 1.5 1.6 2.3s1.4 3.4 2.3 3.6c.7.1 2.2-.9 2.7-1.3 2.4-1.8 3.9-4.4 5.8-6.7.4-.5.8-1 1.3-1.2.9-.3 1.9.2 2.7.7s1.5 1 2 1.8c.3.5.5 1.2.7 1.8 1 4.2-1.2 7.8-3.7 11s-5.7 5.8-9.1 8c-2 1.3-4.7 2.5-7 3.7s-27.2 22.1-30.7 19.7c-1.4-1-7.2-5.9-11.1-11.2" fill="#ffa8a7"></path><path d="m409.7 124c8 0 12.2 2.4 15.5 9.8 3.2 7.1 13 27.6 12.6 32.6-.5 5-20.8 26.1-20.8 26.1l-5.8-7 12.6-21.1-12.3-17.8z" fill="#ffa8a7"></path><path d="m390.3 341.7s.9 2.7 1.4 5.1c.4 1.9.9 5.1.3 6.5-.7 1.4-3.3 2.4-7.3 2.3-2.6 0-6.7 1.8-9.5 3.3-2.9 1.6-8.8 2.2-11.9 1.9-3.6-.4-7.3-2.5-7.9-4s-1.1-3.5 8.6-6.6c.1 0 11.7-3.8 15.8-8.3z" fill="#232428"></path><path d="m390.3 341.9-1.9-.2-8.5.2c-4.1 4.5-15.7 8.3-15.8 8.3-.6.2-1.1.3-1.6.5-1.7 1.4-.3 3.7 3.7 4 4 .4 16.5-3.8 19.2-5.2 2.8-1.2 4.9-3.9 4.9-7.6z" fill="#ffa8a7"></path><path d="m390.3 338.3v3.7c0 1.3-1.6 3.3-5.6 3.2-2.9-.1-4.9-.9-4.7-3.2v-3.4z" fill="#ffa8a7"></path><path d="m417.6 326.3c.7.3.9 1.7.9 4.5 0 2.1.4 5.8-2.1 6.5s-6.1.2-7.7-1.8c-1.9-2.6-3.2-4.8-6-7.9-2.4-2.7-5-5.3-5.9-9-.8-3.4 0-4.8 2.3-5.7 2.2-.9 4.4-.2 7.6 2.5 1.1.7 2.1 1.3 2.8 1.5 2.2.7 7.4 9.1 8.1 9.4z" fill="#232428"></path><path d="m417.7 323.7-.1 3.4s-2.3 4.5-8.7 0c-.1-.3-.7-7-.7-7z" fill="#ffa8a7"></path><path d="m409.6 316.9c-.8-.2-1.7-.8-2.8-1.5-2.6-.8-8 .1-5.6 3.9 2.6 4 5.4 6.1 7.7 7.9 2.9 1.4 3.9-.3 3.9-.3l-1-8.1c-.8-1-1.6-1.7-2.2-1.9z" fill="#ffa8a7"></path><path d="m422.4 276c-1.3-11.3-3.7-17.8-3.7-17.8s2.2-15.2 3.9-29.8c4-34.3 1.3-34.8-3.5-46.7 0 0-43.9-5.7-45.8 12.6-2.3 22.8-1.3 66.9-.9 74.9.4 8.1 1 11.7 3.4 28.6 1.8 12.9 3.6 41 3.6 41 5.8 3.3 11.3-.6 11.3-.6s5.5-34.6 5.4-43.9c-.2-11.4-3-20.4-3-20.4s3.7-37.1 4.7-43c0 0 1.1 11.8 1.4 19.9.4 8.1 2.6 15.8 4.5 30.8 1.7 13 4.4 40.2 4.4 40.2 5.8 3.3 9.8 1.8 9.8 1.8s5.8-36.2 4.5-47.6z" fill="#ee4922"></path><path d="m391.1 116.6 1.6 17.1 15-.9-1.2-19z" fill="#ffa8a7"></path><path d="m421.2 131.3c-1.5-4.5-4.6-7.2-11.5-7.2l-2.5.1c-.5 2.5-7.9 4.6-15.2 2-1 .3-3.9.8-5.4 1l-3.5.5c-5.3 1.7-7.7 11-8.2 25.6s-2.7 45.9-2.7 45.9 11.4 6.1 29.5 3.8c16.1-2.1 22.4-11.7 21.9-10.5 0 0-2.5-11.6-8.3-23.5 8.4-20.9 8.1-31 5.9-37.7z" fill="#3e4049"></path><path d="m392.7 203.4c2.8 0 5.7-.1 8.9-.5 14.7-1.9 21.2-10 21.9-10.5-.2-1-2.7-12.1-8.3-23.4 4.3-10.6 6.4-18.4 7.1-24.4-.7 4.4-7.2 21.3-15.6 26.4 0 0 4.8.7 8.9 6.4 3.9 5.6.6 24.8-22.9 26z" fill="#2f3037"></path><path d="m386.5 127.1c-7 .9-13.1 2.1-15.7 9.1-4.7 12.7-11.2 21.1-15.3 25.5-4.4 4.7-22.4 13.7-26.4 13s-7.7-6.4-9.8-5.2 2.5 5.3 2.2 6.3c-.2 1-7.6-1.1-11-3.6-3.5-2.4-5.5 4.6-1 9.8 4.5 5.3 12.9 5.7 22.1 3.8 9.2-1.8 25.9-7.3 32.6-13.5 8.7-8.1 10.3-12.6 14.1-19.6 12-9.2 8.2-25.6 8.2-25.6z" fill="#ffa8a7"></path><path d="m383.2 95.4s-5.7-6.8-1.2-13.3c5.2-7.8 14.5-10.4 25.9-7 5.6 1.7 13.9 9.5 14.4 20.4.3 8.4-23.3 14-22.9 19.8z" fill="#232428"></path><path d="m380 97.9s-3.3 5-2.9 5.6c.4.5 2.5 1.1 2.5 1.1z" fill="#f28f8f"></path><path d="m390.1 82c-3.2 1.7-8.8 4.8-10.2 16.6-1.5 12.2 1.2 16.5 2.9 18.1 1.1 1.1 6.9 1.5 9.9.5 3.8-1.2 12-5.2 15.8-11.5 4.5-7.4 5.5-17.3.2-21.2-7.3-5.4-15.9-3.9-18.6-2.5z" fill="#ffa8a7"></path><path d="m389.2 82.5s-2.8 11.1.6 18.2c0 0 2-4.3 5.7-3.1 3.8 1.3 3.4 6.3.5 8.8-3 2.6-5.8 1.2-5.8 1.2s.1 6.2 5.4 8.6c0 0 11 5.3 21-5.4 9-9.7 7.9-27-5.4-31.4-13.6-4.3-22 3.1-22 3.1z" fill="#232428"></path><path d="m433.9 129.5c-8.8 0-15.9-7.1-15.9-15.9v-20.5c8.8 0 15.9 7.1 15.9 15.9z" fill="#232428"></path><path d="m380.6 77.5c-5 5-5.2 19.6 9.1 23.2l9.4-25.8c-5.5-3.6-14.1-1.9-18.5 2.6z" fill="#232428"></path><path d="m388.3 104.7c-1.5-.5-2.2-2.2-1.7-3.6.5-1.5 2.2-2.2 3.6-1.7z" fill="#263238"></path><path d="m397.8 231 2.4-15.3s6.5-.5 13.6-4.7c0 0-3 4.5-10.9 6.4l-2.4 17.7-1 18.6z" opacity=".1"></path></svg> 