<svg width="23" height="21" viewBox="0 0 23 21" fill="none" xmlns="http://www.w3.org/2000/svg">
<path d="M5.76 12.16C6.66667 12.4267 7.36 12.9333 7.84 13.68C8.37333 14.3733 8.64 15.2267 8.64 16.24C8.64 17.52 8.24 18.56 7.44 19.36C6.64 20.16 5.65333 20.56 4.48 20.56C3.2 20.56 2.16 20.16 1.36 19.36C0.613334 18.5067 0.24 17.4667 0.24 16.24C0.24 15.6 0.293334 14.9867 0.4 14.4C0.56 13.76 0.853333 12.8533 1.28 11.68L4.64 0.639997H8.48L5.76 12.16ZM19.36 12.16C20.2667 12.4267 20.96 12.9333 21.44 13.68C21.9733 14.3733 22.24 15.2267 22.24 16.24C22.24 17.52 21.84 18.56 21.04 19.36C20.24 20.16 19.2533 20.56 18.08 20.56C16.8 20.56 15.76 20.16 14.96 19.36C14.2133 18.5067 13.84 17.4667 13.84 16.24C13.84 15.6 13.8933 14.9867 14 14.4C14.16 13.76 14.4533 12.8533 14.88 11.68L18.24 0.639997H22.08L19.36 12.16Z" fill="#FF0000"/>
</svg>
