<?xml version="1.0" encoding="UTF-8"?> <svg xmlns="http://www.w3.org/2000/svg" viewBox="0 0 429 429"><path d="m62.4 357.7c83.8 43.8 219.6 43.8 303.4 0s83.8-114.7 0-158.5-219.6-43.8-303.4 0-83.8 114.8 0 158.5z" fill="#f5f5f5"></path><path d="m385.6 281.8c-12.6 6-33 6-45.6 0s-12.6-15.7 0-21.7 33-6 45.6 0c12.6 5.9 12.6 15.7 0 21.7z" fill="#e0e0e0"></path><path d="m124.4 170.4c-15.9 9.2-28.9 31.6-28.9 50s12.9 25.9 28.9 16.7c15.9-9.2 28.9-31.6 28.9-50 0-18.5-12.9-25.9-28.9-16.7zm-2.4 52.3c-2.4 1.4-4.6 2.1-6.5 2.1-5.6 0-6.2-6.6-6.2-9.5 0-11.1 8.1-25.1 17.7-30.7 2.4-1.4 4.6-2.1 6.5-2.1 5.6 0 6.2 6.6 6.2 9.5 0 11.1-8.1 25.2-17.7 30.7z" fill="#3e4049"></path><path d="m134.3 182.7c-.3 0-.5-.1-.8-.1-1.2 0-2.6.3-4.1.9.1 1 .2 2 .2 2.7 0 11.1-8.1 25.1-17.7 30.7-.8.5-1.7.9-2.5 1.2.2 1.6.7 3.3 1.7 4.7.9 1.2 2.3 2.1 4.3 2.1 1.9 0 4.2-.7 6.5-2.1 9.6-5.5 17.7-19.6 17.7-30.7.1-2.7-.5-8.8-5.3-9.4z" fill="#232428"></path><path d="m144.8 168.3-14.3-8.3c-5.2-3.1-12.5-2.6-20.5 2-15.9 9.2-28.9 31.6-28.9 50 0 9.1 3.2 15.5 8.3 18.6 0 0 .1.1.1.1h.1l14.1 8.2h.1c-2.4-1.4-4.3-3.6-5.7-6.3-1-2-1.8-4.4-2.2-7.1-.2-1.6-.4-3.3-.4-5.1 0-18.4 12.9-40.8 28.9-50 1.6-.9 3.1-1.6 4.6-2.2 2.5-1 5-1.6 7.3-1.7 3.2-.2 6.1.4 8.5 1.8z" fill="#2f3037"></path><path d="m121.6 98.7-13.5-7.8-20.3 11.7-47 167.2 13.4 7.8 20-11.5z" fill="#232428"></path><path d="m74.2 266.1-20 11.5 47.2-167.2 20.2-11.7z" fill="#3e4049"></path><path d="m54.2 277.6 47.2-167.2-13.6-7.8-47 167.2z" fill="#2f3037"></path><path d="m46 143.4c-15.9 9.2-28.9 31.6-28.9 50s12.9 25.9 28.9 16.7c15.9-9.2 28.9-31.6 28.9-50s-12.9-25.9-28.9-16.7zm-2.5 52.4c-2.4 1.4-4.6 2.1-6.5 2.1-5.6 0-6.2-6.6-6.2-9.5 0-11.1 8.1-25.1 17.7-30.7 2.4-1.4 4.6-2.1 6.5-2.1 5.6 0 6.2 6.6 6.2 9.5.1 11.1-8.1 25.2-17.7 30.7z" fill="#3e4049"></path><path d="m55.8 155.7c-.3 0-.5-.1-.8-.1-1.2 0-2.6.3-4.1.9.1 1 .2 2 .2 2.7 0 11.1-8.1 25.1-17.7 30.7-.8.5-1.7.9-2.5 1.2.2 1.6.7 3.3 1.7 4.7.9 1.2 2.3 2.1 4.3 2.1 1.9 0 4.2-.7 6.5-2.1 9.6-5.5 17.7-19.6 17.7-30.7.2-2.7-.4-8.8-5.3-9.4z" fill="#232428"></path><path d="m66.4 141.4-14.3-8.3c-5.2-3.1-12.5-2.6-20.5 2-15.9 9.2-28.9 31.6-28.9 50 0 9.1 3.2 15.5 8.3 18.6 0 0 .1.1.1.1h.1l14.1 8.2h.1c-2.4-1.4-4.3-3.6-5.7-6.3-1-2-1.8-4.4-2.2-7.1-.2-1.6-.4-3.3-.4-5.1 0-18.4 12.9-40.8 28.9-50 1.6-.9 3.1-1.6 4.6-2.2 2.5-1 5-1.6 7.3-1.7 3.2-.2 6.1.4 8.5 1.8z" fill="#2f3037"></path><path d="m264.4 329.6 9.5 17.9c8.3-1.5 15.3-3.9 21.4-7.4l-22.9-5.1c-2.3 1.3-5-5.9-8-5.4z" fill="#ee4922"></path><path d="m264.4 329.6 9.5 17.9c8.3-1.5 15.3-3.9 21.4-7.4l-22.9-5.1c-2.3 1.3-5-5.9-8-5.4z" opacity=".2"></path><path d="m245.1 319.1c4.6-2.6 10.8-3.7 16.8-3.1l5-29-5-9-26.1 3.4-28 41 .9 1.3 30.9 2.2c.3-2.5 2.2-4.9 5.5-6.8z" fill="#ee4922"></path><path d="m245.1 319.1c4.6-2.6 10.8-3.7 16.8-3.1l5-29-5-9-26.1 3.4-28 41 .9 1.3 30.9 2.2c.3-2.5 2.2-4.9 5.5-6.8z" opacity=".7"></path><path d="m266.9 267.3v-5.2l-5.1 18.4v5.1z" fill="#ee4922"></path><path d="m266.9 267.3v-5.2l-5.1 18.4v5.1z" opacity=".7"></path><path d="m245.1 283.6c4.6-2.6 10.8-3.7 16.8-3.1l5-18.4c-28.2-2.6-54.6 8.5-59.1 24.8-.1.5-.3 1.1-.4 1.5l32.1 1.9c.4-2.4 2.3-4.8 5.6-6.7z" fill="#ee4922"></path><path d="m245.1 283.6c4.6-2.6 10.8-3.7 16.8-3.1l5-18.4c-28.2-2.6-54.6 8.5-59.1 24.8-.1.5-.3 1.1-.4 1.5l32.1 1.9c.4-2.4 2.3-4.8 5.6-6.7z" opacity=".6"></path><path d="m239.5 311.3v-20.9l-32.1-1.9v20.9z" fill="#ee4922"></path><path d="m239.5 311.3v-20.9l-32.1-1.9v20.9z" opacity=".8"></path><path d="m272.5 288.8c3.9 2.2 5.8 5.2 5.7 8.1l32.3.3c.5-15.1-17.8-27.6-43.6-30l-5 18.4c3.8.4 7.6 1.4 10.6 3.2z" fill="#ee4922"></path><path d="m272.5 288.8c3.9 2.2 5.8 5.2 5.7 8.1l32.3.3c.5-15.1-17.8-27.6-43.6-30l-5 18.4c3.8.4 7.6 1.4 10.6 3.2z" fill="#fff" opacity=".8"></path><path d="m278.2 296.9v22.3l32.2.3v-22.3z" fill="#ee4922"></path><path d="m278.2 296.9v22.3l32.2.3v-22.3z" fill="#fff" opacity=".6"></path><path d="m278.2 296.9v22c0-2.9-1.9-5.7-5.7-7.9-3-1.7-6.8 5.3-10.7 4.9v-30.3c8.9.8 16.5 5.2 16.4 11.3z" fill="#ee4922"></path><path d="m278.2 296.9v22c0-2.9-1.9-5.7-5.7-7.9-3-1.7-6.8 5.3-10.7 4.9v-30.3c8.9.8 16.5 5.2 16.4 11.3z" fill="#fff" opacity=".6"></path><path d="m239.4 306.8h38.8v26.1h-38.8z" fill="#e0e0e0"></path><path d="m245.1 314.9c-7.6-4.4-7.6-11.5 0-15.8 7.6-4.4 19.8-4.4 27.4 0s7.6 11.5 0 15.8-19.8 4.3-27.4 0z" fill="#fafafa"></path><path d="m278.2 319.2c-.1 2.8-2 13.6-5.7 15.7l22.9 5.1c10-5.8 14.9-12.4 15.1-20.6z" fill="#2f3037"></path><path d="m310.4 302.1v17.4l-15.1 20.6v-17.4z" fill="#2f3037"></path><path d="m278.2 301.8c-.1 2.8-2 5.6-5.7 7.7l22.9 13.2c10-5.8 14.9-12.4 15.1-20.6z" fill="#3e4049"></path><path d="m295.3 322.7v17.4l-22.8-13.2v-17.4z" fill="#232428"></path><path d="m295.3 328.2-21.4 7.4v11.9l21.4-7.4z" fill="#ee4922"></path><path d="m295.3 328.2-21.4 7.4v11.9l21.4-7.4z" opacity=".2"></path><path d="m264.4 317.8 9.5 17.8c8.3-1.5 15.3-3.9 21.4-7.4l-22.8-13.2c-2.4 1.3-5.1 2.2-8.1 2.8z" fill="#ee4922"></path><path d="m264.4 317.8v5.4l9.5 24.3v-11.9z" fill="#ee4922"></path><path d="m264.4 317.8v5.4l9.5 24.3v-11.9z" opacity=".4"></path><path d="m249.7 333c-4.3-2.5-10.7-3.9-10.1-7.1l-32.4-15.5v8.8c.1 15 19.8 27.9 46.3 29.5 7.3.4 13.5.1 20.5-1.1v-8.7c-6.7 1-19.1-2.9-24.3-5.9z" fill="#ee4922"></path><path d="m249.7 333c-4.3-2.5-10.7-3.9-10.1-7.1l-32.4-15.5v8.8c.1 15 19.8 27.9 46.3 29.5 7.3.4 13.5.1 20.5-1.1v-8.7c-6.7 1-19.1-2.9-24.3-5.9z" opacity=".5"></path><path d="m245.1 318.1c-4.3-2.5-6.1-5.8-5.6-9l-32.1-1.9c-3 16.4 17.6 31.1 46 32.8 7.3.4 13.5.1 20.5-1.1l-9.5-17.9c-6.6 1.1-14.1.2-19.3-2.9z" fill="#ee4922"></path><path d="m245.1 318.1c-4.3-2.5-6.1-5.8-5.6-9l-32.1-1.9c-3 16.4 17.6 31.1 46 32.8 7.3.4 13.5.1 20.5-1.1l-9.5-17.9c-6.6 1.1-14.1.2-19.3-2.9z" opacity=".3"></path><path d="m128 273s1.5-8.3-1.1-18.6c-1.7-6.6-5-11.2-9-13.6-3.9-2.4-11.1.1-5.4 7.8s11.6 17.6 12.2 25z" fill="#232428"></path><path d="m126.9 273.7c-.3 0-.5-.2-.5-.5.3-13.7-6.1-27.4-12-30.6-.2-.1-.3-.4-.2-.7.1-.2.4-.3.7-.2 6.2 3.3 12.9 17.5 12.6 31.5-.1.3-.3.5-.6.5z" fill="#fff"></path><path d="m128.5 297.2c-6.3 3.7-13.5.3-14.7-6.7-.4-2.5-.9-5-3.1-6.4-1.9-1.2-4.5-1.3-6.1-2.9-2.3-2.3-1-5.2.5-7.5 1.4-2.1 2.5-4.5 1.2-6.9-.7-1.3-1.5-2.5-1.9-4-.4-1.4-.2-3.1.9-4.1 1.2-1.1 3.1-1.1 4.7-.7 2.7.6 4.9 2.1 7 3.9 1.4 1.2 2.2 2.4 4.2 2.8 1.5.3 3.1 0 4.5.4 1.9.4 3.4 1.9 4.3 3.6 1.5 2.9 1 6.2.8 9.3-.2 2.9-.5 5.9-.9 8.8-.3 2.5-.6 5-1 7.4 0 .3-.1 2.8-.4 3z" fill="#3e4049"></path><path d="m129.1 293.7c-.2 0-.5-.2-.5-.4-2.2-15.7-15.4-30.3-20.3-32.8-.2-.1-.3-.4-.2-.7.1-.2.4-.3.7-.2 5.2 2.7 18.6 17.3 20.9 33.6-.1.2-.3.5-.6.5z" fill="#fff"></path><path d="m109.6 276.7c-.2 0-.4-.1-.5-.3-.1-.3 0-.5.3-.7.2-.1 5.8-2.5 12.5-1.8.3 0 .5.3.4.5 0 .3-.3.5-.5.4-6.4-.7-11.9 1.7-12 1.7-.1.2-.2.2-.2.2z" fill="#fff"></path><path d="m129.9 300.9c-1.6-1-3-3.4-3-5.4v-151.1c0-2 1.4-4.5 3.2-5.5l178.6-103.1c1.8-1 4.5-1.1 6.2-.1 1.6.9 3 3.3 3 5.4v151.2c0 2-1.4 4.5-3.2 5.5l-178.6 103c-1.8 1-4.6 1-6.2.1z" fill="#ee4922"></path><path d="m144.8 151-17-9.8c-.6 1-.9 2.1-.9 3.1v151.1c0 2 1.3 4.4 3 5.4 1.6 1 4.4.9 6.2-.1l8.8-5.1v-144.6z" fill="#ee4922"></path><path d="m144.8 151-17-9.8c-.6 1-.9 2.1-.9 3.1v151.1c0 2 1.3 4.4 3 5.4 1.6 1 4.4.9 6.2-.1l8.8-5.1v-144.6z" opacity=".2"></path><path d="m136.1 142.3 178.5-103.1c1.8-1 3.2-.2 3.2 1.8v151.2c0 2-1.4 4.5-3.2 5.5l-178.5 103.1c-1.8 1-3.2.2-3.2-1.8v-151.2c0-2 1.4-4.5 3.2-5.5z" fill="#ee4922"></path><path d="m136.1 142.3 178.5-103.1c1.8-1 3.2-.2 3.2 1.8v151.2c0 2-1.4 4.5-3.2 5.5l-178.5 103.1c-1.8 1-3.2.2-3.2-1.8v-151.2c0-2 1.4-4.5 3.2-5.5z" fill="#fff" opacity=".5"></path><path d="m150.8 264.7s0-13.3 2.3-32.6c1.4-11.8 4.2-31.6 15.6-38.1 11.3-6.5 15.6 5.3 17.2 11.1 2.1 7.6 13.2 2.8 14.8-9.7s2.5-52.1 15.8-59.8 17.6 10.8 19.1 15.9c3 10.1 11.7 7.3 14.5.6s10.6-8.3 13.5 1.1 4.7 20.3 14.2 14.7c8.3-4.9 4.5-13.8 12.6-18 2.4-1.2 7.1-.5 8.1 6.4 1.6 10.3 1.3 22.2 1.3 22.2z" fill="#fff" opacity=".4"></path><g fill="#f5f5f5"><path d="m150.8 265.4c-.4 0-.7-.3-.7-.7 0-.1 0-13.6 2.3-32.7 1.1-9.5 3.7-31.6 15.9-38.7 3.6-2.1 6.9-2.6 9.7-1.4 3.8 1.5 6.6 5.8 8.6 12.9.6 2.1 2 3.2 3.9 3.1 3.9-.3 8.5-5.1 9.4-12.6.2-2 .5-4.7.8-7.9 1.5-17.1 4-45.8 15.4-52.4 3.5-2 6.7-2.5 9.6-1.3 6.3 2.6 9 12.1 10.3 16.7.1.4.2.7.3 1 1.1 3.8 3.2 6 5.8 6.1 2.9.2 6-2.2 7.4-5.6 1.6-3.8 4.7-6.1 7.8-5.9s5.7 2.7 7.1 7.1c.3 1 .6 2.1.9 3.1 1.7 5.7 3.2 11 6.4 12.3 1.5.6 3.4.2 5.8-1.1 3.9-2.3 5-5.5 6.1-8.8 1.1-3.4 2.3-6.9 6.6-9.2 1.2-.6 3.2-.9 5.1.1 1.5.8 3.5 2.6 4.1 6.9 1.5 10.2 1.3 22.2 1.3 22.3 0 .4-.3.8-.8.7-.4 0-.7-.3-.7-.8 0-.1.3-12-1.3-22.1-.6-3.7-2.1-5.2-3.3-5.8-1.4-.7-2.9-.5-3.7-.1-3.8 2-4.8 5.1-5.9 8.3-1.1 3.5-2.3 7.1-6.7 9.6-2.8 1.6-5.1 2-7.1 1.2-3.9-1.5-5.5-7.2-7.3-13.3-.3-1-.6-2.1-.9-3.1-1.2-3.7-3.3-6-5.7-6.1-2.5-.1-5.1 1.9-6.4 5.1-1.7 4-5.3 6.7-8.8 6.5-1.9-.1-5.3-1.2-7.1-7.2-.1-.3-.2-.6-.3-1-1.2-4.4-3.8-13.4-9.4-15.7-2.4-1-5.2-.6-8.3 1.2-10.8 6.2-13.3 35.5-14.7 51.3-.3 3.2-.5 5.9-.8 8-1 8.3-6.3 13.6-10.7 13.9-2.6.2-4.7-1.3-5.4-4.1-1.9-6.7-4.4-10.6-7.7-12-2.4-1-5.2-.5-8.4 1.3-11.6 6.7-14.1 28.3-15.2 37.6-2.3 19-2.3 32.4-2.3 32.5-.3.5-.6.8-1 .8z"></path><path d="m171.9 193.8c-.3 0-.5-.2-.5-.5v-.9c0-.3.2-.5.5-.5s.5.2.5.5v.9c0 .3-.2.5-.5.5z"></path><path d="m171.9 249.3c-.3 0-.5-.2-.5-.5v-1.8c0-.3.2-.5.5-.5s.5.2.5.5v1.8c0 .3-.2.5-.5.5zm0-3.7c-.3 0-.5-.2-.5-.5v-1.8c0-.3.2-.5.5-.5s.5.2.5.5v1.8c0 .3-.2.5-.5.5zm0-3.7c-.3 0-.5-.2-.5-.5v-1.8c0-.3.2-.5.5-.5s.5.2.5.5v1.8c0 .3-.2.5-.5.5zm0-3.7c-.3 0-.5-.2-.5-.5v-1.8c0-.3.2-.5.5-.5s.5.2.5.5v1.8c0 .3-.2.5-.5.5zm0-3.7c-.3 0-.5-.2-.5-.5v-1.8c0-.3.2-.5.5-.5s.5.2.5.5v1.8c0 .3-.2.5-.5.5zm0-3.7c-.3 0-.5-.2-.5-.5v-1.8c0-.3.2-.5.5-.5s.5.2.5.5v1.8c0 .3-.2.5-.5.5zm0-3.7c-.3 0-.5-.2-.5-.5v-1.8c0-.3.2-.5.5-.5s.5.2.5.5v1.8c0 .3-.2.5-.5.5zm0-3.7c-.3 0-.5-.2-.5-.5v-1.8c0-.3.2-.5.5-.5s.5.2.5.5v1.8c0 .3-.2.5-.5.5zm0-3.7c-.3 0-.5-.2-.5-.5v-1.8c0-.3.2-.5.5-.5s.5.2.5.5v1.8c0 .3-.2.5-.5.5zm0-3.7c-.3 0-.5-.2-.5-.5v-1.8c0-.3.2-.5.5-.5s.5.2.5.5v1.8c0 .3-.2.5-.5.5zm0-3.7c-.3 0-.5-.2-.5-.5v-1.8c0-.3.2-.5.5-.5s.5.2.5.5v1.8c0 .3-.2.5-.5.5zm0-3.7c-.3 0-.5-.2-.5-.5v-1.8c0-.3.2-.5.5-.5s.5.2.5.5v1.8c0 .3-.2.5-.5.5zm0-3.7c-.3 0-.5-.2-.5-.5v-1.8c0-.3.2-.5.5-.5s.5.2.5.5v1.8c0 .3-.2.5-.5.5zm0-3.7c-.3 0-.5-.2-.5-.5v-1.8c0-.3.2-.5.5-.5s.5.2.5.5v1.8c0 .3-.2.5-.5.5zm0-3.7c-.3 0-.5-.2-.5-.5v-1.8c0-.3.2-.5.5-.5s.5.2.5.5v1.8c0 .3-.2.5-.5.5z"></path><path d="m171.9 252.1c-.3 0-.5-.2-.5-.5v-.9c0-.3.2-.5.5-.5s.5.2.5.5v.9c0 .3-.2.5-.5.5z"></path><path d="m219.9 135.8c-.3 0-.5-.2-.5-.5v-.9c0-.3.2-.5.5-.5s.5.2.5.5v.9c0 .3-.2.5-.5.5z"></path><path d="m219.9 222.5c-.3 0-.5-.2-.5-.5v-1.9c0-.3.2-.5.5-.5s.5.2.5.5v1.9c0 .3-.2.5-.5.5zm0-3.8c-.3 0-.5-.2-.5-.5v-1.9c0-.3.2-.5.5-.5s.5.2.5.5v1.9c0 .3-.2.5-.5.5zm0-3.7c-.3 0-.5-.2-.5-.5v-1.9c0-.3.2-.5.5-.5s.5.2.5.5v1.9c0 .3-.2.5-.5.5zm0-3.8c-.3 0-.5-.2-.5-.5v-1.9c0-.3.2-.5.5-.5s.5.2.5.5v1.9c0 .3-.2.5-.5.5zm0-3.8c-.3 0-.5-.2-.5-.5v-1.9c0-.3.2-.5.5-.5s.5.2.5.5v1.9c0 .3-.2.5-.5.5zm0-3.7c-.3 0-.5-.2-.5-.5v-1.9c0-.3.2-.5.5-.5s.5.2.5.5v1.9c0 .2-.2.5-.5.5zm0-3.8c-.3 0-.5-.2-.5-.5v-1.9c0-.3.2-.5.5-.5s.5.2.5.5v1.9c0 .3-.2.5-.5.5zm0-3.8c-.3 0-.5-.2-.5-.5v-1.9c0-.3.2-.5.5-.5s.5.2.5.5v1.9c0 .3-.2.5-.5.5zm0-3.8c-.3 0-.5-.2-.5-.5v-1.8c0-.3.2-.5.5-.5s.5.2.5.5v1.9c0 .2-.2.4-.5.4zm0-3.7c-.3 0-.5-.2-.5-.5v-1.9c0-.3.2-.5.5-.5s.5.2.5.5v1.9c0 .3-.2.5-.5.5zm0-3.8c-.3 0-.5-.2-.5-.5v-1.9c0-.3.2-.5.5-.5s.5.2.5.5v1.9c0 .3-.2.5-.5.5zm0-3.8c-.3 0-.5-.2-.5-.5v-1.9c0-.3.2-.5.5-.5s.5.2.5.5v1.9c0 .3-.2.5-.5.5zm0-3.7c-.3 0-.5-.2-.5-.5v-1.9c0-.3.2-.5.5-.5s.5.2.5.5v1.9c0 .2-.2.5-.5.5zm0-3.8c-.3 0-.5-.2-.5-.5v-1.9c0-.3.2-.5.5-.5s.5.2.5.5v1.9c0 .3-.2.5-.5.5zm0-3.8c-.3 0-.5-.2-.5-.5v-1.9c0-.3.2-.5.5-.5s.5.2.5.5v1.9c0 .3-.2.5-.5.5zm0-3.8c-.3 0-.5-.2-.5-.5v-1.9c0-.3.2-.5.5-.5s.5.2.5.5v1.9c0 .3-.2.5-.5.5zm0-3.7c-.3 0-.5-.2-.5-.5v-1.9c0-.3.2-.5.5-.5s.5.2.5.5v1.9c0 .3-.2.5-.5.5zm0-3.8c-.3 0-.5-.2-.5-.5v-1.9c0-.3.2-.5.5-.5s.5.2.5.5v1.9c0 .3-.2.5-.5.5zm0-3.8c-.3 0-.5-.2-.5-.5v-1.9c0-.3.2-.5.5-.5s.5.2.5.5v1.9c0 .3-.2.5-.5.5zm0-3.7c-.3 0-.5-.2-.5-.5v-1.9c0-.3.2-.5.5-.5s.5.2.5.5v1.9c0 .2-.2.5-.5.5zm0-3.8c-.3 0-.5-.2-.5-.5v-1.9c0-.3.2-.5.5-.5s.5.2.5.5v1.9c0 .3-.2.5-.5.5zm0-3.8c-.3 0-.5-.2-.5-.5v-1.8c0-.3.2-.5.5-.5s.5.2.5.5v1.9c0 .2-.2.4-.5.4zm0-3.8c-.3 0-.5-.2-.5-.5v-1.9c0-.3.2-.5.5-.5s.5.2.5.5v1.9c0 .3-.2.5-.5.5z"></path><path d="m219.9 225.3c-.3 0-.5-.2-.5-.5v-.9c0-.3.2-.5.5-.5s.5.2.5.5v.9c0 .3-.2.5-.5.5z"></path><path d="m256.6 148.4c-.3 0-.5-.2-.5-.5v-.9c0-.3.2-.5.5-.5s.5.2.5.5v.9c-.1.3-.3.5-.5.5z"></path><path d="m256.6 201.5c-.3 0-.5-.2-.5-.5v-1.9c0-.3.2-.5.5-.5s.5.2.5.5v1.9c-.1.3-.3.5-.5.5zm0-3.8c-.3 0-.5-.2-.5-.5v-1.9c0-.3.2-.5.5-.5s.5.2.5.5v1.9c-.1.3-.3.5-.5.5zm0-3.8c-.3 0-.5-.2-.5-.5v-1.9c0-.3.2-.5.5-.5s.5.2.5.5v1.9c-.1.3-.3.5-.5.5zm0-3.8c-.3 0-.5-.2-.5-.5v-1.9c0-.3.2-.5.5-.5s.5.2.5.5v1.9c-.1.3-.3.5-.5.5zm0-3.8c-.3 0-.5-.2-.5-.5v-1.8c0-.3.2-.5.5-.5s.5.2.5.5v1.9c-.1.2-.3.4-.5.4zm0-3.8c-.3 0-.5-.2-.5-.5v-1.9c0-.3.2-.5.5-.5s.5.2.5.5v1.9c-.1.3-.3.5-.5.5zm0-3.8c-.3 0-.5-.2-.5-.5v-1.9c0-.3.2-.5.5-.5s.5.2.5.5v1.9c-.1.3-.3.5-.5.5zm0-3.7c-.3 0-.5-.2-.5-.5v-1.9c0-.3.2-.5.5-.5s.5.2.5.5v1.9c-.1.2-.3.5-.5.5zm0-3.8c-.3 0-.5-.2-.5-.5v-1.9c0-.3.2-.5.5-.5s.5.2.5.5v1.9c-.1.3-.3.5-.5.5zm0-3.8c-.3 0-.5-.2-.5-.5v-1.9c0-.3.2-.5.5-.5s.5.2.5.5v1.9c-.1.3-.3.5-.5.5zm0-3.8c-.3 0-.5-.2-.5-.5v-1.9c0-.3.2-.5.5-.5s.5.2.5.5v1.9c-.1.3-.3.5-.5.5zm0-3.8c-.3 0-.5-.2-.5-.5v-1.9c0-.3.2-.5.5-.5s.5.2.5.5v1.9c-.1.3-.3.5-.5.5zm0-3.8c-.3 0-.5-.2-.5-.5v-1.9c0-.3.2-.5.5-.5s.5.2.5.5v1.9c-.1.3-.3.5-.5.5zm0-3.8c-.3 0-.5-.2-.5-.5v-1.9c0-.3.2-.5.5-.5s.5.2.5.5v1.9c-.1.3-.3.5-.5.5z"></path><path d="m256.6 204.3c-.3 0-.5-.2-.5-.5v-.9c0-.3.2-.5.5-.5s.5.2.5.5v.9c-.1.3-.3.5-.5.5z"></path><path d="m292.7 150.9c-.3 0-.5-.2-.5-.5v-.9c0-.3.2-.5.5-.5s.5.2.5.5v.9c0 .3-.3.5-.5.5z"></path><path d="m292.7 180.6c-.3 0-.5-.2-.5-.5v-1.9c0-.3.2-.5.5-.5s.5.2.5.5v1.9c0 .3-.3.5-.5.5zm0-3.7c-.3 0-.5-.2-.5-.5v-1.9c0-.3.2-.5.5-.5s.5.2.5.5v1.9c0 .3-.3.5-.5.5zm0-3.7c-.3 0-.5-.2-.5-.5v-1.9c0-.3.2-.5.5-.5s.5.2.5.5v1.9c0 .3-.3.5-.5.5zm0-3.7c-.3 0-.5-.2-.5-.5v-1.9c0-.3.2-.5.5-.5s.5.2.5.5v1.9c0 .2-.3.5-.5.5zm0-3.8c-.3 0-.5-.2-.5-.5v-1.9c0-.3.2-.5.5-.5s.5.2.5.5v1.9c0 .3-.3.5-.5.5zm0-3.7c-.3 0-.5-.2-.5-.5v-1.9c0-.3.2-.5.5-.5s.5.2.5.5v1.9c0 .3-.3.5-.5.5zm0-3.7c-.3 0-.5-.2-.5-.5v-1.8c0-.3.2-.5.5-.5s.5.2.5.5v1.9c0 .2-.3.4-.5.4zm0-3.7c-.3 0-.5-.2-.5-.5v-1.9c0-.3.2-.5.5-.5s.5.2.5.5v1.9c0 .3-.3.5-.5.5z"></path><path d="m292.7 183.4c-.3 0-.5-.2-.5-.5v-.9c0-.3.2-.5.5-.5s.5.2.5.5v.9c0 .3-.3.5-.5.5z"></path><path d="m264.1 118.3c0-.9-.6-1.3-1.4-.8l-13.2 7.6c-.8.5-1.4 1.6-1.4 2.5v10.7c0 .9.6 1.3 1.4.8l4.9-2.8 2.1 3.6c.1.2.5.2.6-.1l2.2-6.3 3.5-2c.8-.5 1.4-1.6 1.4-2.5v-10.7z"></path></g><path d="m252.7 129.4c-.3 0-.5-.1-.7-.3s-.3-.5-.3-.9.1-.8.3-1.2.4-.8.7-1.1.6-.6 1-.8.7-.3 1-.3.5.1.7.3.3.5.3.9-.1.8-.3 1.2-.4.8-.7 1.1-.6.6-1 .8-.7.3-1 .3zm-.4 5.4c0-.1 0-.1.1-.2l5.7-11.6c.1-.1.1-.2.2-.3 0-.1.1-.1.2-.2l1.2-.7h.1s.1 0 .1.1 0 .1-.1.2l-5.7 11.7c-.1.1-.1.2-.1.2s-.1.1-.2.1l-1.2.7c-.2.1-.3.1-.3 0zm2.1-7.4c.2-.3.3-.6.3-.9s-.1-.5-.3-.6-.4 0-.7.1c-.3.2-.5.4-.7.7s-.3.6-.3.9.1.5.3.6.4 0 .7-.1c.2-.1.5-.4.7-.7zm3.1 4.5c-.3 0-.5-.1-.7-.3s-.3-.5-.3-.9.1-.8.3-1.2.4-.8.7-1.1.6-.6 1-.8.7-.3 1-.3.5.1.7.3.3.5.3.9-.1.8-.3 1.2-.4.8-.7 1.1-.6.6-1 .8c-.3.2-.7.3-1 .3zm1.8-2c.2-.3.3-.6.3-.9s-.1-.5-.3-.5c-.2-.1-.4 0-.7.1-.3.2-.5.4-.7.7s-.3.6-.3.9.1.5.3.6.4 0 .7-.1c.2-.2.5-.5.7-.8z" fill="#ee4922"></path><path d="m252.7 129.4c-.3 0-.5-.1-.7-.3s-.3-.5-.3-.9.1-.8.3-1.2.4-.8.7-1.1.6-.6 1-.8.7-.3 1-.3.5.1.7.3.3.5.3.9-.1.8-.3 1.2-.4.8-.7 1.1-.6.6-1 .8-.7.3-1 .3zm-.4 5.4c0-.1 0-.1.1-.2l5.7-11.6c.1-.1.1-.2.2-.3 0-.1.1-.1.2-.2l1.2-.7h.1s.1 0 .1.1 0 .1-.1.2l-5.7 11.7c-.1.1-.1.2-.1.2s-.1.1-.2.1l-1.2.7c-.2.1-.3.1-.3 0zm2.1-7.4c.2-.3.3-.6.3-.9s-.1-.5-.3-.6-.4 0-.7.1c-.3.2-.5.4-.7.7s-.3.6-.3.9.1.5.3.6.4 0 .7-.1c.2-.1.5-.4.7-.7zm3.1 4.5c-.3 0-.5-.1-.7-.3s-.3-.5-.3-.9.1-.8.3-1.2.4-.8.7-1.1.6-.6 1-.8.7-.3 1-.3.5.1.7.3.3.5.3.9-.1.8-.3 1.2-.4.8-.7 1.1-.6.6-1 .8c-.3.2-.7.3-1 .3zm1.8-2c.2-.3.3-.6.3-.9s-.1-.5-.3-.5c-.2-.1-.4 0-.7.1-.3.2-.5.4-.7.7s-.3.6-.3.9.1.5.3.6.4 0 .7-.1c.2-.2.5-.5.7-.8z" opacity=".4"></path><path d="m299.7 120.1c0-.9-.6-1.3-1.4-.8l-13.2 7.6c-.8.5-1.4 1.6-1.4 2.5v10.6c0 .9.6 1.3 1.4.8l4.9-2.8 2.1 3.6c.1.2.5.2.6-.1l2.2-6.3 3.5-2c.8-.5 1.4-1.6 1.4-2.5v-10.6z" fill="#f5f5f5"></path><path d="m288.2 131.2c-.3 0-.5-.1-.7-.3s-.3-.5-.3-.9.1-.8.3-1.2.4-.8.7-1.1.6-.6 1-.8.7-.3 1-.3.5.1.7.3.3.5.3.9-.1.8-.3 1.2-.4.8-.7 1.1-.6.6-1 .8-.7.3-1 .3zm-.3 5.4c0-.1 0-.1.1-.2l5.7-11.6c.1-.1.1-.2.2-.3 0-.1.1-.1.2-.2l1.2-.7h.1s.1 0 .1.1 0 .1-.1.2l-5.7 11.7c-.1.1-.1.2-.1.2s-.1.1-.2.1l-1.2.7c-.2.2-.3.2-.3 0zm2-7.3c.2-.3.3-.6.3-.9s-.1-.5-.3-.6-.4 0-.7.1c-.3.2-.5.4-.7.7s-.3.6-.3.9.1.5.3.6.4 0 .7-.1c.3-.2.5-.4.7-.7zm3.2 4.4c-.3 0-.5-.1-.7-.3s-.3-.5-.3-.9.1-.8.3-1.2.4-.8.7-1.1.6-.6 1-.8.7-.3 1-.3.5.1.7.3.3.5.3.9-.1.8-.3 1.2-.4.8-.7 1.1-.6.6-1 .8-.7.3-1 .3zm1.7-1.9c.2-.3.3-.6.3-.9s-.1-.5-.3-.5c-.2-.1-.4 0-.7.1-.3.2-.5.4-.7.7s-.3.6-.3.9.1.5.3.6.4 0 .7-.1c.3-.3.5-.5.7-.8z" fill="#ee4922"></path><path d="m288.2 131.2c-.3 0-.5-.1-.7-.3s-.3-.5-.3-.9.1-.8.3-1.2.4-.8.7-1.1.6-.6 1-.8.7-.3 1-.3.5.1.7.3.3.5.3.9-.1.8-.3 1.2-.4.8-.7 1.1-.6.6-1 .8-.7.3-1 .3zm-.3 5.4c0-.1 0-.1.1-.2l5.7-11.6c.1-.1.1-.2.2-.3 0-.1.1-.1.2-.2l1.2-.7h.1s.1 0 .1.1 0 .1-.1.2l-5.7 11.7c-.1.1-.1.2-.1.2s-.1.1-.2.1l-1.2.7c-.2.2-.3.2-.3 0zm2-7.3c.2-.3.3-.6.3-.9s-.1-.5-.3-.6-.4 0-.7.1c-.3.2-.5.4-.7.7s-.3.6-.3.9.1.5.3.6.4 0 .7-.1c.3-.2.5-.4.7-.7zm3.2 4.4c-.3 0-.5-.1-.7-.3s-.3-.5-.3-.9.1-.8.3-1.2.4-.8.7-1.1.6-.6 1-.8.7-.3 1-.3.5.1.7.3.3.5.3.9-.1.8-.3 1.2-.4.8-.7 1.1-.6.6-1 .8-.7.3-1 .3zm1.7-1.9c.2-.3.3-.6.3-.9s-.1-.5-.3-.5c-.2-.1-.4 0-.7.1-.3.2-.5.4-.7.7s-.3.6-.3.9.1.5.3.6.4 0 .7-.1c.3-.3.5-.5.7-.8z" opacity=".4"></path><path d="m226.7 105.9c0-.9-.6-1.3-1.4-.8l-13.2 7.6c-.8.5-1.4 1.6-1.4 2.5v10.7c0 .9.6 1.3 1.4.8l4.9-2.8 2.1 3.6c.1.2.5.2.6-.1l2.2-6.3 3.5-2c.8-.5 1.4-1.6 1.4-2.5v-10.7z" fill="#f5f5f5"></path><path d="m215.3 117c-.3 0-.5-.1-.7-.3s-.3-.5-.3-.9.1-.8.3-1.2.4-.8.7-1.1.6-.6 1-.8.7-.3 1-.3.5.1.7.3.3.5.3.9-.1.8-.3 1.2-.4.8-.7 1.1-.6.6-1 .8-.7.3-1 .3zm-.4 5.4c0-.1 0-.1.1-.2l5.7-11.6c.1-.1.1-.2.2-.3 0-.1.1-.1.2-.2l1.2-.7h.1s.1 0 .1.1 0 .1-.1.2l-5.7 11.7c-.1.1-.1.2-.1.2s-.1.1-.2.1l-1.2.7c-.2.2-.3.1-.3 0zm2.1-7.4c.2-.3.3-.6.3-.9s-.1-.5-.3-.6-.4 0-.7.1c-.3.2-.5.4-.7.7s-.3.6-.3.9.1.5.3.6.4 0 .7-.1c.2-.1.5-.4.7-.7zm3.2 4.5c-.3 0-.5-.1-.7-.3s-.3-.5-.3-.9.1-.8.3-1.2.4-.8.7-1.1.6-.6 1-.8.7-.3 1-.3.5.1.7.3.3.5.3.9-.1.8-.3 1.2-.4.8-.7 1.1-.6.6-1 .8-.7.3-1 .3zm1.7-2c.2-.3.3-.6.3-.9s-.1-.5-.3-.5c-.2-.1-.4 0-.7.1-.3.2-.5.4-.7.7s-.3.6-.3.9.1.5.3.6.4 0 .7-.1c.2-.2.5-.5.7-.8z" fill="#ee4922"></path><path d="m215.3 117c-.3 0-.5-.1-.7-.3s-.3-.5-.3-.9.1-.8.3-1.2.4-.8.7-1.1.6-.6 1-.8.7-.3 1-.3.5.1.7.3.3.5.3.9-.1.8-.3 1.2-.4.8-.7 1.1-.6.6-1 .8-.7.3-1 .3zm-.4 5.4c0-.1 0-.1.1-.2l5.7-11.6c.1-.1.1-.2.2-.3 0-.1.1-.1.2-.2l1.2-.7h.1s.1 0 .1.1 0 .1-.1.2l-5.7 11.7c-.1.1-.1.2-.1.2s-.1.1-.2.1l-1.2.7c-.2.2-.3.1-.3 0zm2.1-7.4c.2-.3.3-.6.3-.9s-.1-.5-.3-.6-.4 0-.7.1c-.3.2-.5.4-.7.7s-.3.6-.3.9.1.5.3.6.4 0 .7-.1c.2-.1.5-.4.7-.7zm3.2 4.5c-.3 0-.5-.1-.7-.3s-.3-.5-.3-.9.1-.8.3-1.2.4-.8.7-1.1.6-.6 1-.8.7-.3 1-.3.5.1.7.3.3.5.3.9-.1.8-.3 1.2-.4.8-.7 1.1-.6.6-1 .8-.7.3-1 .3zm1.7-2c.2-.3.3-.6.3-.9s-.1-.5-.3-.5c-.2-.1-.4 0-.7.1-.3.2-.5.4-.7.7s-.3.6-.3.9.1.5.3.6.4 0 .7-.1c.2-.2.5-.5.7-.8z" opacity=".4"></path><path d="m178.9 162.6c0-.9-.6-1.3-1.4-.8l-13.2 7.6c-.8.5-1.4 1.6-1.4 2.5v10.7c0 .9.6 1.3 1.4.8l4.9-2.8 2.1 3.6c.1.2.5.2.6-.1l2.2-6.3 3.5-2c.8-.5 1.4-1.6 1.4-2.5v-10.7z" fill="#f5f5f5"></path><path d="m167.4 173.8c-.3 0-.5-.1-.7-.3s-.3-.5-.3-.9.1-.8.3-1.2.4-.8.7-1.1.6-.6 1-.8.7-.3 1-.3.5.1.7.3.3.5.3.9-.1.8-.3 1.2-.4.8-.7 1.1-.6.6-1 .8c-.3.2-.6.3-1 .3zm-.3 5.4c0-.1 0-.1.1-.2l5.7-11.6c.1-.1.1-.2.2-.3 0-.1.1-.1.2-.2l1.2-.7h.1s.1 0 .1.1 0 .1-.1.2l-5.7 11.7c-.1.1-.1.2-.1.2s-.1.1-.2.1l-1.2.7c-.2.1-.3.1-.3 0zm2.1-7.4c.2-.3.3-.6.3-.9s-.1-.5-.3-.6-.4 0-.7.1-.5.4-.7.7-.3.6-.3.9.1.5.3.6.4 0 .7-.1c.2-.2.5-.4.7-.7zm3.1 4.5c-.3 0-.5-.1-.7-.3s-.3-.5-.3-.9.1-.8.3-1.2.4-.8.7-1.1.6-.6 1-.8.7-.3 1-.3.5.1.7.3.3.5.3.9-.1.8-.3 1.2-.4.8-.7 1.1-.6.6-1 .8c-.3.2-.7.3-1 .3zm1.8-2c.2-.3.3-.6.3-.9s-.1-.5-.3-.5c-.2-.1-.4 0-.7.1-.3.2-.5.4-.7.7s-.3.6-.3.9.1.5.3.6.4 0 .7-.1c.2-.3.5-.5.7-.8z" fill="#ee4922"></path><path d="m167.4 173.8c-.3 0-.5-.1-.7-.3s-.3-.5-.3-.9.1-.8.3-1.2.4-.8.7-1.1.6-.6 1-.8.7-.3 1-.3.5.1.7.3.3.5.3.9-.1.8-.3 1.2-.4.8-.7 1.1-.6.6-1 .8c-.3.2-.6.3-1 .3zm-.3 5.4c0-.1 0-.1.1-.2l5.7-11.6c.1-.1.1-.2.2-.3 0-.1.1-.1.2-.2l1.2-.7h.1s.1 0 .1.1 0 .1-.1.2l-5.7 11.7c-.1.1-.1.2-.1.2s-.1.1-.2.1l-1.2.7c-.2.1-.3.1-.3 0zm2.1-7.4c.2-.3.3-.6.3-.9s-.1-.5-.3-.6-.4 0-.7.1-.5.4-.7.7-.3.6-.3.9.1.5.3.6.4 0 .7-.1c.2-.2.5-.4.7-.7zm3.1 4.5c-.3 0-.5-.1-.7-.3s-.3-.5-.3-.9.1-.8.3-1.2.4-.8.7-1.1.6-.6 1-.8.7-.3 1-.3.5.1.7.3.3.5.3.9-.1.8-.3 1.2-.4.8-.7 1.1-.6.6-1 .8c-.3.2-.7.3-1 .3zm1.8-2c.2-.3.3-.6.3-.9s-.1-.5-.3-.5c-.2-.1-.4 0-.7.1-.3.2-.5.4-.7.7s-.3.6-.3.9.1.5.3.6.4 0 .7-.1c.2-.3.5-.5.7-.8z" opacity=".4"></path><path d="m167.1 262.2 9.6-5.6c1.4-.8 2.5-.5 2.5.8 0 1.2-1.1 2.9-2.5 3.7l-9.6 5.6c-1.4.8-2.5.5-2.5-.8-.1-1.2 1.1-2.9 2.5-3.7z" fill="#f5f5f5"></path><path d="m215.1 234.5 9.6-5.6c1.4-.8 2.5-.5 2.5.8 0 1.2-1.1 2.9-2.5 3.7l-9.6 5.6c-1.4.8-2.5.5-2.5-.8-.1-1.3 1.1-2.9 2.5-3.7z" fill="#f5f5f5"></path><path d="m251.7 213.3 9.6-5.6c1.4-.8 2.5-.5 2.5.8 0 1.2-1.1 2.9-2.5 3.7l-9.6 5.6c-1.4.8-2.5.5-2.5-.8 0-1.2 1.1-2.9 2.5-3.7z" fill="#f5f5f5"></path><path d="m287.9 192.4 9.6-5.6c1.4-.8 2.5-.5 2.5.8 0 1.2-1.1 2.9-2.5 3.7l-9.6 5.6c-1.4.8-2.5.5-2.5-.8-.1-1.2 1.1-2.8 2.5-3.7z" fill="#f5f5f5"></path><path d="m355 137.7c-2.5-.2-5.9-.2-9.3 5.4-3.4 5.5-12.6 20.8-12.6 20.8l6 4.1 10.5-14.8s1-11.8 2.9-13.4c2-1.8 2.5-2.1 2.5-2.1z" fill="#f28f8f"></path><path d="m358.9 249.9h5.9v8.6h-5.9z" fill="#ffa8a7" transform="matrix(.9514 -.308 .308 .9514 -60.7138 123.8229)"></path><path d="m359.2 255.7c0 .6 0 1-.5 1.9-.5 1.1-2 2.9-3.2 4.1-1.7 1.8-4.2 4-6 5.5-1 .9-1 2.2.4 2.7s4.6.7 7.9-1.1c1.8-1 4.4-5.4 5.8-6.1 1.7-.8 2.7-1.2 3.3-2 .9-1.2 1.1-2.1.3-3.5-.8-1.5-2-3.8-2.5-3.6l.2.5c-.4 1.2-3.7 2.7-5.5 2.3z" fill="#232428"></path><path d="m364.9 254.2c-1.6-.5-2.1.3-3.8 0l-1.9 1.4c0 .6 0 1-.5 1.9-.5 1.1-2 2.9-3.2 4.1-.8.9-1.8 1.8-2.9 2.8-.8 1.3 1.9 1.7 3.5 1.2s3-1.7 4.1-3.2 4.1-4.8 4.6-6c.5-1 .3-1.7.1-2.2z" fill="#ffa8a7"></path><path d="m383.9 171.4c-.8-6-2.7-13-5.1-23.8-.9-3.9-2-7.4-4.8-8.5s-7.6 3.1-7.6 8.8c0 5.6 6.2 8.5 6.2 8.5l3.5 12.1 5.6 6.8c2.5-.7 2.3-3.1 2.2-3.9z" fill="#ffa8a7"></path><path d="m366.2 262.6h5.8v8.4h-5.8z" fill="#ffa8a7"></path><path d="m376.3 177.3c2.3 9.8.1 22.9-.7 31.1-.8 8-1.7 17.3-1.7 17.3s2.4 8.5 2.3 15c-.1 6.9-4.2 23.6-4.2 23.6s-2.6 1.9-5.9 0c0 0-1-14-2-21.9-1-8.3-1.3-14.3-2.2-19.2-1.1-6-2.9-31.6-2.9-31.6l-3 25.4s3 4.8 4.3 9.7 4 24.4 4 24.4-2.5 2.4-6.2 2.5c0 0-12.3-29.3-14-32.2-1.8-3.1-2.1-37.2.8-45.7z" fill="#3e4049"></path><path d="m365.7 137.8s7.3.9 8.3 1.3c-7.6 5.4-1.5 17.3-1.5 17.3l-3.7 10.2 7.4 10.6c-2.1 2.5-15.7 11-30.2 1.6 0 0 .5-8.5 1.7-14.7-2.1-10-2.3-13.2-1.7-15.5 1.7-6.6 5.6-10.8 10.1-11.1z" fill="#ee4922"></path><path d="m365.7 137.8s7.3.9 8.3 1.3c-7.6 5.4-1.5 17.3-1.5 17.3l-3.7 10.2 7.4 10.6c-2.1 2.5-15.7 11-30.2 1.6 0 0 .5-8.5 1.7-14.7-2.1-10-2.3-13.2-1.7-15.5 1.7-6.6 5.6-10.8 10.1-11.1z" fill="#fff" opacity=".32"></path><path d="m328.9 155.7 24.8 6.5 7.3 30.8-23.6-6.8z" fill="#ee4922"></path><path d="m339.7 176.1c-.2.6-1.6 2.4-4.5 2.2l-.4-1.3z" fill="#ee4922"></path><path d="m339.7 176.1c-.2.6-1.6 2.4-4.5 2.2l-.4-1.3z" opacity=".2"></path><path d="m345.2 177c.1.8 1.8 2.3 4.6 3.3 3.2 1.1 8.2.5 8.2.5l-.4-1.5z" fill="#ee4922"></path><path d="m345.2 177c.1.8 1.8 2.3 4.6 3.3 3.2 1.1 8.2.5 8.2.5l-.4-1.5z" opacity=".2"></path><path d="m336.1 160.2s-.1-.4-.2-.9 1.3-.5 3.3-.1l3.7.9c1.9.5 3.5 1.3 3.7 1.8l.2.9z" fill="#ee4922"></path><path d="m336.1 160.2s-.1-.4-.2-.9 1.3-.5 3.3-.1l3.7.9c1.9.5 3.5 1.3 3.7 1.8l.2.9z" opacity=".3"></path><path d="m334.4 156.6c-.1-.3.5-.4 1.3-.2l1.4.4s-.4-2 2.8-1.3 3.9 3 3.9 3 .7.2 1.5.4c.9.2 1.6.7 1.7 1l.2.6-12.8-3.4c.1.1.1-.2 0-.5z" fill="#3e4049"></path><path d="m336.2 157.6c1.2.3 1.7.4 1.8 1.2.2.9.3 1.6.3 1.6l5.7 1.5s-.3-1.2-.4-1.6c-.1-.5.1-.7 1-.5l.1-.4-8.9-2.3z" fill="#3e4049"></path><path d="m336 160.2s-.1-.4-.2-.9 1.3-.5 3.3 0l3.7.9c1.9.5 3.5 1.3 3.7 1.8l.2.9z" fill="#3e4049"></path><path d="m381.6 175.4-5.6-6.8s-12.6 5.3-14.5 5.4c-2 .2-3.5-1.8-4.3-3.7s-2.3-1.7-2.3-1.7.6 2.5.8 3.2c.2.8-4.4 1.4-7 .5s-6.4.4-4.1 4c2.4 3.6 6.9 4 10.1 4 .9 0 2.4-.1 4-.3 1-.1 2.1-.2 3.1-.3 6.6-.4 16.9-3.4 19.8-4.3z" fill="#ffa8a7"></path><path d="m331.4 164.7s.9 3.2 1.1 3.9c.2.8 3.1 2.1 4.9 2.6s3.8 1.1 3 3.6c-.8 2.4-3.8 2.9-5.3 2.8s-3.6-1.5-4.4-3.9c-1.1-3-.5-6.2-.9-8-.5-1.6.7-2.1 1.6-1z" fill="#ffa8a7"></path><path d="m366.2 268.1v-.8c-.2 1.3-1.8 5.1-4.1 7.2-1.8 1.7-4.3 3.6-4.9 5.4-.7 1.9 2.9 2.7 5.3 2.4 2.7-.3 4.9-1.9 5.9-3.1 1.5-1.7 1.5-2.9 2.2-3.8s2.3-2 2.7-3.1c.2-.6 0-1.9-.3-3-.3-1-.6-2.1-.9-2v.6c-.4.5-1.6.9-2.9 1-1 0-3-.1-3-.8z" fill="#232428"></path><path d="m371.9 267.9c-.4.5-.6-.7-1.9-.6-.8 0-2.3.6-2.2 0h-1.6c-.2 1.3-1.8 5.1-4.1 7.2-.4.4-.9.8-1.4 1.2-1 1.1-.7 2 1.6 2.2s4.3-1.2 6-3.3 3.6-6.7 3.6-6.7z" fill="#ffa8a7"></path><path d="m359.4 132.9h1.4c7.3 0 13.2-5.9 13.2-13.2v-1.3c0-6.1-5-11.1-11.1-11.1h-5.4c-6.1 0-11.1 5-11.1 11.1v1.3c-.1 7.3 5.8 13.2 13 13.2z" fill="#232428"></path><path d="m350.8 112.9c-1.5.9-3.3 4.5-3.1 12.2.2 6.5 2.3 8.1 3.3 8.6 1.1.5 3.1.2 5.1-.1v3.9s-2.7 3.2-2.6 5c.2 1.8 4 2.2 6.5.5 2.6-1.8 4.7-5.2 4.7-5.2v-9s1.2 1.1 3.2-.6c1.6-1.4 2.2-3.8.9-5.1s-3.6-.9-4.5.9c0 0-3.2.1-7.4-2.2-4.2-2.4-5.8-6.4-6.1-8.9z" fill="#ffa8a7"></path><path d="m355 123.5c0 .5.3.9.8.9s.8-.3.9-.8c0-.5-.3-.9-.8-.9s-.8.3-.9.8z" fill="#263238"></path><path d="m354.8 129-1.9.6c.2.5.7.9 1.2.7.6-.2.9-.7.7-1.3z" fill="#f28f8f"></path><path d="m348.3 121 1.7-1.1c-.3-.5-.9-.6-1.4-.3s-.6.9-.3 1.4z" fill="#263238"></path><path d="m348.7 122.9c0 .5.3.9.8.9s.8-.3.9-.8c0-.5-.3-.9-.8-.9s-.9.3-.9.8z" fill="#263238"></path><path d="m352.6 122.4-.2 5-2.6-.8z" fill="#f28f8f"></path><path d="m356.2 133.6c2.1-.3 6.4-1.5 7.1-3.2 0 0-.2 1.1-1.5 2.2s-5.6 2.3-5.6 2.3z" fill="#f28f8f"></path><path d="m371 160.6-5.7 7.8 3.5-1.8z" fill="#ee4922"></path><path d="m371 160.6-5.7 7.8 3.5-1.8z" fill="#fff" opacity=".06"></path></svg> 