<?xml version="1.0" encoding="UTF-8"?> <svg xmlns="http://www.w3.org/2000/svg" viewBox="0 0 472 472"><ellipse cx="236" cy="285.9" fill="#f5f5f5" rx="236" ry="149.1"></ellipse><path d="m271.1 374.1c-13.3 7.7-13.3 20.1 0 27.8s34.8 7.7 48.1 0 13.3-20.1 0-27.8c-13.3-7.6-34.8-7.6-48.1 0z" fill="#e0e0e0"></path><ellipse cx="381" cy="340" fill="#e0e0e0" rx="27.2" ry="15.7"></ellipse><path d="m124.8 346.6-6.5-3.7c-2-1.2-2-3.1 0-4.3l87.8-50.5c2-1.2 5.4-1.2 7.4 0l6.5 3.7c2 1.2 2 3.1 0 4.3l-87.8 50.5c-2.1 1.2-5.4 1.2-7.4 0z" fill="#e0e0e0"></path><path d="m44.7 353.5-16.2-9.3c-1.2-.7-1.2-1.8 0-2.5l214.8-124c1.2-.7 3.2-.7 4.4 0l16.2 9.3c1.2.7 1.2 1.8 0 2.5l-214.8 124c-1.2.7-3.2.7-4.4 0z" fill="#e0e0e0"></path><path d="m270.7 239.4-26.4-15.3c-1.2-.7-1.2-1.8 0-2.5l74.4-42.9c1.2-.7 3.2-.7 4.4 0l26.4 15.3c1.2.7 1.2 1.8 0 2.5l-74.5 42.9c-1.2.7-3.1.7-4.3 0z" fill="#e0e0e0"></path><path d="m268.4 182.4 41.9 24.2c1.6.9 4.1.9 5.6 0l57.9-33.8c1.6-.9 1.6-2.4 0-3.3l-41.9-24.2c-1.6-.9-4.1-.9-5.6 0l-57.9 33.8c-1.6 1-1.6 2.4 0 3.3z" fill="#e0e0e0"></path><path d="m44 312.9s-.5-11.2-5.5-20.3c-5-9-12.3-14.9-19.3-16-7.1-1-13.3 5.1-5.9 10.1 7.3 5 20.5 10.5 25.7 27.7z" fill="#ee4922"></path><path d="m44 312.9s-.5-11.2-5.5-20.3c-5-9-12.3-14.9-19.3-16-7.1-1-13.3 5.1-5.9 10.1 7.3 5 20.5 10.5 25.7 27.7z" opacity=".2"></path><path d="m42.1 309.9s.1 0 0 0c.3-.1.4-.3.3-.5-6.3-19-20.1-27.7-26.5-29.6-.2-.1-.4.1-.5.3s.1.4.3.5c6.3 1.9 19.8 10.4 26 29.1.1.1.2.2.4.2z" fill="#fff"></path><path d="m3.8 308.3c.6 1.6 2.2 2.5 3.7 3.2s3.2 1.5 3.9 3c1.5 3.1-1.6 7 .1 10 .7 1.3 2.1 2 3.5 2.3 1.2.3 2.3.4 3.5.5h1.7c1.6-.1 3.4-.1 4.8.8 2.3 1.5 2.8 4.5 4.1 6.9 1.5 2.8 4.4 4.8 7.6 5.5 1 .2 3 .5 4.1 0 .1 0 .2-.1.2-.1.2-.2.4-.4.4-.5 0 0 0 0 0-.1.5-1.5-.1-3.1 0-4.7 0-.1 0-.2 0-.3.2-1.8.4-3.7.5-5.5.3-3.4.6-6.7.8-10.1.1-2.2.5-4.6-.2-6.7-.9-2.3-3.4-2.6-4.2-4.8-.3-.9-.5-1.9-.8-2.8-.9-2.7-3.5-4.8-6.4-5.1-4.4-.5-8.7 2.8-13.1 2.2-1.1-.2-2.2-.6-3.4-.9-3.6-.9-7.8-.2-10 2.8-.8 1.3-1.3 2.9-.8 4.4z" fill="#ee4922"></path><path d="m42.4 332.9c.2 0 .4-.2.3-.5-4.6-23.4-28.8-28.4-34.5-28.3-.2 0-.4.2-.4.4s.2.4.4.4c5.6 0 29.2 4.8 33.7 27.8.1.1.3.2.5.2z" fill="#fff"></path><path d="m16.1 319.4c.1 0 .1 0 .2-.1s6.7-5.8 16.9-3.6c.2 0 .4-.1.5-.3 0-.2-.1-.4-.3-.5-10.6-2.3-17.5 3.7-17.5 3.8-.2.1-.2.4 0 .5 0 .2.1.3.2.2z" fill="#fff"></path><path d="m55 338.2 199.5-115.2v-168.7l-199.5 115.2z" fill="#ee4922"></path><path d="m46.9 164.8 8.1 4.7 199.5-115.2 8.1-14z" fill="#37474f"></path><path d="m262.6 227.7v-187.5l-8.1 14.1v168.7z" fill="#2f3037"></path><path d="m46.9 164.8 8.1 4.7v168.7l-8.1 14.1z" fill="#2f3037"></path><path d="m55 338.2 199.5-115.2 8.1 4.7-215.7 124.6z" fill="#37474f"></path><path d="m46.9 164.8 8.1 4.7 199.5-115.2 8.1-14z" fill="#232428"></path><path d="m55 338.2 199.5-115.2 8.1 4.7-215.7 124.6z" fill="#3e4049"></path><path d="m262.6 40.3-5.4-3.2-215.7 124.6 5.4 3.1z" fill="#3e4049"></path><path d="m41.5 161.7 5.4 3.1v187.5l-5.4-3.1z" fill="#232428"></path><path d="m254.5 54.3-2.7 1.6v165.6l-196.8 113.6v3.1l199.5-115.2z" opacity=".1"></path><path d="m103.4 151.6-44.5 25.7v63.3l44.5-25.7z" opacity=".1"></path><path d="m60.6 178.3 44.5-25.7 3.4 2-44.5 25.7z" fill="#fafafa"></path><path d="m60.6 178.3v63.3l3.4 1.9v-63.2z" fill="#e0e0e0"></path><path d="m108.5 154.6-44.5 25.7v63.2l44.5-25.7z" fill="#f5f5f5"></path><path d="m67.4 182.3 37.7-21.8v47.5l-37.7 21.7z" fill="#ee4922"></path><path d="m67.4 182.3 37.7-21.8v47.5l-37.7 21.7z" fill="#fff" opacity=".75"></path><path d="m67.4 213.9 14.7-21.8 15.7 10.4-5-5.6 5-7.7 7.3 5.6v13.2l-37.7 21.7z" fill="#ee4922"></path><path d="m93 176.8c-1.9 1.1-3.4 3.7-3.4 5.9s1.5 3.1 3.4 2 3.4-3.7 3.4-5.9-1.5-3.1-3.4-2z" fill="#ee4922"></path><path d="m89.1 174.3c-.1.1-.2.2-.3.2-.2.1-.2 0-.4-.1-.3-.2-.7-.4-1.2-.7s-1.1-.6-1.6-1c-.6-.4-1.2-.7-1.9-1.2-.2-.1.2-.7.4-.6.7.3 1.3.7 1.9 1s1.2.7 1.7.9c.5.3.9.5 1.2.7.1.1.3.1.3.3v.3c-.1.1-.1.2-.1.2z" fill="#3e4049"></path><path d="m90.3 175.1c-.9 1.6-2.4 2.4-3.9 1.6h-.1c-.4-.3-.7-.8-.7-1.5 0-1.5 1.1-3.3 2.4-4.1.6-.3 1.2-.4 1.6-.2h.1s.1.1.1.1c1.4.9 1.4 2.6.5 4.1z" fill="#232428"></path><path d="m92.2 178.2 1.8-3c-.3-.2-2.4-1.2-3.7-2.6 0 0 0 0-.1-.1 0 0 0 0-.1-.1-.3-.2-.7-.2-1.2 0-.8.5-1.5 1.7-1.5 2.7 0 .5.2.8.4 1 .1.1.2.1.3.1 2.2.7 3.8 1.8 4.1 2z" fill="#3e4049"></path><path d="m95.5 175.8c0-1-.8-1.8-1.8-1.8-.2 0-.5 0-.7.1s0 0-.1 0-.2.1-.3.1c-1 .6-1.9 2-1.9 3.2 0 .2 0 .3.1.5.2.9.9 1.5 1.8 1.5 1 0 1.8-.8 1.8-1.8 0-.1 0-.1 0-.2.7-.2 1.1-.9 1.1-1.6z" fill="#232428"></path><path d="m93.7 174.9c1-.6 1.9-.1 1.9 1.1s-.8 2.6-1.9 3.2c-1 .6-1.9.1-1.9-1.1s.8-2.7 1.9-3.2z" fill="#3e4049"></path><path d="m117.2 151.7 119.8-69.2v102.8l-119.8 69.2z" opacity=".1"></path><path d="m122.2 154.6 119.9-69.2v102.8l-119.9 69.2z" fill="#f5f5f5"></path><path d="m118.8 152.6v102.8l3.4 2v-102.8z" fill="#e0e0e0"></path><path d="m242.1 85.4-3.5-2-119.8 69.2 3.4 2z" fill="#ee4922"></path><path d="m242.1 85.4-3.5-2-119.8 69.2 3.4 2z" fill="#fff" opacity=".8"></path><path d="m118.8 152.6 3.4 2v19.8l-3.4-2z" fill="#ee4922"></path><path d="m118.8 152.6 3.4 2v19.8l-3.4-2z" fill="#fff" opacity=".5"></path><path d="m122.2 174.4 119.9-69.2v-19.8l-119.9 69.2z" fill="#ee4922"></path><path d="m122.2 174.4 119.9-69.2v-19.8l-119.9 69.2z" fill="#fff" opacity=".65"></path><path d="m174.7 129.5-3.1 1.8c-.1 0-.1 0-.2 0s-.1-.1-.1-.2v-1c0-.1 0-.2.1-.3s.1-.2.2-.2l4.2-2.4h.2c.1.1.1.1.1.2v6.2c0 1.3-.2 2.3-.7 3.3-.5.9-1.1 1.6-2 2.1-.5.3-.8.4-1.2.4-.3 0-.6-.1-.8-.2-.2-.2-.4-.4-.5-.8-.1-.3-.2-.7-.2-1.2 0-.1 0-.2.1-.3s.1-.2.2-.2l.8-.4h.2c.1 0 .1.1.1.1 0 .2.1.3.1.5.1.1.1.3.3.3.1.1.2.1.4.1s.3-.1.6-.2c.4-.3.8-.6 1-1.1s.4-1.1.4-1.7v-4.8z" fill="#3e4049"></path><path d="m177.3 129.2c0-.1 0-.2.1-.3s.1-.2.2-.2l.7-.4h.2c.1 0 .1.1.1.2v3.7c0 .6.1 1 .2 1.3.2.3.4.3.8.1.3-.2.6-.5.8-1s.3-1 .3-1.6v-3.7c0-.1 0-.2.1-.3s.1-.2.2-.2l.7-.4h.2c.1 0 .1.1.1.2v6.8c0 .1 0 .2-.1.3s-.1.2-.2.2l-.7.4c-.1 0-.1 0-.2 0s-.1-.1-.1-.2v-.3c-.1.3-.3.6-.5.9s-.5.5-.8.7c-.4.2-.7.3-1 .3s-.5-.2-.6-.4c-.2-.2-.3-.5-.3-.9-.1-.4-.1-.8-.1-1.3v-3.9z" fill="#3e4049"></path><path d="m187.9 130c0 .1 0 .2-.1.3s-.1.2-.2.2l-.7.4c-.1 0-.1 0-.2 0s-.1-.1-.1-.2v-3.7c0-.6-.1-1-.3-1.3-.2-.2-.5-.3-.8-.1s-.6.5-.8 1-.3 1-.3 1.6v3.7c0 .1 0 .2-.1.3s-.1.2-.2.2l-.7.4c-.1 0-.1 0-.2 0s-.1-.1-.1-.2v-6.8c0-.1 0-.2.1-.3s.1-.2.2-.2l.7-.4h.2c.1 0 .1.1.1.2v.3c.2-.3.4-.7.6-1s.5-.5.8-.7c.4-.2.7-.3 1-.3s.5.2.6.4c.2.2.3.5.3.9.1.4.1.8.1 1.3v4z" fill="#3e4049"></path><path d="m188.9 126c0-.5.1-1.1.2-1.6s.3-1.1.5-1.5c.2-.5.5-.9.7-1.3.3-.4.6-.7 1-.9s.7-.3 1-.3.5.2.7.4.4.5.5.9.2.8.2 1.3v.7c0 .1 0 .2-.1.3s-.1.2-.2.2l-3.2 1.8c0 .2 0 .4.1.5s.1.2.2.3.2.1.4.1c.1 0 .3-.1.4-.1.2-.1.4-.2.5-.4.1-.1.2-.3.3-.4s.1-.2.2-.3c0-.1.1-.1.2-.1l.8-.4h.2c.1 0 .1.1.1.2s-.1.3-.1.6c-.1.3-.2.6-.4.9s-.4.6-.7.9-.6.6-.9.8c-.4.2-.7.3-1 .3s-.5-.2-.7-.4-.4-.6-.5-1c-.4-.4-.4-.9-.4-1.5zm2.3-3.6c-.2.1-.3.2-.5.4-.1.2-.2.3-.3.5s-.2.4-.2.6-.1.4-.1.5l2.2-1.2c0-.1 0-.3-.1-.4 0-.1-.1-.3-.2-.3-.1-.1-.2-.1-.3-.1-.1-.1-.3-.1-.5 0z" fill="#3e4049"></path><path d="m130.4 179.5c0 1.1.8 1.5 1.8.9l9-5.2c1-.6 1.8-1.9 1.8-3s-.8-1.5-1.8-.9l-9 5.2c-1 .6-1.8 2-1.8 3z" fill="#3e4049"></path><path d="m145.5 170.8c0 1.1.8 1.5 1.8.9l9-5.2c1-.6 1.8-1.9 1.8-3s-.8-1.5-1.8-.9l-9 5.2c-1 .5-1.8 1.9-1.8 3z" fill="#3e4049"></path><path d="m160.7 162c0 1.1.8 1.5 1.8.9l9-5.2c1-.6 1.8-1.9 1.8-3s-.8-1.5-1.8-.9l-9 5.2c-1 .6-1.8 1.9-1.8 3z" fill="#3e4049"></path><path d="m175.8 153.3c0 1.1.8 1.5 1.8.9l9-5.2c1-.6 1.8-1.9 1.8-3s-.8-1.5-1.8-.9l-9 5.2c-1 .5-1.8 1.9-1.8 3z" fill="#3e4049"></path><path d="m191 144.5c0 1.1.8 1.5 1.8.9l9-5.2c1-.6 1.8-1.9 1.8-3s-.8-1.5-1.8-.9l-9 5.2c-1 .6-1.8 1.9-1.8 3z" fill="#3e4049"></path><path d="m206.1 135.8c0 1.1.8 1.5 1.8.9l9-5.2c1-.6 1.8-1.9 1.8-3s-.8-1.5-1.8-.9l-9 5.2c-.9.5-1.8 1.9-1.8 3z" fill="#3e4049"></path><path d="m221.3 127c0 1.1.8 1.5 1.8.9l9-5.2c1-.6 1.8-1.9 1.8-3s-.8-1.5-1.8-.9l-9 5.2c-1 .6-1.8 1.9-1.8 3z" fill="#3e4049"></path><g fill="#e0e0e0"><path d="m235.2 184.7c-.2 0-.4-.2-.4-.4v-55.4c0-.2.2-.4.4-.4s.4.2.4.4v55.4c0 .2-.1.4-.4.4z"></path><path d="m220.1 193.4c-.2 0-.4-.2-.4-.4v-55.4c0-.2.2-.4.4-.4s.4.2.4.4v55.4c0 .2-.2.4-.4.4z"></path><path d="m204.9 202.2c-.2 0-.4-.2-.4-.4v-55.4c0-.2.2-.4.4-.4s.4.2.4.4v55.4c0 .2-.2.4-.4.4z"></path><path d="m189.7 210.9c-.2 0-.4-.2-.4-.4v-55.4c0-.2.2-.4.4-.4s.4.2.4.4v55.4c0 .2-.1.4-.4.4z"></path><path d="m174.6 219.7c-.2 0-.4-.2-.4-.4v-55.4c0-.2.2-.4.4-.4s.4.2.4.4v55.4c0 .2-.2.4-.4.4z"></path><path d="m159.4 228.4c-.2 0-.4-.2-.4-.4v-55.4c0-.2.2-.4.4-.4s.4.2.4.4v55.4c0 .2-.2.4-.4.4z"></path><path d="m144.2 237.2c-.2 0-.4-.2-.4-.4v-55.4c0-.2.2-.4.4-.4s.4.2.4.4v55.4c.1.2-.1.4-.4.4z"></path><path d="m129.1 245.9c-.2 0-.4-.2-.4-.4v-55.4c0-.2.2-.4.4-.4s.4.2.4.4v55.4c0 .3-.2.4-.4.4z"></path><path d="m129.1 204.4c-.1 0-.3-.1-.4-.2-.1-.2 0-.5.2-.6l106.1-61.2c.2-.1.5 0 .6.2s0 .5-.2.6l-106.1 61.3c-.1-.1-.2-.1-.2-.1z"></path><path d="m129.1 218.3c-.1 0-.3-.1-.4-.2-.1-.2 0-.5.2-.6l106.1-61.3c.2-.1.5 0 .6.2s0 .5-.2.6l-106.1 61.3c-.1 0-.2 0-.2 0z"></path><path d="m129.1 232.1c-.1 0-.3-.1-.4-.2-.1-.2 0-.5.2-.6l106.1-61.3c.2-.1.5 0 .6.2s0 .5-.2.6l-106.1 61.3c-.1 0-.2 0-.2 0z"></path><path d="m129.1 245.9c-.1 0-.1 0-.2-.1s-.2-.2-.2-.4v-55.4c0-.2.1-.3.2-.4l106.1-61.1c.1-.1.3-.1.4 0s.2.2.2.4v55.4c0 .2-.1.3-.2.4l-106.1 61.3c-.1-.1-.2-.1-.2-.1zm.4-55.5v54.4l105.3-60.8v-54.4z"></path></g><path d="m164.7 199 .9 1.8c.1.1.2.2.3.1l1.9-.7c.3-.1.4.3.2.7l-1.4 2.6c-.1.2-.1.4-.1.5l.3 2.4c.1.4-.3.9-.5.8l-1.7-.2c-.1 0-.2.1-.3.2l-1.7 2.2c-.3.3-.6.2-.5-.2l.3-2.7c0-.2 0-.3-.1-.4l-1.4-1c-.2-.2-.1-.7.2-1l1.9-1.5c.1-.1.2-.3.3-.4l.9-2.8c0-.5.4-.7.5-.4z" fill="#f2a38f"></path><path d="m220 159.8c-.1-1.7-.7-3.4-2.5-4-2.1-.8-3.9.9-5.2 2.3-.3.4.3.5.6.3 1.4-1.3 3.9-2.6 5.3-.8 1.4 1.7.7 4.2 0 6.1-1.2 3.1-4.4 6.1-8 5.8-7.9-.6.6-14.5 5.3-15.2.4-.1.6-.7.1-.7-2.4-.4-4 1.7-5.5 3.3-1.6 1.8-2.9 3.7-3.8 6-1.6 4.2.8 9.3 5.9 7.7 4.6-1.5 8.1-5.9 7.8-10.8z" fill="#f2a38f"></path><path d="m147.9 222.1c-.4-.8-1.1-1.3-1.6-1.9-.2-.3-.8.1-.6.4.3.8 1 1.2 1.4 1.9.1.1.1.2.2.3-1-.8-3-1.1-3.9-1.3-2.8-.7-5.4-.2-8 .7-.2.1-.1.3.1.4.5 0 .7-.1 1.2-.2 1.3-.3 2.8-.4 4.2-.3 1.3.1 4.5.5 5.8 1.5-1.4-.2-2.8-.1-3.7.9-.1.1-.1.3.1.4.9.1 1.6-.2 2.5-.2 1 0 2 .2 3 .5.4.1.7-.3.6-.6-.1-1-.8-1.7-1.3-2.5z" fill="#f2a38f"></path><path d="m240.2 98c-.1.1-.2.2-.3.2-.2.1-.2 0-.4-.1-.3-.2-.7-.4-1.2-.7s-1.1-.6-1.6-1c-.6-.4-1.2-.7-1.9-1.2-.2-.1.2-.7.4-.6.7.3 1.3.7 1.9 1s1.2.7 1.7.9c.5.3.9.5 1.2.7.1.1.3.1.3.3v.3c-.1.1-.1.2-.1.2z" fill="#3e4049"></path><path d="m241.4 98.8c-.9 1.6-2.4 2.4-3.9 1.6h-.1c-.4-.3-.7-.8-.7-1.5 0-1.5 1.1-3.3 2.4-4.1.6-.3 1.2-.4 1.6-.2h.1s.1.1.1.1c1.4.9 1.4 2.6.5 4.1z" fill="#232428"></path><path d="m243.3 101.9 1.8-3c-.3-.2-2.4-1.2-3.7-2.6 0 0 0 0-.1-.1 0 0 0 0-.1-.1-.3-.2-.7-.2-1.2 0-.8.5-1.5 1.7-1.5 2.7 0 .5.2.8.4 1 .1.1.2.1.3.1 2.2.8 3.8 1.8 4.1 2z" fill="#3e4049"></path><path d="m246.6 99.5c0-1-.8-1.8-1.8-1.8-.2 0-.5 0-.7.1s0 0-.1 0-.2.1-.3.1c-1 .6-1.9 2-1.9 3.2 0 .2 0 .3.1.5.2.9.9 1.5 1.8 1.5 1 0 1.8-.8 1.8-1.8 0-.1 0-.1 0-.2.7-.2 1.1-.9 1.1-1.6z" fill="#232428"></path><path d="m244.7 98.6c1-.6 1.9-.1 1.9 1.1s-.8 2.6-1.9 3.2c-1 .6-1.9.1-1.9-1.1.1-1.2.9-2.6 1.9-3.2z" fill="#3e4049"></path><path d="m133.5 159.2s-.1.1 0 0c-.1.1-.2.2-.3.2-.2.1-.2 0-.4-.1-.3-.2-.7-.4-1.2-.7s-1.1-.6-1.6-1c-.6-.4-1.2-.7-1.9-1.2-.2-.1.2-.7.4-.6.7.3 1.3.7 1.9 1s1.2.7 1.7.9c.5.3.9.5 1.2.7.1.1.3.1.3.3v.3c-.1.2-.1.2-.1.2z" fill="#3e4049"></path><path d="m134.7 160.1c-.9 1.6-2.4 2.4-3.9 1.6h-.1c-.4-.3-.7-.8-.7-1.5 0-1.5 1.1-3.3 2.4-4.1.6-.3 1.2-.4 1.6-.2h.1s.1.1.1.1c1.4.9 1.4 2.5.5 4.1z" fill="#232428"></path><path d="m136.6 163.2 1.8-3c-.3-.2-2.4-1.2-3.7-2.6 0 0 0 0-.1-.1 0 0 0 0-.1-.1-.3-.2-.7-.2-1.2 0-.8.5-1.5 1.7-1.5 2.7 0 .5.2.8.4 1 .1.1.2.1.3.1 2.1.7 3.7 1.8 4.1 2z" fill="#3e4049"></path><path d="m139.8 160.8c0-1-.8-1.8-1.8-1.8-.2 0-.5 0-.7.1s0 0-.1 0-.2.1-.3.1c-1 .6-1.9 2-1.9 3.2 0 .2 0 .3.1.5.2.9.9 1.5 1.8 1.5 1 0 1.8-.8 1.8-1.8 0-.1 0-.1 0-.2.7-.2 1.1-.9 1.1-1.6z" fill="#232428"></path><path d="m138 159.8c1-.6 1.9-.1 1.9 1.1s-.8 2.6-1.9 3.2c-1 .6-1.9.1-1.9-1.1s.9-2.6 1.9-3.2z" fill="#3e4049"></path><path d="m62.3 263.7v51.4l42.6-24.5v-51.4z" opacity=".1"></path><path d="m109.8 293.1s-25.1 14.1-28.3 15.8c-3.2 1.8-5.2-3.3-5.2-6.4-3.2 2-9.6 3.3-10-.7l-2.3-29.3 42.6-24.6z" fill="#3e4049"></path><path d="m106.6 247.9-42.6 24.6v-7.9l42.6-24.6z" fill="#2f3037"></path><path d="m67.6 303.9 11.7 5.2-3.7-9.5z" fill="#37474f"></path><path d="m82 275c-.3 1.2-1 1.7-1.5.9-.3-.5-.3-1.7-.3-2.5 0-2.1-.1-4.1-.1-6.1 0-.6-.6-.1-.6.5v5.6c-.4-1.5-2.2.3-2.9 1.7-.8 1.4-1.8 4.7-.5 5 1.1.3 2.8-1.9 3.7-3.8.1.4.2.7.4.9.7.7 2.1-.8 2.1-2.4.1-.4-.2-.1-.3.2zm-2.6 0c0 .4-.1.9-.3 1.3-.2.7-.6 1.3-1 1.8-.3.4-.6.7-.9.9s-.6.1-.8-.2c-.2-.4-.1-1.2.1-2 .3-1.1.9-2.2 1.5-2.8.6-.5 1.1-.5 1.3.3.1.3.1.5.1.7z" fill="#fafafa"></path><path d="m96.7 265.4c-.3 1.2-1 1.7-1.5.9-.3-.5-.3-1.7-.3-2.5 0-2.1-.1-4.1-.1-6.1 0-.6-.6-.1-.6.5v5.6c-.4-1.5-2.2.3-2.9 1.7-.8 1.4-1.8 4.7-.5 5 1.1.3 2.8-1.9 3.7-3.8.1.4.2.7.4.9.7.7 2.1-.8 2.1-2.4.1-.3-.2-.1-.3.2zm-2.5.1c0 .4-.1.9-.3 1.3-.2.7-.6 1.3-1 1.8-.3.4-.6.7-.9.9s-.6.1-.8-.2c-.2-.4-.1-1.2.1-2 .3-1.1.9-2.2 1.5-2.8.6-.5 1.1-.5 1.3.3.1.2.1.4.1.7z" fill="#fafafa"></path><path d="m85.5 272.4c-.5.9-.8 1.8-1.5 2.3-.2.2-.5.3-.8.3-.5 0-.5-.7-.5-1.5.5-.2 1-.7 1.5-1.5.4-.8.7-1.7.6-2.5-.2-2.2-1.9.4-2.3 1.8-.2.6-.2 1.2-.3 1.8 0 0-.1 0-.1.1-.1.1-.3.6-.1.5h.1v.9c0 .9.3 1.4.8 1.5.6 0 1.3-.5 1.9-1.3.4-.6 1-1.6.9-2.4.1-.2-.1-.2-.2 0zm-2.6-.6c.1-.5 1.1-2.9 1.4-1.8.3 1.2-.7 2.1-1.5 2.7 0-.3 0-.6.1-.9z" fill="#fafafa"></path><path d="m91.3 270c-.1-.1-.2-.2-.3-.3s-.1.1-.1.1c-.5.6-.9.6-1.1-.1s-.2-1.7-.2-2.6c0-.1 0-.2 0-.3v-.1c0-.4-.3-.3-.5 0-.5-2.2-4.1 3.8-3.4 6.2.4 1.3 1.7.5 2.5-.5.4-.5.7-1.2.9-1.8.1.4.3.8.6.9.5.3 1.2-.5 1.6-1.5 0 .1 0 .1 0 0zm-2.5-.4c-.1.8-.6 1.6-1 2.1-.3.4-1 .8-1.3.6-.1-.1-.2-.4-.2-.7s.1-.6.2-.9c.2-.8.5-1.6.8-2.2.4-.6 1.1-1.3 1.5-1 .3.2.1 1.5 0 2.1z" fill="#fafafa"></path><path d="m93.6 279.5c-.5.9-.8 1.8-1.5 2.3-.2.2-.5.3-.8.3-.5 0-.5-.7-.5-1.5.5-.2 1-.7 1.5-1.5.4-.8.7-1.7.6-2.5-.2-2.2-1.9.4-2.3 1.8-.2.6-.2 1.2-.3 1.8 0 0-.1 0-.1.1-.1.1-.3.6-.1.5h.1v.9c0 .9.3 1.4.8 1.5.6 0 1.3-.5 1.9-1.3.4-.6 1-1.6.9-2.4.1-.2-.1-.1-.2 0zm-2.6-.6c.1-.5 1.1-2.9 1.4-1.8.3 1.2-.7 2.1-1.5 2.7 0-.3 0-.5.1-.9z" fill="#fafafa"></path><path d="m83.5 287.1h-.1c-.2.2-.4.4-.6.6s-.4.3-.6.2-.2-.5-.2-.9c0-1.4 0-2.8 0-4.2 0-.7 0-1.4.1-2.1 0-.7.1-1.3-.1-1.9 0-.1-.3 0-.3.2-.3 3-.4 5.9-.3 8.7 0 .8.3 1.4.9 1.1.4.1 1.3-.8 1.2-1.7.1.1.1.1 0 0z" fill="#fafafa"></path><path d="m85.3 286.2c-.3.1-.5.2-.6-.2s-.1-1.1 0-1.6c0-.9.2-2.1.1-3 0-.2-.3.1-.4.3-.3 1.5-.4 3.4-.3 4.8.1.9.8 1.3 1.3.1 0-.2 0-.4-.1-.4z" fill="#fafafa"></path><path d="m85.4 278.1c-.1-.1-.3.1-.5.3-.1 0-.1.1-.2.2-.2.3-.3.7-.2 1.1 0 .1.1.1.1.1.2 0 .5-.3.7-.8.1-.3.2-.8.1-.9z" fill="#fafafa"></path><path d="m89.5 283c0-.9 0-1.9 0-2.9 0-.7.1-1.8-.5-1.7-1.1.1-1.7 2.5-2.1 4.5 0-.9-.1-1.8-.2-2.6 0-.3-.4.1-.4.3-.1 1.7 0 3.4.1 5 0 .5.4.1.5-.3.2-1.1.4-2.2.6-3.4.1-.6.3-1.3.5-1.8.7-1.4.8-.4.8.4v2.2c0 .6-.1 1.5.1 1.9 0 .1.1.2.2.1s.2-.3.3-.4c0-.2 0-.4 0-.5.1-.2.1-.5.1-.8z" fill="#fafafa"></path><path d="m94 292.5c-.1-.8-.1-1.5-.5-1.9-.5-.4-.9-.1-1.4.1.5-1 1.5-2.1 1.4-3.2-.1-1.3-2.1.6-2.7 1-.1 0-.1.1-.2.2-.1.2-.1.4 0 .4.4-.2.9-.4 1.3-.7.1-.1.7-.6.8-.5s-.3 1-.4 1c-.3.7-.9 1.4-1.1 2.2-.1.2 0 .5.1.5.2 0 .5-.2.7-.2 1.1.1 1.3.4 1.3 1.7.1 1.3-.4 2.6-1.2 3.4-.5.5-1 .6-1.4.4-.4-.3-.3-.9.3-1.8.2-.2.2-.7 0-.6-.8.2-1.4 1.4-1.2 2.5.4 1.6 1.6 1.4 2.7.1 1.4-1.3 1.6-2.9 1.5-4.6z" fill="#fafafa"></path><path d="m89.2 298.7c0-.1-.1-.1-.1-.2-.3-.2-.8.2-1 .4-.8.5-1.5 1-2.3 1.4.2-.7.4-1.4.7-2.2.5-1.1.9-2.2 1.3-3.4s1.2-2.9.6-3.8-1.7.3-2.1.8-.7 1-.9 1.6c-.1.2-.3.5-.3.7 0 .3.2.4.4.2.1-.1.1-.2.2-.3l.3-.6c.1-.3.2-.6.4-.8.2-.3.4-.5.6-.7s.6-.4.8-.1.1.7.1 1c-.2.9-.6 1.7-.9 2.6-.4 1-.8 2-1.3 3-.4.9-.5 1.6-.7 2.5-.1.4 0 .7.2.6.5-.1 1-.5 1.4-.7.7-.4 1.4-.9 2.1-1.2.1 0 .2-.1.3-.1.2-.1.3-.4.2-.7z" fill="#fafafa"></path><path d="m310.6 202.7-38.1-21.9v-81.6l38.1 22z" fill="#232428"></path><path d="m310.6 148.4-38.1 9.2v23.2l38.1 21.9z" opacity=".25"></path><path d="m310.6 121.2 54.3-31.4v81.6l-54.3 31.3z" fill="#2f3037"></path><path d="m364.9 89.8-54.3 31.4-38.1-22 54.4-31.3z" fill="#3e4049"></path><path d="m334 120.2 7.4-4.3c1-.6 1.7-.3 1.7.6s-.8 2-1.7 2.6l-7.4 4.3c-1 .6-1.7.3-1.7-.6s.8-2.1 1.7-2.6z" fill="#263238"></path><path d="m315 162.6 43.5-25.1 1 .5-1 29.7 1 .5-43.5 25.1-1-.5z" fill="#232428"></path><path d="m316 163.1 43.5-25.1v30.2l-43.5 25.1z" fill="#3e4049"></path><path d="m333 158.4 7.4-4.3c1-.6 1.7-.3 1.7.6s-.8 2-1.7 2.6l-7.4 4.3c-1 .6-1.7.3-1.7-.6s.8-2 1.7-2.6z" fill="#263238"></path><path d="m315 125 43.5-25.1 1 .6-1 29.6 1 .6-43.5 25.1-1-.6z" fill="#232428"></path><path d="m316 125.6 43.5-25.1v30.2l-43.5 25.1z" fill="#3e4049"></path><path d="m310.6 151 17.8-10.3c.4-.2.8-.2 1.1-.1s-.7-.4-1.4-.8c-.4-.2-.7-.5-1.2-.5-.1 0-.2 0-.2 0h-.1c-.1 0-.2.1-.4.2l-15.6 9z" opacity=".25"></path><path d="m333 120.8 7.4-4.3c1-.6 1.7-.3 1.7.6s-.8 2-1.7 2.6l-7.4 4.3c-1 .6-1.7.3-1.7-.6s.8-2 1.7-2.6z" fill="#232428"></path><path d="m344.9 195.5-67.6 39-4.1 2.4c-.1 0-.1.1-.2.1-.1.1-.2.1-.3.1-.1.1-.3.1-.4.1s-.2 0-.3 0c0 0 0 0-.1 0s-.2 0-.4 0c-.4 0-.8-.1-1.1-.2-.7-.4-1.4-1.5-1.5-2.4l-11.4-59.2c0-.1 0-.3 0-.4s0-.2 0-.3c0-.2.1-.3.1-.5.1-.2.1-.3.2-.5 0-.1.1-.2.2-.3s.1-.2.2-.3.2-.2.2-.2c.1-.1.2-.1.3-.2l71.7-41.4c.1 0 .1-.1.2-.1s.1-.1.2-.1h.1.3c.4 0 .8.3 1.3.6.8.5 1.6.9 1.6.9.1 0 .2.1.3.2s.2.3.3.5c0 .1 0 .2.1.2l11.4 59.2c.1 1.2-.4 2.3-1.3 2.8z" fill="#ee4922"></path><path d="m344.9 195.5-67.6 39-4.1 2.4c-.1 0-.1.1-.2.1-.1.1-.2.1-.3.1-.1.1-.3.1-.4.1s-.2 0-.3 0c0 0 0 0-.1 0s-.2 0-.4 0c-.4 0-.8-.1-1.1-.2-.7-.4-1.4-1.5-1.5-2.4l-11.4-59.2c0-.1 0-.3 0-.4s0-.2 0-.3c0-.2.1-.3.1-.5.1-.2.1-.3.2-.5 0-.1.1-.2.2-.3s.1-.2.2-.3.2-.2.2-.2c.1-.1.2-.1.3-.2l71.7-41.4c.1 0 .1-.1.2-.1s.1-.1.2-.1h.1.3c.4 0 .8.3 1.3.6.8.5 1.6.9 1.6.9.1 0 .2.1.3.2s.2.3.3.5c0 .1 0 .2.1.2l11.4 59.2c.1 1.2-.4 2.3-1.3 2.8z" fill="#ee4922"></path><path d="m273 237c-.8.4-1.9.5-2.6.1s-1.4-1.5-1.5-2.4l-11.4-59.2c-.1-.5 0-1.2.3-1.7l2.4 1.4c-.3.5-.4 1.1-.3 1.7l11.4 59.2c.2.9.9 1.3 1.7.9z" opacity=".45"></path><path d="m332.5 131.8c.8.5 1.6.9 1.6.9-.3-.2-.8-.1-1.2.1l-71.7 41.4c-.4.2-.7.6-.9 1l-2.4-1.4c0-.1.1-.2.2-.3s.1-.2.2-.3c.1-.2.3-.3.5-.4l71.7-41.4c.1-.1.3-.1.4-.2h.1.3c.3 0 .7.3 1.2.6z" opacity=".25"></path><path d="m271.3 236.1-11.4-59.2c-.2-1 .4-2.1 1.2-2.6l71.7-41.4c.9-.5 1.7-.1 1.9.9l11.4 59.2c.2 1-.4 2.1-1.2 2.6l-71.7 41.4c-.8.4-1.7 0-1.9-.9z" fill="#ee4922"></path><path d="m271.3 236.1-11.4-59.2c-.2-1 .4-2.1 1.2-2.6l71.7-41.4c.9-.5 1.7-.1 1.9.9l11.4 59.2c.2 1-.4 2.1-1.2 2.6l-71.7 41.4c-.8.4-1.7 0-1.9-.9z" opacity=".35"></path><path d="m275.4 222.6c-.6.3-1.4.3-1.8.1-.5-.3-1-1.1-1.1-1.8l-8.2-42.6c-.1-.4 0-.8.2-1.2l1.7 1c-.2.4-.3.8-.2 1.2l8.2 42.6c.1.6.6.9 1.2.7z" fill="#e0e0e0"></path><path d="m332 138.9c.6.4 1.1.7 1.1.7-.2-.1-.6-.1-.9.1l-65.4 37.8c-.3.2-.5.4-.6.7l-1.7-1c0-.1.1-.1.1-.2.1-.1.1-.1.2-.2s.2-.2.4-.3l65.4-37.8c.1-.1.2-.1.3-.1h.1.2c.2-.1.5.1.8.3z" fill="#fafafa"></path><path d="m274.2 221.9-8.2-42.6c-.1-.7.3-1.5.9-1.9l65.4-37.8c.6-.4 1.2-.1 1.4.6l8.2 42.6c.1.7-.3 1.5-.9 1.9l-65.4 37.8c-.7.3-1.3.1-1.4-.6z" fill="#f5f5f5"></path><path d="m347.8 139.2c0-.5-.2-.8-.4-1 0 0 0 0-.1-.1l-2.3-1.4c-.3-.2-.7-.1-1.1.1l-46.5 26.8-1.4-5.5c-.1-.4-.4-.7-.7-.9l-2.4-1.4c-.4-.2-1-.3-1.5 0l-19.8 11.4c-.9.5-1.6 1.8-1.6 2.8v65.9c0 .5.2.8.4 1l2.5 1.4c.3.1.7.1 1.1-.1l72.2-41.7c.9-.5 1.6-1.8 1.6-2.8z" fill="#ee4922"></path><path d="m295.3 157.3c-.4-.2-.9-.2-1.4.1l-19.8 11.4c-.4.3-.8.7-1.1 1.2l-2.4-1.4c.3-.5.7-1 1.1-1.2l19.8-11.4c.5-.3 1.1-.3 1.5 0z" opacity=".1"></path><path d="m347.3 138.1c-.3-.1-.7-.1-1.1.2l-46.5 26.8c-.9.5-1.8.1-2.1-.9l-.2-.6 46.5-26.8c.3-.1.5-.2.7-.2s.3 0 .4.1z" opacity=".1"></path><path d="m347.8 139.2v54.8c0 1-.7 2.3-1.6 2.8l-72.4 41.8c-.6.4-1.4-.1-1.4-.8v-66.1c0-.5.2-1.1.5-1.6s.7-.9 1.1-1.2l19.8-11.4c.5-.3 1-.3 1.4-.1.3.2.5.5.7.9l1.4 5.5.2.6c.3 1 1.3 1.4 2.1.9l46.5-26.8c.4-.2.8-.3 1.1-.2h.1c.3.1.5.4.5.9z" fill="#ee4922"></path><path d="m347.8 139.2v54.8c0 1-.7 2.3-1.6 2.8l-72.4 41.8c-.6.4-1.4-.1-1.4-.8v-66.1c0-.5.2-1.1.5-1.6s.7-.9 1.1-1.2l19.8-11.4c.5-.3 1-.3 1.4-.1.3.2.5.5.7.9l1.4 5.5.2.6c.3 1 1.3 1.4 2.1.9l46.5-26.8c.4-.2.8-.3 1.1-.2h.1c.3.1.5.4.5.9z" opacity=".2"></path><path d="m273 238.6-2.6-1.5c-.3-.2-.4-.5-.4-1v-65.9c0-.5.2-1.1.5-1.6l2.4 1.4c-.3.5-.5 1.1-.5 1.6v66.1c.1.4.3.8.6.9z" opacity=".45"></path><path d="m217 288.3c0-2-.7-4.3-1.9-6.2-1.1-2-2.7-3.7-4.5-4.7-1.7-1-3.3-1.1-4.4-.5l-63.5 36.7 9 15.5 63.5-36.7c1.1-.7 1.8-2.1 1.8-4.1z" fill="#f0f0f0"></path><path d="m215.2 282c-1.1-2-2.7-3.7-4.5-4.7-1.7-1-3.3-1.1-4.4-.5l-63.5 36.7 4.5 7.7 67.9-39.2c0 .1 0 .1 0 0z" fill="#f5f5f5"></path><path d="m145.5 318.3 67.6-39c-.8-.8-1.6-1.5-2.4-2-.2-.1-.4-.2-.5-.3l-66.4 38.3z" fill="#fafafa"></path><path d="m147.2 314c1.7 1 3.3 2.7 4.5 4.7 1.1 2 1.9 4.2 1.9 6.2 0 4-2.8 5.7-6.3 3.7-1.7-1-3.3-2.7-4.5-4.7-1.1-2-1.9-4.2-1.9-6.2 0-4.1 2.8-5.7 6.3-3.7z" fill="#e0e0e0"></path><path d="m210.1 295.3c1.1-.7 1.8-2.1 1.8-4.1s-.7-4.3-1.9-6.2c-1.1-2-2.7-3.7-4.5-4.7-1.7-1-3.3-1.1-4.4-.5l1.8-1c1.1-.6 2.7-.5 4.4.5s3.3 2.7 4.5 4.7c1.1 2 1.9 4.2 1.9 6.2s-.7 3.4-1.8 4.1z" fill="#e0e0e0"></path><path d="m154.1 325.3c0-4.4-3.1-9.7-6.8-11.9-1.9-1.1-3.6-1.2-4.8-.5l-24 13.9 9.8 16.7 23.9-13.8c1.1-.7 1.9-2.3 1.9-4.4z" fill="#ee4922"></path><path d="m150 315.7-24 13.8c-.9-.9-1.8-1.7-2.8-2.3l24-13.8c1 .6 2 1.4 2.8 2.3z" fill="#fff" opacity=".3"></path><path d="m154.1 325.3c0 2.2-.8 3.7-2 4.4l-23.9 13.8c1.2-.7 2-2.2 2-4.4 0-1.7-.5-3.5-1.2-5.2l24-13.8c.6 1.7 1.1 3.5 1.1 5.2z" opacity=".05"></path><path d="m123.2 327.2c3.8 2.2 6.8 7.5 6.8 11.9s-3.1 6.1-6.8 4c-3.8-2.2-6.8-7.5-6.8-11.9s3.1-6.1 6.8-4z" fill="#ee4922"></path><path d="m123.2 327.2c3.8 2.2 6.8 7.5 6.8 11.9s-3.1 6.1-6.8 4c-3.8-2.2-6.8-7.5-6.8-11.9s3.1-6.1 6.8-4z" opacity=".1"></path><path d="m123.2 330c-2.4-1.4-4.4-.3-4.4 2.6 0 2.8 2 6.2 4.4 7.6s4.4.3 4.4-2.6c.1-2.7-1.9-6.1-4.4-7.6zm0 8.7c-1.7-1-3.1-3.4-3.1-5.4s1.4-2.8 3.1-1.8 3.1 3.4 3.1 5.4-1.3 2.8-3.1 1.8z" opacity=".2"></path><path d="m135.2 332.2-1.7 1 1.7 1 1.7-1z" fill="#ee4922"></path><path d="m156.9 324.4-1.7-1c-.4-.2-.9-.2-1.5.1l-18.4 10.6v5.9l18.4-10.6c1.2-.7 2.2-2.4 2.2-3.8v-.2l.2.1z" fill="#ee4922"></path><path d="m157.5 325.8v.9c0 1.4-1 3.1-2.2 3.8l-18.4 10.6v-5.9l18.4-10.6c1.2-.7 2.2-.2 2.2 1.2z" fill="#ee4922"></path><path d="m157.5 325.8v.9c0 1.4-1 3.1-2.2 3.8l-18.4 10.6v-5.9l18.4-10.6c1.2-.7 2.2-.2 2.2 1.2z" opacity=".05"></path><path d="m133.5 339.1v-5.9l3.4 1.9v6z" fill="#ee4922"></path><path d="m133.5 339.1v-5.9l3.4 1.9v6z" opacity=".1"></path><path d="m369.2 237.4c-1 1-3.3 1.8-18.1 2.9-2.2.2-4.3 0-6.4-.8-2-.8-3.7-2.2-4.9-3.9-.3-.4-.5-.8-.6-1.3s-.1-1 .2-1.4.7-.6 1.2-.8c1-.3 1.9-.1 2.8.3 1.4.5 2.4.7 2.3.4s-.9-.5-1.8-1.5c-.8-.9-1.1-2.3-.5-2.7s.5-.3 1.4.5c1 .8 2.1 1.2 3.4 2.5 1.1 1.1 1.6 1.5 3 2.1 1.5.6 2.9.4 7-.2 3.6-.6 4.9-.8 6.7-1.7 1.8-2.8 6.3-14.7 8.2-17.9 2-3.4 6.2-3.5 6.2-3.5s.1 6.2-2.1 12.5c-1.4 3.9-7 13.5-8 14.5z" fill="#b16668"></path><path d="m380.4 209.9s-2.7-.5-5 .9-3.7 4-5.2 7.3c-1.7 4-3.8 9.3-3.8 9.3s2.6 2.9 7.5 3.4l6.7-11.1z" fill="#ee4922"></path><path d="m390.5 327.9h5.8v9.9h-5.8z" fill="#b16668"></path><path d="m380.3 330.3-5.8.2-.3-10.4 6.1-.2z" fill="#b16668"></path><path d="m398.8 253.9c0 5.5-1 37.7-1 37.7.1 1.6 1.7 4.4 1.8 10.1.2 8.3-3 31.1-3 31.1s-2.8 1.6-6.4.1c0 0-2.6-30.9-3.7-39.1-.9-7.2-2.4-26.7-2.4-26.7l-2.7 23.4s1.1 4.3.7 9.2c-.3 3.8-1.3 27.4-1.3 27.4s-2.7 1.8-6.7.5c0 0-4.1-33.6-4.1-37.1-.1-4 1.5-44.6 1.5-44.6z" fill="#ee4922"></path><path d="m398.8 253.9c0 5.5-1 37.7-1 37.7.1 1.6 1.7 4.4 1.8 10.1.2 8.3-3 31.1-3 31.1s-2.8 1.6-6.4.1c0 0-2.6-30.9-3.7-39.1-.9-7.2-2.4-26.7-2.4-26.7l-2.7 23.4s1.1 4.3.7 9.2c-.3 3.8-1.3 27.4-1.3 27.4s-2.7 1.8-6.7.5c0 0-4.1-33.6-4.1-37.1-.1-4 1.5-44.6 1.5-44.6z" opacity=".5"></path><path d="m395 213.2c1.3.6 2.3 1.6 2.8 2.9.5 1.2.8 2.8.8 5v11.3l.2 21.4c-8.3 4.4-18.9 4.7-27.7-1.8 0 0 .5-27.6.5-32.1 0-.2 0-.4 0-.6.3-6.4 6.7-10.9 12.9-9.3l5.2 1.3z" fill="#232428"></path><ellipse cx="380.1" cy="192.1" fill="#ee4922" rx="8" ry="8" transform="matrix(.9239 -.3827 .3827 .9239 -44.5798 160.0769)"></ellipse><ellipse cx="380.1" cy="192.1" opacity=".5" rx="8" ry="8" transform="matrix(.9239 -.3827 .3827 .9239 -44.5798 160.0769)"></ellipse><path d="m393.8 197.8s-1.3 6.1-1.8 7.1-1.6 1.3-1.6 1.3l.1-4.3z" fill="#ee4922"></path><path d="m393.8 197.8s-1.3 6.1-1.8 7.1-1.6 1.3-1.6 1.3l.1-4.3z" opacity=".5"></path><path d="m392.2 189.1s1.4-.2 2.5.9.5 4.5-.9 7.8l-2.4.3z" fill="#ee4922"></path><path d="m392.2 189.1s1.4-.2 2.5.9.5 4.5-.9 7.8l-2.4.3z" opacity=".5"></path><path d="m390.7 198c.5.3 1.2-.6 1.8-1.3.6-.6 2.6-1.5 3.5.6 1 2.1-.9 4.9-2.4 5.4-2.7.8-3.1-.9-3.1-.9l-.2 9.9c-3.3 4.2-12.5 3.9-8.7-.5v-2.9s-2.4.4-3.6.2c-2-.3-3.2-1.8-3.8-4-1-3.4-1.3-6.1-.5-12.8.9-7.3 9.4-7.4 14-4.5s3 10.8 3 10.8z" fill="#b16668"></path><path d="m390.7 198.9c.2 0 1.2-1.5 1.8-2.1.8-.8-.2-7.7-.2-7.7s.8-1.7-.8-3.5c-1.2-1.3-2.4-2.1-5.7-2.2-1.9-.1-5 .2-6.8.3-3.3.2-4.5-.6-6.4-1.1-1.4-.4-1.6 4.8 2 6.5 0 0 1.2.8 4.3 1.1 3.1.4 8-.1 8.6-.2.9-.1 1.1.8 1.6 3.1.4 2.2.8 5.7 1.6 5.8z" fill="#ee4922"></path><path d="m390.7 198.9c.2 0 1.2-1.5 1.8-2.1.8-.8-.2-7.7-.2-7.7s.8-1.7-.8-3.5c-1.2-1.3-2.4-2.1-5.7-2.2-1.9-.1-5 .2-6.8.3-3.3.2-4.5-.6-6.4-1.1-1.4-.4-1.6 4.8 2 6.5 0 0 1.2.8 4.3 1.1 3.1.4 8-.1 8.6-.2.9-.1 1.1.8 1.6 3.1.4 2.2.8 5.7 1.6 5.8z" opacity=".5"></path><path d="m392.2 189.6 2.9-1.6c-.4-.8-1.4-1.2-2.2-.7-.8.4-1.1 1.5-.7 2.3z" fill="#ee4922"></path><path d="m392.2 189.6 2.9-1.6c-.4-.8-1.4-1.2-2.2-.7-.8.4-1.1 1.5-.7 2.3z" opacity=".5"></path><path d="m381.7 208.2s4.4-.9 5.9-1.7c1-.5 1.9-1.5 2.1-2.1 0 0-.3 1.3-1.2 2.5-1.1 1.4-6.8 2.5-6.8 2.5z" fill="#9a4a4d"></path><path d="m381.9 196.9c0 .5.4.9.9.9s.9-.4.9-.9-.4-.9-.9-.9-.9.4-.9.9z" fill="#232428"></path><path d="m382.8 193.6 1.9 1c.3-.5.1-1.2-.4-1.5-.5-.2-1.2 0-1.5.5z" fill="#232428"></path><path d="m382.1 203-2 .7c.2.6.8.9 1.4.7.5-.2.8-.8.6-1.4z" fill="#9a4a4d"></path><path d="m374.4 194.4 1.7-1.3c-.3-.5-1-.6-1.5-.2-.5.3-.6 1-.2 1.5z" fill="#232428"></path><path d="m374.9 196.7c0 .5.4.9.9.9s.9-.4.9-.9-.4-.9-.9-.9-.9.4-.9.9z" fill="#232428"></path><path d="m379.3 195.9-.2 5.2-2.8-.9z" fill="#9a4a4d"></path><path d="m390.5 334.9v-.8c-.6.2-1.8 5.2-4.1 7.2-1.8 1.7-4.3 3.6-5 5.4-.7 1.9 3.5 3 5.2 2.7 2-.4 5.4-1.7 6.3-3s1.3-3.2 2-4.2c.7-.9 2.3-2 2.7-3.1.2-.6 0-1.9-.3-3-.3-1-.6-2.1-.9-2.1v.6c-.4.5-1.6.9-2.9 1-1 .1-3 0-3-.7z" fill="#232428"></path><path d="m374.4 328.8c-.3 0-.5.4-1.2 1.2-.8.9-2.1 1.8-3.4 2.5-2.2 1.1-6.4 2.8-8.3 3.6-1.2.5-1.1 2 .1 2.8s4.2 1.4 7.8.6c1.9-.4 4.5-2.2 6.1-2.1s4.6.1 5.8-.7.7-2.6.4-4.1c-.4-1.6-.8-4.2-1.4-4.1v.6c-.7 1.1-4.3 1.5-5.8.7z" fill="#232428"></path><path d="m384 267.1s-4.6-1.3-8.1-4.6c0 0 1.6 2.9 6.2 5.6l-.6 20.5z" opacity=".15"></path><path d="m408.2 242c-3.7-21.7-7.5-28.3-13.7-28.6-1.9 2.1-1.7 8.7.9 12.8 0 0 5.7 13.8 6.5 18.7.7 4.3 1.4 9.6 1.2 13.2 0 .6-.3 1.2-.8 1.7-1.2 1.2-1.3 2.2-2.1 3.6-.6 1.1-1.3 1.4-1.1 1.7s1 .8 1.9.2c.5-.3.8-.6 1.5-1.3 0 0-.3 1.7-1.3 3.8-1.5 2.9-1.2 4.4 2.8 3.6 2.5-.5 4.2-2.5 4.9-8.5.2-1.7.5-4.5.4-6.7-.3-5.8-.5-10.8-1.1-14.2z" fill="#b16668"></path><path d="m392.9 212.5c1.9.3 6.8.5 9.2 5.5 1.6 3.3 3.3 8.5 5 14.7 0 0-3.6 3.8-9 3.2l-3-8.7c-2.8-3.6-3.5-11.9-2.2-14.7z" fill="#ee4922"></path><path d="m308.2 262.5c2.3.1 3.5 1.7 5.8 7.5 2.4 5.9 6.5 15.9 5.7 18.1-.5 1.5-15.3 6.3-15.3 6.3l-3.7-4.9 11.1-5-5.8-12.8z" fill="#ffc1a7"></path><path d="m278.5 281.5-15.1 1-.5.7 13 25.6 14.4-2.4z" fill="#ee4922"></path><path d="m278.5 281.5-15.1 1-.5.7 13 25.6 14.4-2.4z" opacity=".3"></path><path d="m279.1 280.8-15.7 1.7 13 25.6 14.4-2.4z" fill="#ee4922"></path><path d="m279 283.2-13.2 1.5 10.9 20.9 12.1-2z" fill="#f5f5f5"></path><path d="m276.4 284.2s-.2-.5-.5-1.1-1.5-.9-2.7-.8l-2.3.2c-1.2.1-2 .7-1.7 1.3l.5 1z" opacity=".15"></path><path d="m275.1 280.5c-.2-.4-.7-.6-1.2-.5l-.9.1s-1.2-2.3-3.3-2.2-1 2.6-1 2.6-.4.1-1 .1c-.5.1-.8.4-.7.8l.3.6 8.1-.9c.1.1-.1-.2-.3-.6z" fill="#37474f"></path><path d="m274.4 281.3c-.8.1-1 .1-.6 1 .5 1 1 1.8 1 1.8l-3.6.4s-.6-1.3-.9-1.8-.6-.9-1.2-.8l-.3-.4 5.7-.5z" fill="#263238"></path><path d="m276.6 284.4s-.2-.5-.5-1.1-1.5-.9-2.7-.8l-2.3.2c-1.2.1-2 .7-1.7 1.3l.5 1.1z" fill="#37474f"></path><path d="m284.3 293.1s.4-2.3-.3-3.1-3.6-.7-5-1.3c-1.5-.7-1.3 1.1-.6 1.6 1.6 1.1 4.9 1.7 5.9 2.8z" fill="#f2a38f"></path><path d="m293.1 389.3s.5 1.6.8 3c.2 1.1.6 3 .2 3.8s-1.9 1.4-4.3 1.4c-1.5 0-3.9 1-5.5 1.9-1.7.9-5.2 1.3-7 1.1-2.1-.2-4.3-1.5-4.6-2.3-.3-.9-.6-2.1 5.1-3.9 0 0 6.9-2.2 9.3-4.9z" fill="#232428"></path><path d="m293.1 389.5-1.1-.1-5 .1c-2.4 2.6-9.2 4.9-9.3 4.9-.3.1-.6.2-.9.3-1 .8-.2 2.2 2.2 2.4 2.3.2 9.6-2.2 11.3-3 1.6-.9 2.8-2.5 2.8-4.6z" fill="#ffc1a7"></path><path d="m293.1 387.3v2.1c0 .8-.9 1.9-3.3 1.9-1.7-.1-2.8-.5-2.8-1.9v-2z" fill="#ffc1a7"></path><path d="m309.1 380.3c.4.2.5 1 .5 2.7 0 1.2.2 3.4-1.2 3.8-1.5.4-3.6.1-4.5-1.1-1.1-1.5-1.9-2.8-3.5-4.6-1.4-1.6-2.9-3.1-3.4-5.3-.5-2 0-2.8 1.3-3.4 1.3-.5 2.6-.1 4.5 1.5.6.4 1.2.7 1.7.9 1.2.4 4.2 5.4 4.6 5.5z" fill="#232428"></path><path d="m309.2 378.8-.1 2s-1.4 2.6-5.1 0c-.1-.2-.4-4.1-.4-4.1z" fill="#ffc1a7"></path><path d="m304.4 374.8c-.4-.1-1-.5-1.7-.9-1.5-.5-4.7.1-3.3 2.3 1.5 2.4 3.1 3.6 4.5 4.6 1.7.8 2.3-.2 2.3-.2l-.6-4.7c-.4-.6-.8-1-1.2-1.1z" fill="#ffc1a7"></path><path d="m311.9 350.9c-.7-6.6-2.2-10.4-2.2-10.4s1.3-8.9 2.3-17.5c2.3-20.1.8-20.4-2.1-27.4 0 0-25.7-3.3-26.8 7.4-1.3 13.3-.7 39.2-.5 43.9s.6 6.9 2 16.8c1.1 7.5 2.1 24 2.1 24 3.4 1.9 6.6-.3 6.6-.3s3.2-20.3 3.1-25.7c-.1-6.7-1.7-11.9-1.7-11.9s2.2-21.7 2.7-25.2c0 0 .6 6.9.8 11.7.2 4.7 1.5 9.3 2.6 18.1 1 7.6 2.6 23.6 2.6 23.6 3.4 1.9 5.7 1.1 5.7 1.1s3.5-21.6 2.8-28.2z" fill="#ee4922"></path><path d="m297.5 324.5 1.4-9s3.8-.3 8-2.8c0 0-1.7 2.6-6.4 3.7l-1.4 10.4-.6 10.9z" opacity=".1"></path><path d="m293.6 257.5.9 10 8.8-.5-.7-11.1z" fill="#ffc1a7"></path><path d="m311.2 266.1c-.9-2.6-2.7-4.2-6.7-4.2h-1.5c-.3 1.5-4.6 2.7-8.9 1.2-.6.2-2.3.5-3.2.6l-2 .3c-3.1 1-4.5 6.4-4.8 15s-1.6 26.9-1.6 26.9 6.7 3.6 17.3 2.2c9.5-1.2 13.1-6.8 12.8-6.1 0 0-1.4-6.8-4.9-13.7 5-12.3 4.8-18.3 3.5-22.2z" fill="#3e4049"></path><path d="m294.5 308.4c1.6 0 3.4-.1 5.2-.3 8.6-1.1 12.4-5.9 12.8-6.2-.1-.6-1.6-7.1-4.9-13.7 2.5-6.2 3.7-10.8 4.1-14.3-.4 2.6-4.2 12.5-9.2 15.5 0 0 2.8.4 5.2 3.7 2.5 3.3.6 14.6-13.2 15.3z" fill="#2f3037"></path><path d="m289 245.1s-3.3-4-.7-7.8c3.1-4.5 8.5-6.1 15.1-4.1 3.3 1 8.2 5.6 8.4 12 .2 4.9-13.7 8.2-13.4 11.6z" fill="#232428"></path><path d="m287 246.5s-1.9 2.9-1.7 3.3c.3.3 1.5.6 1.5.6z" fill="#f2a38f"></path><path d="m293 237.2c-1.9 1-5.2 2.8-6 9.8-.9 7.2.7 9.6 1.7 10.6.7.6 4.1.9 5.8.3 2.2-.7 7-3.1 9.3-6.8 2.6-4.3 3.2-10.1.1-12.4-4.3-3.2-9.3-2.3-10.9-1.5z" fill="#ffc1a7"></path><path d="m292.4 237.5s-1.6 6.5.3 10.6c0 0 1.2-2.5 3.3-1.8 2.2.7 2 3.7.3 5.2s-3.4.7-3.4.7.1 3.6 3.1 5c0 0 6.5 3.1 12.3-3.1 5.3-5.7 4.6-15.8-3.2-18.4-7.7-2.5-12.7 1.8-12.7 1.8z" fill="#232428"></path><path d="m319.4 242.9c-.1.2-.2.2-.3.3s-.2 0-.4 0c-.3-.1-.7-.3-1.3-.5-.5-.2-1.1-.5-1.8-.7-.6-.3-1.3-.6-2-.9-.2-.1.1-.8.3-.7.7.2 1.4.5 2.1.8.7.2 1.3.5 1.8.7s1 .4 1.3.5c.1.1.3.1.3.2v.3c0-.1 0 0 0 0z" fill="#ee4922"></path><path d="m319.4 234.5v.1.3c0 .2-.2.2-.3.3-.3.1-.7.3-1.3.5-.5.2-1.1.5-1.8.7-.7.3-1.3.5-2.1.8-.2.1-.5-.6-.3-.7.7-.3 1.4-.6 2-.9s1.2-.5 1.8-.8c.5-.2.9-.4 1.2-.5.2-.1.2-.2.4 0 .2 0 .2.1.4.2-.1 0 0 0 0 0z" fill="#ee4922"></path><path d="m316.1 237.8c0 3.8-3.1 6.9-6.9 6.9s-6.9-3.1-6.9-6.9 3.1-6.9 6.9-6.9c3.9.1 6.9 3.1 6.9 6.9z" fill="#232428"></path><path d="m287.4 234.6c-2.9 3-3.1 11.5 5.3 13.6l5.5-15.1c-3.1-2.1-8.2-1.1-10.8 1.5z" fill="#232428"></path><path d="m291.9 250.5c-.9-.3-1.3-1.3-1-2.1.3-.9 1.3-1.3 2.1-1z" fill="#263238"></path><path d="m300.6 234.5v.1.3c0 .2.2.2.3.3.3.1.7.3 1.3.5.5.2 1.1.5 1.8.7.7.3 1.3.5 2.1.8.2.1.5-.6.3-.7-.7-.3-1.4-.6-2-.9s-1.2-.5-1.8-.8c-.5-.2-.9-.4-1.2-.5-.2-.1-.2-.2-.4 0-.2 0-.3.1-.4.2z" fill="#ee4922"></path><path d="m300.6 242.9c.1.2.2.2.3.3s.2 0 .4 0c.3-.1.7-.3 1.3-.5.5-.2 1.1-.5 1.8-.7.6-.3 1.3-.6 2-.9.2-.1-.1-.8-.3-.7-.7.2-1.4.5-2.1.8-.7.2-1.3.5-1.8.7s-1 .4-1.3.5c-.1.1-.3.1-.3.2v.3c0-.1 0 0 0 0z" fill="#ee4922"></path><path d="m289.5 263.9s-1.4-.2-6.5 1.2c-5.2 1.4-17.3 4.2-17.3 4.2s-14.3-6.9-14.9-7.6-.3-2.3-.1-3.1.5-2.7.6-3.2c.3-.9-1-.7-1.8.2s-1.1 2.5-1.5 2.8-3.4-3.2-4.9-4.8c-1.5-1.7-2.1-2.8-3.1-2.1-.7.5-.3 1.5.8 2.9 1 1.4 1.2 1.6 1.4 1.9.1.3-.3.5-.4.6-.3.3-.8.7-.8 1.1v.6c-.1.5-.7.7-.9 1.2-.1.3 0 .7-.1 1.1 0 .2-.2.4-.2.7-.1.4.2.9.5 1.2 1 1.2 2.4 1.7 3.8 2.4 1.1.6 2.3.9 3.6 1.5s16.2 11.2 18.9 10.9c3-.3 21.5-3.6 21.5-3.6 4.6-3.5 1.4-10.1 1.4-10.1z" fill="#ffc1a7"></path></svg> 