<?xml version="1.0" encoding="UTF-8"?> <!-- Generator: Adobe Illustrator 24.0.0, SVG Export Plug-In . SVG Version: 6.00 Build 0) --> <svg xmlns="http://www.w3.org/2000/svg" xmlns:xlink="http://www.w3.org/1999/xlink" id="Layer_1" x="0px" y="0px" viewBox="0 0 447 447" style="enable-background:new 0 0 447 447;" xml:space="preserve"> <style type="text/css"> .st0{fill:#F5F5F5;} .st1{fill:#E6E6E6;} .st2{fill:#F0F0F0;} .st3{fill:#EE4922;} .st4{opacity:0.1;enable-background:new ;} .st5{fill:#FFFFFF;} .st6{fill:#E0E0E0;} .st7{fill:#EBEBEB;} .st8{fill:#263238;} .st9{fill:#2F3037;} .st10{fill:#232428;} .st11{fill:#3E4049;} .st12{opacity:0.3;fill:#FFFFFF;enable-background:new ;} .st13{opacity:0.2;enable-background:new ;} .st14{fill:#F28F8F;} .st15{fill:#FFA8A7;} </style> <path class="st0" d="M65,377.2c87.3,45.6,228.8,45.6,316.1,0s87.3-119.5,0-165.1s-228.8-45.6-316.1,0 C-22.3,257.6-22.3,331.6,65,377.2z"></path> <ellipse class="st1" cx="356.1" cy="289.3" rx="26.5" ry="12.6"></ellipse> <path class="st2" d="M358.7,69.3l3.8,1.5v-8.4c0-6.6,5.3-8.2,11-4.9s10.4,11.4,10.4,18v1.2c1.3-0.5,3-0.3,4.8,0.7 c4.1,2.4,7.5,8.2,7.5,13V91l5.3,3.1c2.7,1.6,4.9,5.4,4.9,8.5s-2.2,4.4-4.9,2.8l-42.8-24.7c-2.7-1.6-4.9-5.4-4.9-8.5 C353.7,69,355.9,67.8,358.7,69.3L358.7,69.3z"></path> <path class="st3" d="M59.3,329l7-4c0,0,3.4-18.5,0.8-34.5c-3.5-22.4-18.8-30.1-24.3-27.9s-6.8,8.9,3.2,21.8 C51.9,292.1,59.5,308.2,59.3,329z"></path> <path class="st4" d="M59.3,329l7-4c0,0,3.4-18.5,0.8-34.5c-3.5-22.4-18.8-30.1-24.3-27.9s-6.8,8.9,3.2,21.8 C51.9,292.1,59.5,308.2,59.3,329z"></path> <path class="st5" d="M62.5,322.1C62.4,322.1,62.4,322.1,62.5,322.1c-0.4,0-0.7-0.4-0.7-0.7c1.6-27.9-3.7-44.4-17.8-55.2 c-0.3-0.2-0.4-0.7-0.1-1c0.2-0.3,0.7-0.4,1-0.1c14.5,11.1,20,28,18.4,56.4C63.1,321.8,62.8,322.1,62.5,322.1L62.5,322.1z"></path> <path class="st3" d="M39.8,340.2c-1.1,0.6-3.4-0.8-4.3-1.3c-1.5-1-2.7-2.4-3.5-4c-0.9-1.9-1.2-3.9-0.9-6c0.2-1.1,0.5-2.1,0.8-3.2 c0.3-1,0.6-2,0.9-3.1c0.3-1,0.6-2.1,0.5-3.1c-0.3-2.1-2.1-3.6-3.8-4.8c-1.9-1.4-3.8-3.3-3.8-5.8c0-2,1-3.8,2.2-5.3s2.6-2.9,3.7-4.5 c0.8-1.2,1.4-2.5,1.3-3.9c-0.1-0.9-0.4-1.7-0.9-2.5c-0.9-1.6-2.1-3.2-2.7-4.9c-0.6-1.8-0.5-4,0.9-5.2c1.1-1,2.8-1.2,4.4-1.1 c1.4,0.1,2.8,0.7,4,1.4c4,2.2,6.3,7,10.6,8.7c1.6,0.7,3.4,0.8,5.2,1.3c1.7,0.5,3.5,1.3,4.3,2.9c1.6,3.1-1.3,7-0.2,10.3 c1,2.9,3.8,4.1,5.4,6.7c0.7,1.2,0.9,2.5,0.7,3.8c-0.2,2.3-0.5,4-1.6,6.5c-0.9,2.1-3.6,5.8-3.6,5.8C59.2,329.1,40,340.1,39.8,340.2 L39.8,340.2z"></path> <path class="st5" d="M51.3,334.3c-0.5-0.1-0.7-0.4-0.7-0.8c2-16.1-5.6-37.8-17.1-48.3c-0.3-0.3-0.3-0.7,0-1s0.7-0.3,1,0 c11.9,11,19.6,32.8,17.5,49.5C51.9,334,51.6,334.3,51.3,334.3L51.3,334.3z"></path> <path class="st5" d="M49.3,313.3c-0.1,0-0.3,0-0.4-0.1c-6.1-4.6-15.8-3.7-15.9-3.7c-0.4,0-0.7-0.2-0.8-0.6c0-0.4,0.2-0.7,0.6-0.8 c0.4,0,10.4-0.9,16.9,4c0.3,0.2,0.4,0.7,0.1,1C49.7,313.2,49.5,313.3,49.3,313.3z"></path> <path class="st5" d="M48.3,309.3c-0.4,0-0.7-0.3-0.7-0.7c0.3-8,6.2-12.7,6.5-12.9s0.7-0.2,1,0.1c0.2,0.3,0.2,0.7-0.1,1 c-0.1,0-5.6,4.5-5.9,11.9C49,309,48.7,309.3,48.3,309.3z"></path> <path class="st3" d="M371.6,274c0.3-3.5,3-9.5,7-13.7c4-4.3,10.4-6.3,14.4-4.6c3.7,1.6,2.9,6.5-2,9.5c-4.9,2.9-12.1,6.5-14.6,12 l-4.8,6.6V274z"></path> <path class="st4" d="M371.6,274c0.3-3.5,3-9.5,7-13.7c4-4.3,10.4-6.3,14.4-4.6c3.7,1.6,2.9,6.5-2,9.5c-4.9,2.9-12.1,6.5-14.6,12 l-4.8,6.6V274z"></path> <path class="st5" d="M371.6,280.4c-0.3,0-0.5-0.3-0.5-0.5c1.7-13,14.9-22,20.2-23c0.3-0.1,0.5,0.1,0.6,0.4s-0.1,0.5-0.4,0.6 c-4.9,0.9-17.8,9.9-19.4,22.2C372,280.2,371.8,280.4,371.6,280.4L371.6,280.4z"></path> <path class="st3" d="M372.1,288.4c0.7-1.9,3.4-5,7.5-7.4c4.5-2.6,10.1-3.6,11.5-5.8c1.7-2.7-0.4-5.5-4.9-5.3s-12.7,5.6-14.7,14.6 L372.1,288.4z"></path> <path class="st5" d="M371.8,286.6c-0.4-0.1-0.5-0.3-0.5-0.6c1.3-6.7,11-13.5,17.2-13.8c0.2,0,0.5,0.2,0.5,0.5s-0.2,0.5-0.5,0.5 c-5.8,0.3-15.1,6.9-16.3,13.1C372.2,286.4,372,286.6,371.8,286.6L371.8,286.6z"></path> <path class="st6" d="M201.6,328.9v0.4c0,0.6,0.5,1.4,1,1.7l59.4,34.3c0.6,0.3,1.5,0.3,2,0l87.8-50.7c0.6-0.3,1-1.1,1-1.7v-0.4 c0-0.6-0.5-1.4-1-1.7l-59.4-34.3c-0.6-0.3-1.5-0.3-2,0l-87.8,50.7C202.1,327.5,201.6,328.3,201.6,328.9L201.6,328.9z"></path> <path class="st1" d="M201.6,328.9v0.4c0,0.6,0.5,1.4,1,1.7l59.4,34.3c0.3,0.2,0.6,0.2,1,0.2v-7.8L206.4,325l-3.7,2.1 C202.1,327.5,201.6,328.3,201.6,328.9L201.6,328.9z"></path> <path class="st5" d="M202.6,328.3l59.4,34.3c0.6,0.3,1.5,0.3,2,0l87.8-50.7c0.6-0.3,0.6-0.8,0-1.2l-59.4-34.3c-0.6-0.3-1.5-0.3-2,0 l-87.8,50.7C202.1,327.5,202.1,328,202.6,328.3L202.6,328.3z"></path> <path class="st7" d="M278.4,342l-40-23.1c-0.7-0.4-0.7-1-0.1-1.4s1.7-0.4,2.4,0l40,23.1c0.7,0.4,0.7,1,0.1,1.4 C280.1,342.4,279.1,342.4,278.4,342z"></path> <path class="st6" d="M249.9,344.7l-19.7-11.4c-0.7-0.4-0.7-1-0.1-1.4c0.7-0.4,1.7-0.4,2.4,0l19.7,11.4c0.7,0.4,0.7,1,0.1,1.4 S250.6,345.1,249.9,344.7z"></path> <g> <path class="st7" d="M255.6,341.7l-13.9-8c-0.5-0.3-0.5-0.7-0.1-1c0.5-0.3,1.2-0.3,1.7,0l13.9,8c0.5,0.3,0.5,0.7,0.1,1 S256.1,342,255.6,341.7L255.6,341.7z"></path> <path class="st7" d="M285.5,337.9l-40-23.1c-0.7-0.4-0.7-1-0.1-1.4c0.7-0.4,1.7-0.4,2.4,0l40,23.1c0.7,0.4,0.7,1,0.1,1.4 C287.2,338.3,286.2,338.3,285.5,337.9z"></path> <path class="st7" d="M292.6,333.8l-40-23.1c-0.7-0.4-0.7-1-0.1-1.4c0.7-0.4,1.7-0.4,2.4,0l40,23.1c0.7,0.4,0.7,1,0.1,1.4 S293.3,334.2,292.6,333.8z"></path> <path class="st7" d="M299.7,329.7l-21.1-12.2c-0.7-0.4-0.7-1-0.1-1.4c0.7-0.4,1.7-0.4,2.4,0l21.1,12.2c0.7,0.4,0.7,1,0.1,1.4 S300.4,330.1,299.7,329.7z"></path> <path class="st7" d="M319.7,318.1l-40-23.1c-0.7-0.4-0.7-1-0.1-1.4c0.7-0.4,1.7-0.4,2.4,0l40,23.1c0.7,0.4,0.7,1,0.1,1.4 S320.4,318.5,319.7,318.1z"></path> <path class="st7" d="M326.8,314l-40-23.1c-0.7-0.4-0.7-1-0.1-1.4c0.7-0.4,1.7-0.4,2.4,0l40,23.1c0.7,0.4,0.7,1,0.1,1.4 S327.5,314.4,326.8,314z"></path> <path class="st7" d="M312.6,322.2l-40-23.1c-0.7-0.4-0.7-1-0.1-1.4c0.7-0.4,1.7-0.4,2.4,0l40,23.1c0.7,0.4,0.7,1,0.1,1.4 S313.3,322.6,312.6,322.2z"></path> <path class="st7" d="M333.9,309.9l-40-23.1c-0.7-0.4-0.7-1-0.1-1.4c0.7-0.4,1.7-0.4,2.4,0l40,23.1c0.7,0.4,0.7,1,0.1,1.4 S334.6,310.3,333.9,309.9z"></path> </g> <path class="st6" d="M265.5,345.4c-2.6-1.5-6.8-1.5-9.5,0c-2.6,1.5-2.6,4,0,5.5s6.8,1.5,9.5,0S268.1,346.9,265.5,345.4z"></path> <path class="st8" d="M202.7,217.3L165.2,239c-1.4,0.8-2.7,2.7-3,4.3l-9.3,53.8c-0.3,1.6,0.6,3.5,2,4.3l24.2,14c1.4,0.8,3.6,0.8,5,0 l51.7-29.8c1.4-0.8,2.5-2.7,2.5-4.2s-1.1-3.4-2.5-4.2l-18.6-10.7c-1.4-0.8-2.7-2.8-2.8-4.3l-4.1-40.6c-0.2-1.6-1.4-3.5-2.7-4.3 C206.2,216.4,204.1,216.5,202.7,217.3L202.7,217.3z"></path> <path class="st9" d="M181.5,305.9V316c0.9,0,1.8-0.2,2.5-0.6l51.7-29.8c1.4-0.8,2.5-2.7,2.5-4.2c0-0.9-0.4-1.9-1-2.7h-8.5 L181.5,305.9z"></path> <path class="st10" d="M207.4,220l-37.5,21.7c-1.4,0.8-2.7,2.7-3,4.3l-8.5,48.8c-0.3,1.6,0.6,3.5,2,4.3l18.6,10.7 c1.4,0.8,3.6,0.8,5,0l51.7-29.8c1.4-0.8,1.4-2.1,0-2.9l-18.6-10.7c-1.4-0.8-2.7-2.8-2.8-4.3l-4.1-40.6 C210,219.8,208.8,219.2,207.4,220L207.4,220z"></path> <path class="st11" d="M235.7,277.1l-18.6-10.7c-0.7-0.4-1.3-1.1-1.8-1.8l-56.5,32.6c0.4,0.8,0.9,1.5,1.7,1.9l18.6,10.7 c1.4,0.8,3.6,0.8,5,0l51.7-29.8C237.1,279.2,237.1,277.9,235.7,277.1L235.7,277.1z"></path> <path class="st11" d="M83.5,324.3l-2.4-1.4c-1.9-1.1-3.5-3.9-3.5-6.1V155.7c0-2.2,1.6-5,3.5-6.1l196.8-113c2-1.1,5.1-1.1,7.1,0 l1.8,1.1c1.9,1.1,3.5,3.9,3.5,6.1v161.1c0,2.2-1.6,5-3.5,6.1L90.5,324.3C88.6,325.4,85.4,325.4,83.5,324.3L83.5,324.3z"></path> <path class="st10" d="M91.7,159.9l-13.1-7.6c-0.6,1.1-1,2.3-1,3.5v161.1c0,2.2,1.6,5,3.5,6.1l2.4,1.4c1.9,1.1,5.1,1.1,7.1,0l1.2-0.7 L91.7,159.9z"></path> <path class="st9" d="M87,322.3V161.2c0-2.2,1.6-5,3.5-6.1L286.7,41.8c1.9-1.1,3.5-0.2,3.5,2v161.1c0,2.2-1.6,5-3.5,6.1L90.5,324.3 C88.6,325.4,87,324.5,87,322.3L87,322.3z"></path> <path class="st10" d="M179.1,262.2l18.6-10.7c1.4-0.8,2.5-0.2,2.5,1.3s-1.1,3.4-2.5,4.2l-18.6,10.7c-1.4,0.8-2.5,0.2-2.5-1.3 S177.7,263,179.1,262.2L179.1,262.2z"></path> <path class="st5" d="M96,160L280.8,53c1.1-0.6,2-0.1,2,1.2v140.4c0,1.3-0.9,2.8-2,3.5L96.1,304.7c-1.1,0.6-2,0.1-2-1.2v-140 C94,162.2,94.9,160.7,96,160L96,160z"></path> <path class="st3" d="M108.1,202.1l-1.9-1.1c-1.4-0.8-2.5-2.8-2.5-4.4v-26.9c0-1.6,1.1-3.6,2.5-4.4l70.6-40.8c1.4-0.8,3.6-0.8,5,0 l1.9,1.1c1.4,0.8,2.5,2.8,2.5,4.4v26.9c0,1.6-1.1,3.6-2.5,4.4l-70.6,40.8C111.8,202.9,109.5,202.9,108.1,202.1L108.1,202.1z"></path> <path class="st3" d="M108.1,202.1l-1.9-1.1c-1.4-0.8-2.5-2.8-2.5-4.4v-26.9c0-1.6,1.1-3.6,2.5-4.4l70.6-40.8c1.4-0.8,3.6-0.8,5,0 l1.9,1.1c1.4,0.8,2.5,2.8,2.5,4.4v26.9c0,1.6-1.1,3.6-2.5,4.4l-70.6,40.8C111.8,202.9,109.5,202.9,108.1,202.1L108.1,202.1z"></path> <path class="st12" d="M108.1,202.1l-1.9-1.1c-1.4-0.8-2.5-2.8-2.5-4.4v-26.9c0-1.6,1.1-3.6,2.5-4.4l70.6-40.8c1.4-0.8,3.6-0.8,5,0 l1.9,1.1c1.4,0.8,2.5,2.8,2.5,4.4v26.9c0,1.6-1.1,3.6-2.5,4.4l-70.6,40.8C111.8,202.9,109.5,202.9,108.1,202.1L108.1,202.1z"></path> <path class="st3" d="M115.4,173.5l-10.9-6.3c-0.5,0.8-0.7,1.7-0.7,2.5v26.9c0,1.6,1.1,3.6,2.5,4.4l1.9,1.1c1.4,0.8,3.6,0.8,5,0 l2.2-1.3V173.5z"></path> <path class="st13" d="M115.4,173.5l-10.9-6.3c-0.5,0.8-0.7,1.7-0.7,2.5v26.9c0,1.6,1.1,3.6,2.5,4.4l1.9,1.1c1.4,0.8,3.6,0.8,5,0 l2.2-1.3V173.5z"></path> <path class="st3" d="M110.6,173.7v26.9c0,1.6,1.1,2.3,2.5,1.5l70.6-40.8c1.4-0.8,2.5-2.8,2.5-4.4V130c0-1.6-1.1-2.3-2.5-1.5 l-70.6,40.8C111.8,170.1,110.6,172.1,110.6,173.7z"></path> <path class="st5" d="M140.8,158.8l24.4-14.1c1-0.6,1.8-0.3,1.8,0.6s-0.8,2.1-1.8,2.7l-24.4,14.1c-1,0.6-1.8,0.3-1.8-0.6 S139.8,159.4,140.8,158.8z"></path> <path class="st5" d="M140.5,167.2l39.5-22.8c0.8-0.5,1.5-0.3,1.5,0.5s-0.7,1.8-1.5,2.2l-39.5,22.8c-0.8,0.5-1.5,0.3-1.5-0.5 S139.7,167.7,140.5,167.2z"></path> <path class="st5" d="M140.5,172.6l39.5-22.8c0.8-0.5,1.5-0.3,1.5,0.5s-0.7,1.8-1.5,2.2l-39.5,22.8c-0.8,0.5-1.5,0.3-1.5-0.5 C139,174.1,139.7,173.1,140.5,172.6z"></path> <path class="st5" d="M140.5,178.1l39.5-22.8c0.8-0.5,1.5-0.3,1.5,0.5s-0.7,1.8-1.5,2.2l-39.5,22.8c-0.8,0.5-1.5,0.3-1.5-0.5 C139,179.6,139.7,178.6,140.5,178.1z"></path> <path class="st3" d="M117.4,172.3l14.9-8.6c1.1-0.6,2-0.1,2,1.2v17.2c0,1.3-0.9,2.8-2,3.5l-14.9,8.6c-1.1,0.6-2,0.1-2-1.2v-17.2 C115.4,174.6,116.3,173,117.4,172.3z"></path> <path class="st12" d="M117.4,172.3l14.9-8.6c1.1-0.6,2-0.1,2,1.2v17.2c0,1.3-0.9,2.8-2,3.5l-14.9,8.6c-1.1,0.6-2,0.1-2-1.2v-17.2 C115.4,174.6,116.3,173,117.4,172.3z"></path> <path class="st5" d="M118.7,179.9c-0.3,0-0.6-0.1-0.9-0.2c-0.6-0.4-1-1.1-1-2c0-1.7,1.2-3.7,2.7-4.6c0.8-0.5,1.6-0.5,2.3-0.2 c0.6,0.4,1,1.1,1,2c0,1.7-1.2,3.7-2.7,4.6C119.5,179.7,119.1,179.9,118.7,179.9z M120,174c-1.1,0.6-2.1,2.3-2.1,3.6 c0,0.5,0.1,0.9,0.4,1s0.7,0.1,1.1-0.2c1.1-0.6,2.1-2.3,2.1-3.6c0-0.5-0.1-0.9-0.4-1S120.4,173.8,120,174z"></path> <path class="st5" d="M134.3,176l-2.8-3c-0.3-0.3-0.7-0.4-1.1-0.4c-0.4,0.1-0.8,0.3-0.9,0.7l-4.1,9l-2-1.8c-0.3-0.2-0.6-0.4-1-0.3 c-0.4,0-0.7,0.3-0.9,0.6l-6.1,9.5v2.2l7.2-11l6.6,5.9l1.1-0.6l-4-3.6l4.2-9.3h0.1l3.7,3.9V176z"></path> <path class="st3" d="M108.1,247.1l-1.9-1.1c-1.4-0.8-2.5-2.8-2.5-4.4v-26.9c0-1.6,1.1-3.6,2.5-4.4l70.6-40.8c1.4-0.8,3.6-0.8,5,0 l1.9,1.1c1.4,0.8,2.5,2.8,2.5,4.4v26.9c0,1.6-1.1,3.6-2.5,4.4l-70.6,40.8C111.8,247.9,109.5,247.9,108.1,247.1L108.1,247.1z"></path> <path class="st3" d="M108.1,247.1l-1.9-1.1c-1.4-0.8-2.5-2.8-2.5-4.4v-26.9c0-1.6,1.1-3.6,2.5-4.4l70.6-40.8c1.4-0.8,3.6-0.8,5,0 l1.9,1.1c1.4,0.8,2.5,2.8,2.5,4.4v26.9c0,1.6-1.1,3.6-2.5,4.4l-70.6,40.8C111.8,247.9,109.5,247.9,108.1,247.1L108.1,247.1z"></path> <path class="st12" d="M108.1,247.1l-1.9-1.1c-1.4-0.8-2.5-2.8-2.5-4.4v-26.9c0-1.6,1.1-3.6,2.5-4.4l70.6-40.8c1.4-0.8,3.6-0.8,5,0 l1.9,1.1c1.4,0.8,2.5,2.8,2.5,4.4v26.9c0,1.6-1.1,3.6-2.5,4.4l-70.6,40.8C111.8,247.9,109.5,247.9,108.1,247.1L108.1,247.1z"></path> <path class="st3" d="M115.4,218.5l-10.9-6.3c-0.5,0.8-0.7,1.7-0.7,2.5v26.9c0,1.6,1.1,3.6,2.5,4.4l1.9,1.1c1.4,0.8,3.6,0.8,5,0 l2.2-1.3V218.5z"></path> <path class="st13" d="M115.4,218.5l-10.9-6.3c-0.5,0.8-0.7,1.7-0.7,2.5v26.9c0,1.6,1.1,3.6,2.5,4.4l1.9,1.1c1.4,0.8,3.6,0.8,5,0 l2.2-1.3V218.5z"></path> <path class="st3" d="M110.6,218.7v26.9c0,1.6,1.1,2.3,2.5,1.5l70.6-40.8c1.4-0.8,2.5-2.8,2.5-4.4V175c0-1.6-1.1-2.3-2.5-1.5 l-70.6,40.8C111.8,215.1,110.6,217.1,110.6,218.7z"></path> <path class="st5" d="M140.8,203.8l24.4-14.1c1-0.6,1.8-0.3,1.8,0.6s-0.8,2.1-1.8,2.7l-24.4,14.1c-1,0.6-1.8,0.3-1.8-0.6 S139.8,204.4,140.8,203.8z"></path> <path class="st5" d="M140.5,212.2l39.5-22.8c0.8-0.5,1.5-0.3,1.5,0.5s-0.7,1.8-1.5,2.2l-39.5,22.8c-0.8,0.5-1.5,0.3-1.5-0.5 S139.7,212.7,140.5,212.2z"></path> <path class="st5" d="M140.5,217.6l39.5-22.8c0.8-0.5,1.5-0.3,1.5,0.5s-0.7,1.8-1.5,2.2l-39.5,22.8c-0.8,0.5-1.5,0.3-1.5-0.5 C139,219.1,139.7,218.1,140.5,217.6z"></path> <path class="st5" d="M140.5,223.1l39.5-22.8c0.8-0.5,1.5-0.3,1.5,0.5s-0.7,1.8-1.5,2.2l-39.5,22.8c-0.8,0.5-1.5,0.3-1.5-0.5 C139,224.6,139.7,223.6,140.5,223.1z"></path> <path class="st3" d="M117.4,217.3l14.9-8.6c1.1-0.6,2-0.1,2,1.2v17.2c0,1.3-0.9,2.8-2,3.5l-14.9,8.6c-1.1,0.6-2,0.1-2-1.2v-17.2 C115.4,219.6,116.3,218,117.4,217.3z"></path> <path class="st12" d="M117.4,217.3l14.9-8.6c1.1-0.6,2-0.1,2,1.2v17.2c0,1.3-0.9,2.8-2,3.5l-14.9,8.6c-1.1,0.6-2,0.1-2-1.2v-17.2 C115.4,219.6,116.3,218,117.4,217.3z"></path> <path class="st5" d="M118.7,224.9c-0.3,0-0.6-0.1-0.9-0.2c-0.6-0.4-1-1.1-1-2c0-1.7,1.2-3.7,2.7-4.6c0.8-0.5,1.6-0.5,2.3-0.2 c0.6,0.4,1,1.1,1,2c0,1.7-1.2,3.7-2.7,4.6C119.5,224.7,119.1,224.9,118.7,224.9z M120,219c-1.1,0.6-2.1,2.3-2.1,3.6 c0,0.5,0.1,0.9,0.4,1s0.7,0.1,1.1-0.2c1.1-0.6,2.1-2.3,2.1-3.6c0-0.5-0.1-0.9-0.4-1S120.4,218.8,120,219z"></path> <path class="st5" d="M134.3,221l-2.8-3c-0.3-0.3-0.7-0.4-1.1-0.4c-0.4,0.1-0.8,0.3-0.9,0.7l-4.1,9l-2-1.8c-0.3-0.2-0.6-0.4-1-0.3 c-0.4,0-0.7,0.3-0.9,0.6l-6.1,9.5v2.2l7.2-11l6.6,5.9l1.1-0.6l-4-3.6l4.2-9.3h0.1l3.7,3.9V221z"></path> <path class="st3" d="M108.1,291.1l-1.9-1.1c-1.4-0.8-2.5-2.8-2.5-4.4v-26.9c0-1.6,1.1-3.6,2.5-4.4l70.6-40.8c1.4-0.8,3.6-0.8,5,0 l1.9,1.1c1.4,0.8,2.5,2.8,2.5,4.4v26.9c0,1.6-1.1,3.6-2.5,4.4l-70.6,40.8C111.8,291.9,109.5,291.9,108.1,291.1L108.1,291.1z"></path> <path class="st3" d="M108.1,291.1l-1.9-1.1c-1.4-0.8-2.5-2.8-2.5-4.4v-26.9c0-1.6,1.1-3.6,2.5-4.4l70.6-40.8c1.4-0.8,3.6-0.8,5,0 l1.9,1.1c1.4,0.8,2.5,2.8,2.5,4.4v26.9c0,1.6-1.1,3.6-2.5,4.4l-70.6,40.8C111.8,291.9,109.5,291.9,108.1,291.1L108.1,291.1z"></path> <path class="st12" d="M108.1,291.1l-1.9-1.1c-1.4-0.8-2.5-2.8-2.5-4.4v-26.9c0-1.6,1.1-3.6,2.5-4.4l70.6-40.8c1.4-0.8,3.6-0.8,5,0 l1.9,1.1c1.4,0.8,2.5,2.8,2.5,4.4v26.9c0,1.6-1.1,3.6-2.5,4.4l-70.6,40.8C111.8,291.9,109.5,291.9,108.1,291.1L108.1,291.1z"></path> <path class="st3" d="M115.4,262.5l-10.9-6.3c-0.5,0.8-0.7,1.7-0.7,2.5v26.9c0,1.6,1.1,3.6,2.5,4.4l1.9,1.1c1.4,0.8,3.6,0.8,5,0 l2.2-1.3V262.5z"></path> <path class="st13" d="M115.4,262.5l-10.9-6.3c-0.5,0.8-0.7,1.7-0.7,2.5v26.9c0,1.6,1.1,3.6,2.5,4.4l1.9,1.1c1.4,0.8,3.6,0.8,5,0 l2.2-1.3V262.5z"></path> <path class="st3" d="M110.6,262.7v26.9c0,1.6,1.1,2.3,2.5,1.5l70.6-40.8c1.4-0.8,2.5-2.8,2.5-4.4V219c0-1.6-1.1-2.3-2.5-1.5 l-70.6,40.8C111.8,259.1,110.6,261.1,110.6,262.7z"></path> <path class="st5" d="M140.8,247.8l24.4-14.1c1-0.6,1.8-0.3,1.8,0.6s-0.8,2.1-1.8,2.7l-24.4,14.1c-1,0.6-1.8,0.3-1.8-0.6 S139.8,248.4,140.8,247.8z"></path> <path class="st5" d="M140.5,256.2l39.5-22.8c0.8-0.5,1.5-0.3,1.5,0.5s-0.7,1.8-1.5,2.2l-39.5,22.8c-0.8,0.5-1.5,0.3-1.5-0.5 S139.7,256.7,140.5,256.2L140.5,256.2z"></path> <path class="st5" d="M140.5,261.6l39.5-22.8c0.8-0.5,1.5-0.3,1.5,0.5s-0.7,1.8-1.5,2.2l-39.5,22.8c-0.8,0.5-1.5,0.3-1.5-0.5 C139,263.1,139.7,262.1,140.5,261.6L140.5,261.6z"></path> <path class="st5" d="M140.5,267.1l39.5-22.8c0.8-0.5,1.5-0.3,1.5,0.5s-0.7,1.8-1.5,2.2l-39.5,22.8c-0.8,0.5-1.5,0.3-1.5-0.5 C139,268.6,139.7,267.6,140.5,267.1L140.5,267.1z"></path> <path class="st3" d="M117.4,261.3l14.9-8.6c1.1-0.6,2-0.1,2,1.2v17.2c0,1.3-0.9,2.8-2,3.5l-14.9,8.6c-1.1,0.6-2,0.1-2-1.2v-17.2 C115.4,263.5,116.3,262,117.4,261.3L117.4,261.3z"></path> <path class="st12" d="M117.4,261.3l14.9-8.6c1.1-0.6,2-0.1,2,1.2v17.2c0,1.3-0.9,2.8-2,3.5l-14.9,8.6c-1.1,0.6-2,0.1-2-1.2v-17.2 C115.4,263.5,116.3,262,117.4,261.3L117.4,261.3z"></path> <path class="st5" d="M118.7,268.9c-0.3,0-0.6-0.1-0.9-0.2c-0.6-0.4-1-1.1-1-2c0-1.7,1.2-3.7,2.7-4.6c0.8-0.5,1.6-0.5,2.3-0.2 c0.6,0.4,1,1.1,1,2c0,1.7-1.2,3.7-2.7,4.6C119.5,268.7,119.1,268.9,118.7,268.9L118.7,268.9z M120,263c-1.1,0.6-2.1,2.3-2.1,3.6 c0,0.5,0.1,0.9,0.4,1s0.7,0.1,1.1-0.2c1.1-0.6,2.1-2.3,2.1-3.6c0-0.5-0.1-0.9-0.4-1S120.4,262.8,120,263z"></path> <path class="st5" d="M134.3,265l-2.8-3c-0.3-0.3-0.7-0.4-1.1-0.4c-0.4,0.1-0.8,0.3-0.9,0.7l-4.1,9l-2-1.8c-0.3-0.2-0.6-0.4-1-0.3 c-0.4,0-0.7,0.3-0.9,0.6l-6.1,9.5v2.2l7.2-11l6.6,5.9l1.1-0.6l-4-3.6l4.2-9.3h0.1l3.7,3.9V265z"></path> <path class="st3" d="M197.9,237.5l-1.9-1.1c-1.4-0.8-2.5-2.8-2.5-4.4V117.8c0-1.6,1.1-3.6,2.5-4.4l108.4-62.6c1.4-0.8,3.6-0.8,5,0 l1.9,1.1c1.4,0.8,2.5,2.8,2.5,4.4v114.2c0,1.6-1.1,3.6-2.5,4.4L203,237.5C201.6,238.3,199.3,238.3,197.9,237.5L197.9,237.5z"></path> <path class="st1" d="M205.2,121.7l-10.9-6.3c-0.5,0.8-0.7,1.7-0.7,2.5v114.2c0,1.6,1.1,3.6,2.5,4.4l1.9,1.1c1.4,0.8,3.6,0.8,5,0 l2.2-1.3V121.7z"></path> <path class="st3" d="M205.2,121.7l-10.9-6.3c-0.5,0.8-0.7,1.7-0.7,2.5v5.3l6.9,4L205.2,121.7z"></path> <path class="st13" d="M205.2,121.7l-10.9-6.3c-0.5,0.8-0.7,1.7-0.7,2.5v5.3l6.9,4L205.2,121.7z"></path> <path class="st0" d="M200.5,121.8V236c0,1.6,1.1,2.3,2.5,1.5l108.4-62.6c1.4-0.8,2.5-2.8,2.5-4.4V56.3c0-1.6-1.1-2.3-2.5-1.5 L203,117.5C201.6,118.3,200.5,120.2,200.5,121.8z"></path> <path class="st3" d="M212.3,126.2c3.9-2.3,7.1-0.4,7.1,4.1c0,4.5-3.2,10-7.1,12.3s-7.1,0.4-7.1-4.1 C205.2,133.9,208.4,128.4,212.3,126.2z"></path> <path class="st3" d="M226.6,120.4l23.3-13.5c1.4-0.8,2.5-0.2,2.5,1.3s-1.1,3.4-2.5,4.2l-23.3,13.5c-1.4,0.8-2.5,0.2-2.5-1.3 S225.2,121.2,226.6,120.4z"></path> <path class="st3" d="M225.3,130.1l16.4-9.5c0.7-0.4,1.3-0.1,1.3,0.6c0,0.8-0.6,1.7-1.3,2.1l-16.4,9.5c-0.7,0.4-1.3,0.1-1.3-0.6 C224.1,131.5,224.6,130.5,225.3,130.1L225.3,130.1z"></path> <path class="st3" d="M207.7,150.6l99-57.1c1.4-0.8,2.5-0.2,2.5,1.5v70.6c0,1.6-1.1,3.6-2.5,4.4l-99,57.2c-1.4,0.8-2.5,0.2-2.5-1.5 v-70.6C205.2,153.4,206.3,151.4,207.7,150.6L207.7,150.6z"></path> <path class="st5" d="M231.4,197.3c-0.3,0-0.7-0.1-0.9-0.2c-0.7-0.4-1-1.1-1-2.1v-38c0-1.8,1.2-4,2.8-4.9l49.3-28.5 c0.9-0.5,1.7-0.6,2.4-0.2s1,1.1,1,2.1v37.8c0,1.8-1.2,4-2.8,4.9l-49.3,28.5C232.3,197.1,231.8,197.3,231.4,197.3L231.4,197.3z M282.9,124.5c-0.2,0-0.5,0.1-0.8,0.3l-49.3,28.5c-1.2,0.7-2.2,2.5-2.2,3.9V195c0,0.6,0.2,1,0.4,1.1c0.3,0.2,0.7,0.1,1.2-0.2 l49.3-28.5c1.2-0.7,2.2-2.5,2.2-3.9v-37.8c0-0.6-0.2-1-0.4-1.1C283.2,124.5,283.1,124.5,282.9,124.5L282.9,124.5z"></path> <path class="st5" d="M238.2,165.5c-0.5,0-1.1-0.1-1.5-0.4c-1.1-0.6-1.7-1.9-1.7-3.6c0-3.2,2.2-7.1,5-8.7c1.4-0.8,2.8-1,3.9-0.3 c1.1,0.6,1.7,1.9,1.7,3.6c0,3.2-2.2,7.1-5,8.7C239.7,165.2,238.9,165.5,238.2,165.5z M240.6,153.8c-2.4,1.4-4.4,4.9-4.4,7.7 c0,1.2,0.4,2.1,1.1,2.6c0.7,0.4,1.7,0.3,2.8-0.3c2.4-1.4,4.4-4.9,4.4-7.7c0-1.2-0.4-2.1-1.1-2.6 C242.6,153.1,241.6,153.2,240.6,153.8z"></path> <path class="st5" d="M230.5,191.2l-1-0.6l17.1-25.9c0.5-0.8,1.5-1,2.3-0.5l18,11.9l-0.6,1l-18-11.9c-0.2-0.2-0.5-0.1-0.7,0.1 L230.5,191.2z"></path> <path class="st5" d="M257.2,170.4l-1-0.5l13.4-25.2c0.3-0.5,0.8-0.8,1.3-0.9s1.1,0.2,1.5,0.6l12.4,14.8l-0.9,0.7l-12.4-14.8 c-0.1-0.1-0.3-0.2-0.4-0.2c-0.2,0-0.3,0.1-0.4,0.3L257.2,170.4z"></path> <path class="st3" d="M313.9,56.3c0-1.6-1.1-2.3-2.5-1.5L203,117.5c-1.4,0.8-2.5,2.8-2.5,4.4v5.3l113.4-65.5V56.3z"></path> <path class="st4" d="M313.9,56.3c0-1.6-1.1-2.3-2.5-1.5L203,117.5c-1.4,0.8-2.5,2.8-2.5,4.4v5.3l113.4-65.5V56.3z"></path> <path class="st14" d="M347.5,179.4c-2.9,3.5-8.3,10.2-11,13.6c-1.4,1.8-2.3,4-2.2,6.4c0,1.7,0.5,3.1,2.2,2.4c1.2-0.5,2-1.2,3.7-2.9 c1.6-1.6,7.2-8.3,7.2-8.3s4.3-11.4,6.7-12.1s4-0.5,4-0.5C355.2,177,351.2,175,347.5,179.4L347.5,179.4z"></path> <path class="st3" d="M359.5,175.7c-2.9-2.2-7.9-1.6-10.6,1.7c-2,2.4-6.8,8.4-6.8,8.4s1.4,3.8,6.2,5.5L359.5,175.7z"></path> <path class="st4" d="M359.5,175.7c-2.9-2.2-7.9-1.6-10.6,1.7c-2,2.4-6.8,8.4-6.8,8.4s1.4,3.8,6.2,5.5L359.5,175.7z"></path> <path class="st11" d="M314.4,266.2l-17.5,20c-0.5,0.6-1.5,0.2-1.4-0.6l1.7-26.6L314.4,266.2z"></path> <path class="st10" d="M295.5,285.5c-0.1,0.8,0.9,1.2,1.4,0.6l3.4-3.9c-1.7,0.2-3.3-0.6-4.2-2l-0.2-0.4L295.5,285.5z"></path> <path class="st9" d="M340,155.4l-0.9,2.3l-1.1,2.7l-40.7,98.5c1,2.8,3.2,5,5.9,6.4c4,2.1,8.8,2.5,11.3,0.9l40.4-97.8l2.2-5.2 C355.4,166.5,338.5,158.8,340,155.4L340,155.4z"></path> <path class="st3" d="M336.4,164l-2.1,5.1c-0.7,1.5,2.1,3.7,5.6,5.5c4.6,2.4,10.5,4.1,11.4,2.2l1.5-3.7l0.6-1.3 c-0.9,1.9-6.8,0.2-11.4-2.2c-3.3-1.7-6-3.9-5.6-5.3C336.4,164.1,336.4,164.1,336.4,164z"></path> <path class="st9" d="M335.9,165.3c-1.5,3.4,15.4,11.1,17,7.7l2.1-5.1c-1.5,3.4-18.5-4.3-17-7.7L335.9,165.3z"></path> <path class="st3" d="M340,155.4l-2.1,5c-1.5,3.3,14.8,10.9,16.9,8c0,0,0.1-0.1,0.1-0.2l2.1-5.1C355.4,166.5,338.5,158.8,340,155.4z"></path> <path class="st10" d="M348.8,134.2l-8.8,21.3c-0.7,1.4,2,3.7,5.5,5.5c4.6,2.4,10.5,4.2,11.4,2.3l8.5-20.4 c2.4-4.6-5.8-10.4-11.7-10.7C351.6,131.8,349.7,132.4,348.8,134.2L348.8,134.2z"></path> <circle class="st8" cx="355.4" cy="158.3" r="7.1"></circle> <path class="st15" d="M367.4,278.8h5v8.6h-5V278.8z"></path> <path class="st15" d="M355,278.3l-5,0.2l-0.2-9.1l5-0.2L355,278.3z"></path> <path class="st11" d="M372.1,210.7c0,4.8,0.6,33.8,0.6,33.8c0.1,1.4,1.4,3.9,1.1,9.2c-0.4,7.2-1,25.9-1,25.9s-2.4,2.3-5.7,0 c0,0-4.5-25.9-5.4-33c-0.8-6.2-2.1-23.1-2.1-23.1l-4.6,19.9c0,0,0.8,4.7,1,8s-0.9,20.6-0.9,20.6s-2.5,1.8-5.5,0.2c0,0-4-26.1-4.5-29 c-0.5-3,3.5-32.4,3.5-32.4h23.5V210.7z"></path> <path class="st3" d="M367.3,176.1c2.2,0.4,3.9,2,4.4,4.2c0.2,1.1,0.4,2.4,0.4,3.8v9.8v16.8c-3.5,3.8-15.8,5.6-23.5,0 c0,0,0.2-23.5,0.7-27.4c1-6.7,4.2-9.1,7.4-8.9l7.7,1.1L367.3,176.1z"></path> <path class="st8" d="M367.7,163.4c0,0-1.2,5.4-1.6,6.3c-0.5,0.9-1.4,1.1-1.4,1.1l0.1-3.8L367.7,163.4z"></path> <path class="st10" d="M366.2,155.6c0,0,1.2-0.2,2.2,0.8c0.9,1,0.4,4-0.8,7l-2.2,0.2L366.2,155.6z"></path> <path class="st15" d="M364.8,163.6c0.4,0.3,1.1-0.6,1.6-1.1c0.5-0.6,2.3-1.3,3.2,0.5c0.9,1.9-0.8,4.4-2.2,4.8 c-2.4,0.7-2.7-0.8-2.7-0.8l-0.2,8.6c0,0-1.6,3.8-5.8,4.4s-3.4-2.9-2-4.6v-2.6c0,0-2.2,0.3-3.2,0.2c-1.8-0.3-2.9-1.7-3.4-3.5 c-0.9-3-1.2-5.5-0.5-11.5c0.8-6.6,8.4-6.6,12.5-4C366.4,156.4,364.8,163.6,364.8,163.6L364.8,163.6z"></path> <path class="st9" d="M364.8,164.4c0.2,0,1.1-1.4,1.6-1.9c0.8-0.7-0.2-6.9-0.2-6.9s0.7-1.5-0.7-3.1c-1-1.1-2.8-1.3-5.7-1.7 c-1.5-0.2-3.9-0.7-5.4-1c-1.8-0.3-3.4-0.7-4.7,0.4c-1,0.9-1.4,2.4-0.9,3.7c0.1,0.3,0.3,0.5,0.5,0.8c0.4,0.4,0.8,0.7,1.3,0.9 c0,0,0.8,0.7,3.6,1.1c2.8,0.3,7.1-0.1,7.7-0.1c0.8-0.1,1,0.7,1.4,2.8C363.8,161.2,364.1,164.3,364.8,164.4L364.8,164.4z"></path> <path class="st9" d="M366.2,156.1l2.6-1.4c-0.4-0.8-1.3-1.1-2-0.7S365.8,155.3,366.2,156.1L366.2,156.1z"></path> <path class="st14" d="M356.8,172.8c0,0,3.9-0.8,5.3-1.5c0.9-0.5,1.7-1.3,1.9-1.9c0,0-0.3,1.2-1.1,2.2c-1,1.3-6.1,2.2-6.1,2.2 L356.8,172.8z"></path> <path class="st8" d="M357.7,162.6c0,0.4,0.4,0.8,0.8,0.8s0.8-0.4,0.8-0.8s-0.4-0.8-0.8-0.8S357.7,162.2,357.7,162.6z"></path> <path class="st8" d="M358.6,159.7l1.7,0.9c0.2-0.5,0.1-1.1-0.4-1.3C359.4,159,358.8,159.2,358.6,159.7L358.6,159.7z"></path> <path class="st14" d="M357.1,168.1l-1.8,0.7c0.2,0.5,0.7,0.8,1.2,0.6C357.1,169.1,357.3,168.6,357.1,168.1L357.1,168.1z"></path> <path class="st8" d="M350.8,160.3l1.5-1.2c-0.3-0.4-0.9-0.5-1.3-0.2C350.5,159.3,350.4,159.9,350.8,160.3z"></path> <path class="st8" d="M351.2,162.4c0,0.4,0.4,0.8,0.8,0.8s0.8-0.4,0.8-0.8s-0.4-0.8-0.8-0.8S351.2,162,351.2,162.4z"></path> <path class="st14" d="M355.2,161.7l-0.2,4.7l-2.5-0.8L355.2,161.7z"></path> <path class="st10" d="M367.4,284.9v-0.7c-0.5,0.2-1.6,4.5-3.6,6.3c-1.6,1.4-3.7,3.1-4.3,4.7c-0.6,1.7,3,2.6,4.5,2.3 c1.7-0.3,4.7-1.5,5.4-2.6s1.1-2.8,1.7-3.6s2-1.7,2.3-2.7c0.2-0.5,0-1.7-0.3-2.6c-0.2-0.9-0.5-1.9-0.8-1.8v0.5 c-0.4,0.4-1.4,0.8-2.5,0.8C369.2,285.6,367.4,285.4,367.4,284.9L367.4,284.9z"></path> <path class="st10" d="M350,276.9c-0.3,0-0.5,0.4-1,1c-0.7,0.8-1.8,1.6-2.9,2.1c-1.9,0.9-5.5,2.4-7.2,3.1c-1,0.5-1,1.7,0.1,2.4 s3.6,1.2,6.7,0.5c1.7-0.4,3.9-1.9,5.3-1.8s4,0.1,5-0.6s0.6-2.2,0.3-3.5c-0.3-1.4-0.8-3.6-1.2-3.5v0.4c-0.6,0.9-3.7,1.3-5,0.6 L350,276.9z"></path> <path class="st10" d="M359.6,223.5c0,0-4-1.1-7-4c0,0,1.3,2.5,5.4,4.9l-1.5,12.8L359.6,223.5z"></path> <path class="st15" d="M331.5,204.8c1.1,0.3,2.2,0.2,3.7,0.7c1.3,0.5,1.9,0.6,3.2,0.5c1.4-0.1,5.2-1.9,8.5-3.9c3.9-2.4,8-6.7,9.4-8.8 c3-4.2,6.3-10.9,7.9-13.5s3.1-2.8,4.9-2.8c2.1,0.1,3.4,2,1.6,5.9s-5.8,10.6-9.5,15.1c-1.8,2.2-5.1,5.5-10.1,8.6 c-3.5,2.1-6.6,3.2-10.5,4.5c-1.1,0.4-1.8,0.9-3.7,1.8c-0.8,0.4-1.6,0.8-2.5,0.9c-1.1,0.1-2.2,0.2-3.3,0c-1.4-0.2-2.7-0.7-3.8-1.6 c-0.6-0.5-1.1-1.1-1.4-1.8s-0.4-1.5-0.2-2.2c0-0.1,0.1-0.3,0.2-0.4c0.2-0.2,0.5-0.2,0.8-0.2c1.6,0.1,3.2,0.3,4.8,0.2 c1.3-0.1,2.2-0.3,2-0.5s-1-0.1-2-0.5s-1.7-1.5-1.4-2C330.5,204.4,330.4,204.5,331.5,204.8z"></path> <path class="st3" d="M368.5,176.4c1.6,0.1,3.7,1.1,3.6,3.8c0,2.7-4.2,10.6-7.4,15.1c0,0-5-0.3-7.7-4.1c0,0,4.7-7.5,6-9.9 C364.1,179.2,366.1,176.3,368.5,176.4L368.5,176.4z"></path> <path class="st15" d="M326.6,187.9c0,0,2.1-1.1,4.8-0.6c1.3,0.2,1.3,4.6-2.9,6c-2.8,0.9-4.4,0.5-5.3,2.8c0,0-1.8-0.2-1.4-2.8 c0.4-2.5,1.5-4.8,3.4-7c1.2-1.4,1.3-2.6,1.9-2.2c0.7,0.5,0.4,1.8,0.4,1.8L326.6,187.9z"></path> </svg> 