<svg width="210" height="56" viewBox="0 0 210 56" fill="none" xmlns="http://www.w3.org/2000/svg">
<path d="M3 27.9977V3.0177H27.98" stroke="#FF0000" stroke-width="4.13682" stroke-linecap="round"/>
<path d="M52.96 27.9976V52.9777H27.98" stroke="#FF0000" stroke-width="4.13682" stroke-linecap="round"/>
<path d="M18.7104 33.6103L27.8234 24.4973L36.9365 33.6103" stroke="#FF0000" stroke-width="4.13682" stroke-linecap="round"/>
<path d="M77.3546 29.4312L73.9637 32.9137V38.382H69.9923V16.9978H73.9637V27.9648L84.5335 16.9978H88.9937L80.0123 26.5596L89.5435 38.382H84.9001L77.3546 29.4312ZM97.7251 21.8856C100.128 21.8856 101.961 22.466 103.224 23.6269C104.507 24.7674 105.148 26.4985 105.148 28.8202V38.382H101.544V36.3963C101.075 37.1091 100.403 37.659 99.5275 38.0459C98.6722 38.4125 97.6335 38.5958 96.4115 38.5958C95.1896 38.5958 94.1204 38.3921 93.2039 37.9848C92.2875 37.5571 91.5746 36.9767 91.0655 36.2435C90.5767 35.49 90.3323 34.6448 90.3323 33.708C90.3323 32.2416 90.872 31.0706 91.9514 30.1949C93.0512 29.2988 94.7721 28.8507 97.1142 28.8507H101.33V28.6063C101.33 27.4659 100.984 26.5901 100.291 25.9791C99.6192 25.3682 98.6111 25.0627 97.2669 25.0627C96.3504 25.0627 95.4442 25.2052 94.5481 25.4904C93.6723 25.7755 92.929 26.1726 92.318 26.6818L90.8211 23.9018C91.6765 23.2501 92.705 22.7512 93.9065 22.4049C95.1081 22.0587 96.381 21.8856 97.7251 21.8856ZM97.2058 35.8159C98.163 35.8159 99.0082 35.602 99.7414 35.1743C100.495 34.7263 101.024 34.0949 101.33 33.2803V31.3863H97.3891C95.1896 31.3863 94.0898 32.1093 94.0898 33.5552C94.0898 34.2477 94.3648 34.7976 94.9146 35.2049C95.4645 35.6122 96.2282 35.8159 97.2058 35.8159ZM119.092 21.8856C120.68 21.8856 122.096 22.2318 123.338 22.9243C124.601 23.6167 125.588 24.5943 126.301 25.8569C127.014 27.1196 127.37 28.5758 127.37 30.2254C127.37 31.8751 127.014 33.3414 126.301 34.6245C125.588 35.8871 124.601 36.8647 123.338 37.5571C122.096 38.2496 120.68 38.5958 119.092 38.5958C116.892 38.5958 115.151 37.8626 113.868 36.3963V44.3084H110.049V22.0689H113.684V24.2073C114.316 23.4334 115.09 22.853 116.006 22.466C116.943 22.0791 117.972 21.8856 119.092 21.8856ZM118.664 35.3271C120.069 35.3271 121.22 34.8587 122.116 33.9218C123.032 32.985 123.491 31.7529 123.491 30.2254C123.491 28.698 123.032 27.4659 122.116 26.529C121.22 25.5922 120.069 25.1238 118.664 25.1238C117.747 25.1238 116.923 25.3376 116.19 25.7653C115.456 26.1726 114.876 26.7632 114.448 27.5371C114.021 28.311 113.807 29.2071 113.807 30.2254C113.807 31.2437 114.021 32.1398 114.448 32.9137C114.876 33.6876 115.456 34.2884 116.19 34.7161C116.923 35.1234 117.747 35.3271 118.664 35.3271ZM136.032 38.5958C134.709 38.5958 133.415 38.4227 132.153 38.0765C130.89 37.7303 129.882 37.2924 129.128 36.7629L130.595 33.8607C131.328 34.3495 132.204 34.7467 133.222 35.0521C134.261 35.3373 135.279 35.4798 136.277 35.4798C138.558 35.4798 139.698 34.879 139.698 33.6774C139.698 33.1072 139.403 32.7101 138.812 32.486C138.242 32.262 137.315 32.0482 136.032 31.8445C134.688 31.6409 133.588 31.4066 132.733 31.1419C131.898 30.8771 131.165 30.4189 130.534 29.7672C129.923 29.0951 129.617 28.1685 129.617 26.9873C129.617 25.4394 130.259 24.2073 131.542 23.2908C132.845 22.354 134.597 21.8856 136.796 21.8856C137.916 21.8856 139.036 22.018 140.156 22.2827C141.277 22.5271 142.193 22.8632 142.906 23.2908L141.44 26.193C140.055 25.3784 138.497 24.971 136.766 24.971C135.645 24.971 134.79 25.1441 134.199 25.4904C133.629 25.8162 133.344 26.2541 133.344 26.804C133.344 27.4149 133.65 27.8528 134.261 28.1176C134.892 28.362 135.859 28.5962 137.163 28.8202C138.466 29.0238 139.535 29.258 140.37 29.5228C141.205 29.7876 141.918 30.2356 142.509 30.867C143.12 31.4983 143.425 32.3944 143.425 33.5552C143.425 35.0827 142.763 36.3046 141.44 37.2211C140.116 38.1376 138.313 38.5958 136.032 38.5958ZM146.714 15.7147H150.532V38.382H146.714V15.7147ZM162.876 38.5958C161.226 38.5958 159.74 38.2394 158.416 37.5266C157.092 36.8138 156.053 35.826 155.3 34.5634C154.567 33.2803 154.2 31.8343 154.2 30.2254C154.2 28.6165 154.567 27.1807 155.3 25.918C156.053 24.6554 157.092 23.6676 158.416 22.9548C159.74 22.242 161.226 21.8856 162.876 21.8856C164.546 21.8856 166.043 22.242 167.367 22.9548C168.69 23.6676 169.719 24.6554 170.452 25.918C171.206 27.1807 171.582 28.6165 171.582 30.2254C171.582 31.8343 171.206 33.2803 170.452 34.5634C169.719 35.826 168.69 36.8138 167.367 37.5266C166.043 38.2394 164.546 38.5958 162.876 38.5958ZM162.876 35.3271C164.281 35.3271 165.442 34.8587 166.359 33.9218C167.275 32.985 167.733 31.7529 167.733 30.2254C167.733 28.698 167.275 27.4659 166.359 26.529C165.442 25.5922 164.281 25.1238 162.876 25.1238C161.471 25.1238 160.31 25.5922 159.393 26.529C158.497 27.4659 158.049 28.698 158.049 30.2254C158.049 31.7529 158.497 32.985 159.393 33.9218C160.31 34.8587 161.471 35.3271 162.876 35.3271ZM182.718 38.5958C181.028 38.5958 179.511 38.2394 178.167 37.5266C176.822 36.8138 175.774 35.826 175.02 34.5634C174.267 33.2803 173.89 31.8343 173.89 30.2254C173.89 28.6165 174.267 27.1807 175.02 25.918C175.774 24.6554 176.812 23.6676 178.136 22.9548C179.48 22.242 181.008 21.8856 182.718 21.8856C184.327 21.8856 185.732 22.2115 186.934 22.8632C188.156 23.5149 189.072 24.4517 189.683 25.6737L186.751 27.3844C186.282 26.6309 185.692 26.0708 184.979 25.7042C184.287 25.3173 183.523 25.1238 182.688 25.1238C181.262 25.1238 180.081 25.5922 179.144 26.529C178.207 27.4455 177.739 28.6776 177.739 30.2254C177.739 31.7732 178.197 33.0156 179.114 33.9524C180.05 34.8688 181.242 35.3271 182.688 35.3271C183.523 35.3271 184.287 35.1438 184.979 34.7772C185.692 34.3902 186.282 33.82 186.751 33.0665L189.683 34.7772C189.052 35.9992 188.125 36.9462 186.904 37.6182C185.702 38.2699 184.307 38.5958 182.718 38.5958ZM199.495 31.3863L196.654 34.0746V38.382H192.835V15.7147H196.654V29.4006L204.566 22.0689H209.148L202.336 28.9118L209.79 38.382H205.146L199.495 31.3863Z" fill="black"/>
</svg>
